<?xml version="1.0" standalone="no"?>
 <!DOCTYPE svg PUBLIC "-//W3C//DTD SVG 1.1//EN" 
 "http://www.w3.org/Graphics/SVG/1.1/DTD/svg11.dtd"> 
<svg
  xmlns:svg="http://www.w3.org/2000/svg"
  xmlns="http://www.w3.org/2000/svg"
  xmlns:xlink="http://www.w3.org/1999/xlink"
  version="1.1"
  width="15.0876mm" height="18.0848mm" viewBox="0.0000 0.0000 15.0876 18.0848">
<title>SVG Image created as TLV70450DBVR-Edge_Cuts.svg date 2025/05/19 23:54:06 </title>
  <desc>Image generated by PCBNEW </desc>
<g style="fill:#000000; fill-opacity:1.0000;stroke:#000000; stroke-opacity:1.0000;
stroke-linecap:round; stroke-linejoin:round;"
 transform="translate(0 0) scale(1 1)">
<path style="fill:none; 
stroke:#D0D2CD; stroke-width:0.0500; stroke-opacity:1; 
stroke-linecap:round; stroke-linejoin:round;fill:none"
d="M 0.0500,0.0500
15.0500,0.0500
15.0500,18.0500
0.0500,18.0500
Z" /> 
<path style="fill:#4D7FC4; fill-opacity:1.0000; stroke:none;fill-rule:evenodd;"
d="M 3.4000,12.3000
3.3043,12.2810
3.2232,12.2268
3.1690,12.1457
3.1500,12.0500
3.1500,10.0500
3.1690,9.9543
3.2232,9.8732
3.3043,9.8190
3.4000,9.8000
4.7000,9.8000
4.7957,9.8190
4.8768,9.8732
4.9310,9.9543
4.9500,10.0500
4.9500,12.0500
4.9310,12.1457
4.8768,12.2268
4.7957,12.2810
4.7000,12.3000
Z" /> 
<path style="fill:#4D7FC4; fill-opacity:1.0000; stroke:none;fill-rule:evenodd;"
d="M 3.4000,8.3000
3.3043,8.2810
3.2232,8.2268
3.1690,8.1457
3.1500,8.0500
3.1500,6.0500
3.1690,5.9543
3.2232,5.8732
3.3043,5.8190
3.4000,5.8000
4.7000,5.8000
4.7957,5.8190
4.8768,5.8732
4.9310,5.9543
4.9500,6.0500
4.9500,8.0500
4.9310,8.1457
4.8768,8.2268
4.7957,8.2810
4.7000,8.3000
Z" /> 
<path style="fill:#4D7FC4; fill-opacity:1.0000; stroke:none;fill-rule:evenodd;"
d="M 9.9000,4.4000
8.2000,4.4000
8.2000,2.7000
9.9000,2.7000
Z" /> 
</g>
<g style="fill:#4D7FC4; fill-opacity:1.0000; stroke:none;">
<circle cx="6.5100" cy="3.5500" r="0.8500" /> 
<circle cx="3.9700" cy="3.5500" r="0.8500" /> 
<path style="fill:#4D7FC4; fill-opacity:1.0000; stroke:none;fill-rule:evenodd;"
d="M 8.7500,10.0000
8.6543,9.9810
8.5732,9.9268
8.5190,9.8457
8.5000,9.7500
8.5000,9.1500
8.5190,9.0543
8.5732,8.9732
8.6543,8.9190
8.7500,8.9000
9.3500,8.9000
9.4457,8.9190
9.5268,8.9732
9.5810,9.0543
9.6000,9.1500
9.6000,9.7500
9.5810,9.8457
9.5268,9.9268
9.4457,9.9810
9.3500,10.0000
Z" /> 
<path style="fill:#4D7FC4; fill-opacity:1.0000; stroke:none;fill-rule:evenodd;"
d="M 8.7500,7.2000
8.6543,7.1810
8.5732,7.1268
8.5190,7.0457
8.5000,6.9500
8.5000,6.3500
8.5190,6.2543
8.5732,6.1732
8.6543,6.1190
8.7500,6.1000
9.3500,6.1000
9.4457,6.1190
9.5268,6.1732
9.5810,6.2543
9.6000,6.3500
9.6000,6.9500
9.5810,7.0457
9.5268,7.1268
9.4457,7.1810
9.3500,7.2000
Z" /> 
</g>
<g style="fill:none; 
stroke:#4D7FC4; stroke-width:1.5000; stroke-opacity:1; 
stroke-linecap:round; stroke-linejoin:round;">
<path d="M6.5100 3.5500
L6.5100 8.5900
" />
<path d="M9.0500 9.4500
L7.3700 9.4500
" />
<path d="M7.3700 9.4500
L6.5100 8.5900
" />
<path d="M6.5100 8.5900
L4.0500 11.0500
" />
<path d="M9.0500 3.5500
L9.0500 6.6500
" />
<path d="M3.9700 3.5500
L3.9700 6.9700
" />
<path d="M3.9700 6.9700
L4.0500 7.0500
" />
<path style="fill:#02FFEE; fill-opacity:0.4000; stroke:none;fill-rule:evenodd;"
d="M 3.4000,12.3000
3.3043,12.2810
3.2232,12.2268
3.1690,12.1457
3.1500,12.0500
3.1500,10.0500
3.1690,9.9543
3.2232,9.8732
3.3043,9.8190
3.4000,9.8000
4.7000,9.8000
4.7957,9.8190
4.8768,9.8732
4.9310,9.9543
4.9500,10.0500
4.9500,12.0500
4.9310,12.1457
4.8768,12.2268
4.7957,12.2810
4.7000,12.3000
Z" /> 
<path style="fill:#02FFEE; fill-opacity:0.4000; stroke:none;fill-rule:evenodd;"
d="M 3.4000,8.3000
3.3043,8.2810
3.2232,8.2268
3.1690,8.1457
3.1500,8.0500
3.1500,6.0500
3.1690,5.9543
3.2232,5.8732
3.3043,5.8190
3.4000,5.8000
4.7000,5.8000
4.7957,5.8190
4.8768,5.8732
4.9310,5.9543
4.9500,6.0500
4.9500,8.0500
4.9310,8.1457
4.8768,8.2268
4.7957,8.2810
4.7000,8.3000
Z" /> 
<path style="fill:#02FFEE; fill-opacity:0.4000; stroke:none;fill-rule:evenodd;"
d="M 9.9000,4.4000
8.2000,4.4000
8.2000,2.7000
9.9000,2.7000
Z" /> 
</g>
<g style="fill:#02FFEE; fill-opacity:0.4000; stroke:none;">
<circle cx="6.5100" cy="3.5500" r="0.8500" /> 
<circle cx="3.9700" cy="3.5500" r="0.8500" /> 
<path style="fill:#02FFEE; fill-opacity:0.4000; stroke:none;fill-rule:evenodd;"
d="M 8.7500,10.0000
8.6543,9.9810
8.5732,9.9268
8.5190,9.8457
8.5000,9.7500
8.5000,9.1500
8.5190,9.0543
8.5732,8.9732
8.6543,8.9190
8.7500,8.9000
9.3500,8.9000
9.4457,8.9190
9.5268,8.9732
9.5810,9.0543
9.6000,9.1500
9.6000,9.7500
9.5810,9.8457
9.5268,9.9268
9.4457,9.9810
9.3500,10.0000
Z" /> 
<path style="fill:#02FFEE; fill-opacity:0.4000; stroke:none;fill-rule:evenodd;"
d="M 8.7500,7.2000
8.6543,7.1810
8.5732,7.1268
8.5190,7.0457
8.5000,6.9500
8.5000,6.3500
8.5190,6.2543
8.5732,6.1732
8.6543,6.1190
8.7500,6.1000
9.3500,6.1000
9.4457,6.1190
9.5268,6.1732
9.5810,6.2543
9.6000,6.3500
9.6000,6.9500
9.5810,7.0457
9.5268,7.1268
9.4457,7.1810
9.3500,7.2000
Z" /> 
<path style="fill:#00C2C2; fill-opacity:0.9000; stroke:none;fill-rule:evenodd;"
d="M 3.4000,12.3000
3.3043,12.2810
3.2232,12.2268
3.1690,12.1457
3.1500,12.0500
3.1500,10.0500
3.1690,9.9543
3.2232,9.8732
3.3043,9.8190
3.4000,9.8000
4.7000,9.8000
4.7957,9.8190
4.8768,9.8732
4.9310,9.9543
4.9500,10.0500
4.9500,12.0500
4.9310,12.1457
4.8768,12.2268
4.7957,12.2810
4.7000,12.3000
Z" /> 
<path style="fill:#00C2C2; fill-opacity:0.9000; stroke:none;fill-rule:evenodd;"
d="M 3.4000,8.3000
3.3043,8.2810
3.2232,8.2268
3.1690,8.1457
3.1500,8.0500
3.1500,6.0500
3.1690,5.9543
3.2232,5.8732
3.3043,5.8190
3.4000,5.8000
4.7000,5.8000
4.7957,5.8190
4.8768,5.8732
4.9310,5.9543
4.9500,6.0500
4.9500,8.0500
4.9310,8.1457
4.8768,8.2268
4.7957,8.2810
4.7000,8.3000
Z" /> 
<path style="fill:#00C2C2; fill-opacity:0.9000; stroke:none;fill-rule:evenodd;"
d="M 8.7500,10.0000
8.6543,9.9810
8.5732,9.9268
8.5190,9.8457
8.5000,9.7500
8.5000,9.1500
8.5190,9.0543
8.5732,8.9732
8.6543,8.9190
8.7500,8.9000
9.3500,8.9000
9.4457,8.9190
9.5268,8.9732
9.5810,9.0543
9.6000,9.1500
9.6000,9.7500
9.5810,9.8457
9.5268,9.9268
9.4457,9.9810
9.3500,10.0000
Z" /> 
<path style="fill:#00C2C2; fill-opacity:0.9000; stroke:none;fill-rule:evenodd;"
d="M 8.7500,7.2000
8.6543,7.1810
8.5732,7.1268
8.5190,7.0457
8.5000,6.9500
8.5000,6.3500
8.5190,6.2543
8.5732,6.1732
8.6543,6.1190
8.7500,6.1000
9.3500,6.1000
9.4457,6.1190
9.5268,6.1732
9.5810,6.2543
9.6000,6.3500
9.6000,6.9500
9.5810,7.0457
9.5268,7.1268
9.4457,7.1810
9.3500,7.2000
Z" /> 
</g>
<g style="fill:none; 
stroke:#E8B2A7; stroke-width:0.1200; stroke-opacity:1; 
stroke-linecap:round; stroke-linejoin:round;">
<g transform="rotate(-90.000000 4.0500 9.0500)">
<text x="4.0500" y="9.4000"
transform="scale(-1 1) translate(-8.100000 0)"
textLength="1.5867" font-size="0.9333" lengthAdjust="spacingAndGlyphs"
text-anchor="middle" opacity="0" stroke-opacity="0">D1</text>
</g>
<g class="stroked-text"><desc>D1</desc>
<path d="M4.3676 8.5333
L3.6676 8.5333
" />
<path d="M3.6676 8.5333
L3.6676 8.7000
" />
<path d="M3.6676 8.7000
L3.7009 8.8000
" />
<path d="M3.7009 8.8000
L3.7676 8.8667
" />
<path d="M3.7676 8.8667
L3.8343 8.9000
" />
<path d="M3.8343 8.9000
L3.9676 8.9333
" />
<path d="M3.9676 8.9333
L4.0676 8.9333
" />
<path d="M4.0676 8.9333
L4.2009 8.9000
" />
<path d="M4.2009 8.9000
L4.2676 8.8667
" />
<path d="M4.2676 8.8667
L4.3343 8.8000
" />
<path d="M4.3343 8.8000
L4.3676 8.7000
" />
<path d="M4.3676 8.7000
L4.3676 8.5333
" />
<path d="M4.3676 9.6000
L4.3676 9.2000
" />
<path d="M4.3676 9.4000
L3.6676 9.4000
" />
<path d="M3.6676 9.4000
L3.7676 9.3333
" />
<path d="M3.7676 9.3333
L3.8343 9.2667
" />
<path d="M3.8343 9.2667
L3.8676 9.2000
" />
</g><g transform="rotate(-90.000000 7.0500 9.0500)">
<text x="7.0500" y="9.4000"
transform="scale(-1 1) translate(-14.100000 0)"
textLength="5.4533" font-size="0.9333" lengthAdjust="spacingAndGlyphs"
text-anchor="middle" opacity="0" stroke-opacity="0">SMAJ18CA</text>
</g>
<g class="stroked-text"><desc>SMAJ18CA</desc>
<path d="M7.3343 6.5667
L7.3676 6.6667
" />
<path d="M7.3676 6.6667
L7.3676 6.8333
" />
<path d="M7.3676 6.8333
L7.3343 6.9000
" />
<path d="M7.3343 6.9000
L7.3009 6.9333
" />
<path d="M7.3009 6.9333
L7.2343 6.9667
" />
<path d="M7.2343 6.9667
L7.1676 6.9667
" />
<path d="M7.1676 6.9667
L7.1009 6.9333
" />
<path d="M7.1009 6.9333
L7.0676 6.9000
" />
<path d="M7.0676 6.9000
L7.0343 6.8333
" />
<path d="M7.0343 6.8333
L7.0009 6.7000
" />
<path d="M7.0009 6.7000
L6.9676 6.6333
" />
<path d="M6.9676 6.6333
L6.9343 6.6000
" />
<path d="M6.9343 6.6000
L6.8676 6.5667
" />
<path d="M6.8676 6.5667
L6.8009 6.5667
" />
<path d="M6.8009 6.5667
L6.7343 6.6000
" />
<path d="M6.7343 6.6000
L6.7009 6.6333
" />
<path d="M6.7009 6.6333
L6.6676 6.7000
" />
<path d="M6.6676 6.7000
L6.6676 6.8667
" />
<path d="M6.6676 6.8667
L6.7009 6.9667
" />
<path d="M7.3676 7.2667
L6.6676 7.2667
" />
<path d="M6.6676 7.2667
L7.1676 7.5000
" />
<path d="M7.1676 7.5000
L6.6676 7.7333
" />
<path d="M6.6676 7.7333
L7.3676 7.7333
" />
<path d="M7.1676 8.0333
L7.1676 8.3667
" />
<path d="M7.3676 7.9667
L6.6676 8.2000
" />
<path d="M6.6676 8.2000
L7.3676 8.4333
" />
<path d="M6.6676 8.8667
L7.1676 8.8667
" />
<path d="M7.1676 8.8667
L7.2676 8.8333
" />
<path d="M7.2676 8.8333
L7.3343 8.7667
" />
<path d="M7.3343 8.7667
L7.3676 8.6667
" />
<path d="M7.3676 8.6667
L7.3676 8.6000
" />
<path d="M7.3676 9.5667
L7.3676 9.1667
" />
<path d="M7.3676 9.3667
L6.6676 9.3667
" />
<path d="M6.6676 9.3667
L6.7676 9.3000
" />
<path d="M6.7676 9.3000
L6.8343 9.2333
" />
<path d="M6.8343 9.2333
L6.8676 9.1667
" />
<path d="M6.9676 9.9667
L6.9343 9.9000
" />
<path d="M6.9343 9.9000
L6.9009 9.8667
" />
<path d="M6.9009 9.8667
L6.8343 9.8333
" />
<path d="M6.8343 9.8333
L6.8009 9.8333
" />
<path d="M6.8009 9.8333
L6.7343 9.8667
" />
<path d="M6.7343 9.8667
L6.7009 9.9000
" />
<path d="M6.7009 9.9000
L6.6676 9.9667
" />
<path d="M6.6676 9.9667
L6.6676 10.1000
" />
<path d="M6.6676 10.1000
L6.7009 10.1667
" />
<path d="M6.7009 10.1667
L6.7343 10.2000
" />
<path d="M6.7343 10.2000
L6.8009 10.2333
" />
<path d="M6.8009 10.2333
L6.8343 10.2333
" />
<path d="M6.8343 10.2333
L6.9009 10.2000
" />
<path d="M6.9009 10.2000
L6.9343 10.1667
" />
<path d="M6.9343 10.1667
L6.9676 10.1000
" />
<path d="M6.9676 10.1000
L6.9676 9.9667
" />
<path d="M6.9676 9.9667
L7.0009 9.9000
" />
<path d="M7.0009 9.9000
L7.0343 9.8667
" />
<path d="M7.0343 9.8667
L7.1009 9.8333
" />
<path d="M7.1009 9.8333
L7.2343 9.8333
" />
<path d="M7.2343 9.8333
L7.3009 9.8667
" />
<path d="M7.3009 9.8667
L7.3343 9.9000
" />
<path d="M7.3343 9.9000
L7.3676 9.9667
" />
<path d="M7.3676 9.9667
L7.3676 10.1000
" />
<path d="M7.3676 10.1000
L7.3343 10.1667
" />
<path d="M7.3343 10.1667
L7.3009 10.2000
" />
<path d="M7.3009 10.2000
L7.2343 10.2333
" />
<path d="M7.2343 10.2333
L7.1009 10.2333
" />
<path d="M7.1009 10.2333
L7.0343 10.2000
" />
<path d="M7.0343 10.2000
L7.0009 10.1667
" />
<path d="M7.0009 10.1667
L6.9676 10.1000
" />
<path d="M7.3009 10.9333
L7.3343 10.9000
" />
<path d="M7.3343 10.9000
L7.3676 10.8000
" />
<path d="M7.3676 10.8000
L7.3676 10.7333
" />
<path d="M7.3676 10.7333
L7.3343 10.6333
" />
<path d="M7.3343 10.6333
L7.2676 10.5667
" />
<path d="M7.2676 10.5667
L7.2009 10.5333
" />
<path d="M7.2009 10.5333
L7.0676 10.5000
" />
<path d="M7.0676 10.5000
L6.9676 10.5000
" />
<path d="M6.9676 10.5000
L6.8343 10.5333
" />
<path d="M6.8343 10.5333
L6.7676 10.5667
" />
<path d="M6.7676 10.5667
L6.7009 10.6333
" />
<path d="M6.7009 10.6333
L6.6676 10.7333
" />
<path d="M6.6676 10.7333
L6.6676 10.8000
" />
<path d="M6.6676 10.8000
L6.7009 10.9000
" />
<path d="M6.7009 10.9000
L6.7343 10.9333
" />
<path d="M7.1676 11.2000
L7.1676 11.5333
" />
<path d="M7.3676 11.1333
L6.6676 11.3667
" />
<path d="M6.6676 11.3667
L7.3676 11.6000
" />
</g><g transform="rotate(-90.000000 9.0500 8.0500)">
<text x="9.0500" y="8.4000"
transform="scale(-1 1) translate(-18.100000 0)"
textLength="1.5867" font-size="0.9333" lengthAdjust="spacingAndGlyphs"
text-anchor="middle" opacity="0" stroke-opacity="0">D2</text>
</g>
<g class="stroked-text"><desc>D2</desc>
<path d="M9.3676 7.5333
L8.6676 7.5333
" />
<path d="M8.6676 7.5333
L8.6676 7.7000
" />
<path d="M8.6676 7.7000
L8.7009 7.8000
" />
<path d="M8.7009 7.8000
L8.7676 7.8667
" />
<path d="M8.7676 7.8667
L8.8343 7.9000
" />
<path d="M8.8343 7.9000
L8.9676 7.9333
" />
<path d="M8.9676 7.9333
L9.0676 7.9333
" />
<path d="M9.0676 7.9333
L9.2009 7.9000
" />
<path d="M9.2009 7.9000
L9.2676 7.8667
" />
<path d="M9.2676 7.8667
L9.3343 7.8000
" />
<path d="M9.3343 7.8000
L9.3676 7.7000
" />
<path d="M9.3676 7.7000
L9.3676 7.5333
" />
<path d="M8.7343 8.2000
L8.7009 8.2333
" />
<path d="M8.7009 8.2333
L8.6676 8.3000
" />
<path d="M8.6676 8.3000
L8.6676 8.4667
" />
<path d="M8.6676 8.4667
L8.7009 8.5333
" />
<path d="M8.7009 8.5333
L8.7343 8.5667
" />
<path d="M8.7343 8.5667
L8.8009 8.6000
" />
<path d="M8.8009 8.6000
L8.8676 8.6000
" />
<path d="M8.8676 8.6000
L8.9676 8.5667
" />
<path d="M8.9676 8.5667
L9.3676 8.1667
" />
<path d="M9.3676 8.1667
L9.3676 8.6000
" />
</g><g transform="rotate(-90.000000 11.0500 8.0500)">
<text x="11.0500" y="8.4000"
transform="scale(-1 1) translate(-22.100000 0)"
textLength="5.2533" font-size="0.9333" lengthAdjust="spacingAndGlyphs"
text-anchor="middle" opacity="0" stroke-opacity="0">SMF3.3CA</text>
</g>
<g class="stroked-text"><desc>SMF3.3CA</desc>
<path d="M11.3343 5.6667
L11.3676 5.7667
" />
<path d="M11.3676 5.7667
L11.3676 5.9333
" />
<path d="M11.3676 5.9333
L11.3343 6.0000
" />
<path d="M11.3343 6.0000
L11.3009 6.0333
" />
<path d="M11.3009 6.0333
L11.2343 6.0667
" />
<path d="M11.2343 6.0667
L11.1676 6.0667
" />
<path d="M11.1676 6.0667
L11.1009 6.0333
" />
<path d="M11.1009 6.0333
L11.0676 6.0000
" />
<path d="M11.0676 6.0000
L11.0343 5.9333
" />
<path d="M11.0343 5.9333
L11.0009 5.8000
" />
<path d="M11.0009 5.8000
L10.9676 5.7333
" />
<path d="M10.9676 5.7333
L10.9343 5.7000
" />
<path d="M10.9343 5.7000
L10.8676 5.6667
" />
<path d="M10.8676 5.6667
L10.8009 5.6667
" />
<path d="M10.8009 5.6667
L10.7343 5.7000
" />
<path d="M10.7343 5.7000
L10.7009 5.7333
" />
<path d="M10.7009 5.7333
L10.6676 5.8000
" />
<path d="M10.6676 5.8000
L10.6676 5.9667
" />
<path d="M10.6676 5.9667
L10.7009 6.0667
" />
<path d="M11.3676 6.3667
L10.6676 6.3667
" />
<path d="M10.6676 6.3667
L11.1676 6.6000
" />
<path d="M11.1676 6.6000
L10.6676 6.8333
" />
<path d="M10.6676 6.8333
L11.3676 6.8333
" />
<path d="M11.0009 7.4000
L11.0009 7.1667
" />
<path d="M11.3676 7.1667
L10.6676 7.1667
" />
<path d="M10.6676 7.1667
L10.6676 7.5000
" />
<path d="M10.6676 7.7000
L10.6676 8.1333
" />
<path d="M10.6676 8.1333
L10.9343 7.9000
" />
<path d="M10.9343 7.9000
L10.9343 8.0000
" />
<path d="M10.9343 8.0000
L10.9676 8.0667
" />
<path d="M10.9676 8.0667
L11.0009 8.1000
" />
<path d="M11.0009 8.1000
L11.0676 8.1333
" />
<path d="M11.0676 8.1333
L11.2343 8.1333
" />
<path d="M11.2343 8.1333
L11.3009 8.1000
" />
<path d="M11.3009 8.1000
L11.3343 8.0667
" />
<path d="M11.3343 8.0667
L11.3676 8.0000
" />
<path d="M11.3676 8.0000
L11.3676 7.8000
" />
<path d="M11.3676 7.8000
L11.3343 7.7333
" />
<path d="M11.3343 7.7333
L11.3009 7.7000
" />
<path d="M11.3009 8.4333
L11.3343 8.4667
" />
<path d="M11.3343 8.4667
L11.3676 8.4333
" />
<path d="M11.3676 8.4333
L11.3343 8.4000
" />
<path d="M11.3343 8.4000
L11.3009 8.4333
" />
<path d="M11.3009 8.4333
L11.3676 8.4333
" />
<path d="M10.6676 8.7000
L10.6676 9.1333
" />
<path d="M10.6676 9.1333
L10.9343 8.9000
" />
<path d="M10.9343 8.9000
L10.9343 9.0000
" />
<path d="M10.9343 9.0000
L10.9676 9.0667
" />
<path d="M10.9676 9.0667
L11.0009 9.1000
" />
<path d="M11.0009 9.1000
L11.0676 9.1333
" />
<path d="M11.0676 9.1333
L11.2343 9.1333
" />
<path d="M11.2343 9.1333
L11.3009 9.1000
" />
<path d="M11.3009 9.1000
L11.3343 9.0667
" />
<path d="M11.3343 9.0667
L11.3676 9.0000
" />
<path d="M11.3676 9.0000
L11.3676 8.8000
" />
<path d="M11.3676 8.8000
L11.3343 8.7333
" />
<path d="M11.3343 8.7333
L11.3009 8.7000
" />
<path d="M11.3009 9.8333
L11.3343 9.8000
" />
<path d="M11.3343 9.8000
L11.3676 9.7000
" />
<path d="M11.3676 9.7000
L11.3676 9.6333
" />
<path d="M11.3676 9.6333
L11.3343 9.5333
" />
<path d="M11.3343 9.5333
L11.2676 9.4667
" />
<path d="M11.2676 9.4667
L11.2009 9.4333
" />
<path d="M11.2009 9.4333
L11.0676 9.4000
" />
<path d="M11.0676 9.4000
L10.9676 9.4000
" />
<path d="M10.9676 9.4000
L10.8343 9.4333
" />
<path d="M10.8343 9.4333
L10.7676 9.4667
" />
<path d="M10.7676 9.4667
L10.7009 9.5333
" />
<path d="M10.7009 9.5333
L10.6676 9.6333
" />
<path d="M10.6676 9.6333
L10.6676 9.7000
" />
<path d="M10.6676 9.7000
L10.7009 9.8000
" />
<path d="M10.7009 9.8000
L10.7343 9.8333
" />
<path d="M11.1676 10.1000
L11.1676 10.4333
" />
<path d="M11.3676 10.0333
L10.6676 10.2667
" />
<path d="M10.6676 10.2667
L11.3676 10.5000
" />
</g><path d="M2.2500 5.4500
L5.8500 5.4500
" />
<path d="M2.2500 12.6500
L2.2500 5.4500
" />
<path d="M5.8500 5.4500
L5.8500 12.6500
" />
<path d="M5.8500 12.6500
L2.2500 12.6500
" />
<path d="M2.6400 4.8800
L2.6400 2.2200
" />
<path d="M7.7800 2.2200
L2.6400 2.2200
" />
<path d="M7.7800 4.8800
L2.6400 4.8800
" />
<path d="M7.7800 4.8800
L7.7800 2.2200
" />
<path d="M9.0500 4.8800
L10.3800 4.8800
" />
<path d="M10.3800 4.8800
L10.3800 3.5500
" />
<path d="M7.8500 5.7500
L10.2500 5.7500
" />
<path d="M7.8500 10.3500
L7.8500 5.7500
" />
<path d="M10.2500 5.7500
L10.2500 10.3500
" />
<path d="M10.2500 10.3500
L7.8500 10.3500
" />
<path style="fill:#E8B2A7; fill-opacity:1.0000; 
stroke:#E8B2A7; stroke-width:0.1000; stroke-opacity:1; 
stroke-linecap:round; stroke-linejoin:round;fill-rule:evenodd;"
d="M 7.8500,9.4500
7.5500,9.4500
7.5500,8.6500
7.8500,8.6500
Z" /> 
<path style="fill:#E8B2A7; fill-opacity:1.0000; 
stroke:#E8B2A7; stroke-width:0.1000; stroke-opacity:1; 
stroke-linecap:round; stroke-linejoin:round;fill-rule:evenodd;"
d="M 10.5500,9.4500
10.2500,9.4500
10.2500,8.6500
10.5500,8.6500
Z" /> 
<path style="fill:#C83434; fill-opacity:1.0000; stroke:none;fill-rule:evenodd;"
d="M 5.2500,12.9500
5.2614,12.8926
5.2939,12.8439
5.3426,12.8114
5.4000,12.8000
6.4250,12.8000
6.4824,12.8114
6.5311,12.8439
6.5636,12.8926
6.5750,12.9500
6.5750,13.2500
6.5636,13.3074
6.5311,13.3561
6.4824,13.3886
6.4250,13.4000
5.4000,13.4000
5.3426,13.3886
5.2939,13.3561
5.2614,13.3074
5.2500,13.2500
Z" /> 
<path style="fill:#C83434; fill-opacity:1.0000; stroke:none;fill-rule:evenodd;"
d="M 5.2500,13.9000
5.2614,13.8426
5.2939,13.7939
5.3426,13.7614
5.4000,13.7500
6.4250,13.7500
6.4824,13.7614
6.5311,13.7939
6.5636,13.8426
6.5750,13.9000
6.5750,14.2000
6.5636,14.2574
6.5311,14.3061
6.4824,14.3386
6.4250,14.3500
5.4000,14.3500
5.3426,14.3386
5.2939,14.3061
5.2614,14.2574
5.2500,14.2000
Z" /> 
<path style="fill:#C83434; fill-opacity:1.0000; stroke:none;fill-rule:evenodd;"
d="M 5.2500,14.8500
5.2614,14.7926
5.2939,14.7439
5.3426,14.7114
5.4000,14.7000
6.4250,14.7000
6.4824,14.7114
6.5311,14.7439
6.5636,14.7926
6.5750,14.8500
6.5750,15.1500
6.5636,15.2074
6.5311,15.2561
6.4824,15.2886
6.4250,15.3000
5.4000,15.3000
5.3426,15.2886
5.2939,15.2561
5.2614,15.2074
5.2500,15.1500
Z" /> 
<path style="fill:#C83434; fill-opacity:1.0000; stroke:none;fill-rule:evenodd;"
d="M 7.5250,14.8500
7.5364,14.7926
7.5689,14.7439
7.6176,14.7114
7.6750,14.7000
8.7000,14.7000
8.7574,14.7114
8.8061,14.7439
8.8386,14.7926
8.8500,14.8500
8.8500,15.1500
8.8386,15.2074
8.8061,15.2561
8.7574,15.2886
8.7000,15.3000
7.6750,15.3000
7.6176,15.2886
7.5689,15.2561
7.5364,15.2074
7.5250,15.1500
Z" /> 
<path style="fill:#C83434; fill-opacity:1.0000; stroke:none;fill-rule:evenodd;"
d="M 7.5250,12.9500
7.5364,12.8926
7.5689,12.8439
7.6176,12.8114
7.6750,12.8000
8.7000,12.8000
8.7574,12.8114
8.8061,12.8439
8.8386,12.8926
8.8500,12.9500
8.8500,13.2500
8.8386,13.3074
8.8061,13.3561
8.7574,13.3886
8.7000,13.4000
7.6750,13.4000
7.6176,13.3886
7.5689,13.3561
7.5364,13.3074
7.5250,13.2500
Z" /> 
<path style="fill:#C83434; fill-opacity:1.0000; stroke:none;fill-rule:evenodd;"
d="M 2.0000,6.4000
2.0190,6.3043
2.0732,6.2232
2.1543,6.1690
2.2500,6.1500
2.9000,6.1500
2.9957,6.1690
3.0768,6.2232
3.1310,6.3043
3.1500,6.4000
3.1500,7.7000
3.1310,7.7957
3.0768,7.8768
2.9957,7.9310
2.9000,7.9500
2.2500,7.9500
2.1543,7.9310
2.0732,7.8768
2.0190,7.7957
2.0000,7.7000
Z" /> 
<path style="fill:#C83434; fill-opacity:1.0000; stroke:none;fill-rule:evenodd;"
d="M 4.9500,6.4000
4.9690,6.3043
5.0232,6.2232
5.1043,6.1690
5.2000,6.1500
5.8500,6.1500
5.9457,6.1690
6.0268,6.2232
6.0810,6.3043
6.1000,6.4000
6.1000,7.7000
6.0810,7.7957
6.0268,7.8768
5.9457,7.9310
5.8500,7.9500
5.2000,7.9500
5.1043,7.9310
5.0232,7.8768
4.9690,7.7957
4.9500,7.7000
Z" /> 
<path style="fill:#C83434; fill-opacity:1.0000; stroke:none;fill-rule:evenodd;"
d="M 12.1000,7.7000
12.0810,7.7957
12.0268,7.8768
11.9457,7.9310
11.8500,7.9500
11.2000,7.9500
11.1043,7.9310
11.0232,7.8768
10.9690,7.7957
10.9500,7.7000
10.9500,6.4000
10.9690,6.3043
11.0232,6.2232
11.1043,6.1690
11.2000,6.1500
11.8500,6.1500
11.9457,6.1690
12.0268,6.2232
12.0810,6.3043
12.1000,6.4000
Z" /> 
<path style="fill:#C83434; fill-opacity:1.0000; stroke:none;fill-rule:evenodd;"
d="M 9.1500,7.7000
9.1310,7.7957
9.0768,7.8768
8.9957,7.9310
8.9000,7.9500
8.2500,7.9500
8.1543,7.9310
8.0732,7.8768
8.0190,7.7957
8.0000,7.7000
8.0000,6.4000
8.0190,6.3043
8.0732,6.2232
8.1543,6.1690
8.2500,6.1500
8.9000,6.1500
8.9957,6.1690
9.0768,6.2232
9.1310,6.3043
9.1500,6.4000
Z" /> 
<path style="fill:#C83434; fill-opacity:1.0000; stroke:none;fill-rule:evenodd;"
d="M 2.0000,9.4000
2.0190,9.3043
2.0732,9.2232
2.1543,9.1690
2.2500,9.1500
2.9000,9.1500
2.9957,9.1690
3.0768,9.2232
3.1310,9.3043
3.1500,9.4000
3.1500,10.7000
3.1310,10.7957
3.0768,10.8768
2.9957,10.9310
2.9000,10.9500
2.2500,10.9500
2.1543,10.9310
2.0732,10.8768
2.0190,10.7957
2.0000,10.7000
Z" /> 
<path style="fill:#C83434; fill-opacity:1.0000; stroke:none;fill-rule:evenodd;"
d="M 4.9500,9.4000
4.9690,9.3043
5.0232,9.2232
5.1043,9.1690
5.2000,9.1500
5.8500,9.1500
5.9457,9.1690
6.0268,9.2232
6.0810,9.3043
6.1000,9.4000
6.1000,10.7000
6.0810,10.7957
6.0268,10.8768
5.9457,10.9310
5.8500,10.9500
5.2000,10.9500
5.1043,10.9310
5.0232,10.8768
4.9690,10.7957
4.9500,10.7000
Z" /> 
<path style="fill:#C83434; fill-opacity:1.0000; stroke:none;fill-rule:evenodd;"
d="M 12.1000,10.7000
12.0810,10.7957
12.0268,10.8768
11.9457,10.9310
11.8500,10.9500
11.2000,10.9500
11.1043,10.9310
11.0232,10.8768
10.9690,10.7957
10.9500,10.7000
10.9500,9.4000
10.9690,9.3043
11.0232,9.2232
11.1043,9.1690
11.2000,9.1500
11.8500,9.1500
11.9457,9.1690
12.0268,9.2232
12.0810,9.3043
12.1000,9.4000
Z" /> 
<path style="fill:#C83434; fill-opacity:1.0000; stroke:none;fill-rule:evenodd;"
d="M 9.1500,10.7000
9.1310,10.7957
9.0768,10.8768
8.9957,10.9310
8.9000,10.9500
8.2500,10.9500
8.1543,10.9310
8.0732,10.8768
8.0190,10.7957
8.0000,10.7000
8.0000,9.4000
8.0190,9.3043
8.0732,9.2232
8.1543,9.1690
8.2500,9.1500
8.9000,9.1500
8.9957,9.1690
9.0768,9.2232
9.1310,9.3043
9.1500,9.4000
Z" /> 
<path style="fill:#C83434; fill-opacity:1.0000; stroke:none;fill-rule:evenodd;"
d="M 9.9000,4.4000
8.2000,4.4000
8.2000,2.7000
9.9000,2.7000
Z" /> 
</g>
<g style="fill:#C83434; fill-opacity:1.0000; stroke:none;">
<circle cx="6.5100" cy="3.5500" r="0.8500" /> 
<circle cx="3.9700" cy="3.5500" r="0.8500" /> 
</g>
<g style="fill:none; 
stroke:#C83434; stroke-width:1.0000; stroke-opacity:1; 
stroke-linecap:round; stroke-linejoin:round;">
<path d="M4.4100 14.0500
L2.5750 12.2150
" />
<path d="M2.5750 12.2150
L2.5750 10.0500
" />
</g>
<g style="fill:none; 
stroke:#C83434; stroke-width:0.5000; stroke-opacity:1; 
stroke-linecap:round; stroke-linejoin:round;">
<path d="M5.9125 14.0500
L4.4100 14.0500
" />
<path d="M5.9125 15.0000
L6.9625 16.0500
" />
<path d="M5.9125 10.4375
L5.5250 10.0500
" />
<path d="M5.9125 13.1000
L5.9125 10.4375
" />
</g>
<g style="fill:none; 
stroke:#C83434; stroke-width:1.5000; stroke-opacity:1; 
stroke-linecap:round; stroke-linejoin:round;">
<path d="M8.5750 10.0500
L8.5750 7.0500
" />
<path d="M5.5250 10.0500
L5.5250 7.0500
" />
<path d="M5.5250 4.5350
L6.5100 3.5500
" />
<path d="M5.5250 7.0500
L5.5250 4.5350
" />
<path d="M8.5750 10.0500
L5.5250 10.0500
" />
<path d="M6.5100 4.9850
L8.5750 7.0500
" />
<path d="M6.5100 3.5500
L6.5100 4.9850
" />
<path d="M11.5250 7.0500
L11.5250 6.0250
" />
<path d="M11.5250 10.0500
L11.5250 7.0500
" />
<path d="M11.5250 6.0250
L9.0500 3.5500
" />
<path d="M2.5750 7.0500
L2.5750 4.9450
" />
<path d="M2.5750 10.0500
L2.5750 7.0500
" />
<path d="M2.5750 4.9450
L3.9700 3.5500
" />
</g>
<g style="fill:none; 
stroke:#C83434; stroke-width:0.8000; stroke-opacity:1; 
stroke-linecap:round; stroke-linejoin:round;">
<path d="M11.5250 10.0500
L11.5250 14.5750
" />
<path d="M11.5250 14.5750
L10.0500 16.0500
" />
<path d="M6.9625 16.0500
L10.0500 16.0500
" />
<path style="fill:#D864FF; fill-opacity:0.4000; stroke:none;fill-rule:evenodd;"
d="M 5.2500,12.9500
5.2614,12.8926
5.2939,12.8439
5.3426,12.8114
5.4000,12.8000
6.4250,12.8000
6.4824,12.8114
6.5311,12.8439
6.5636,12.8926
6.5750,12.9500
6.5750,13.2500
6.5636,13.3074
6.5311,13.3561
6.4824,13.3886
6.4250,13.4000
5.4000,13.4000
5.3426,13.3886
5.2939,13.3561
5.2614,13.3074
5.2500,13.2500
Z" /> 
<path style="fill:#D864FF; fill-opacity:0.4000; stroke:none;fill-rule:evenodd;"
d="M 5.2500,13.9000
5.2614,13.8426
5.2939,13.7939
5.3426,13.7614
5.4000,13.7500
6.4250,13.7500
6.4824,13.7614
6.5311,13.7939
6.5636,13.8426
6.5750,13.9000
6.5750,14.2000
6.5636,14.2574
6.5311,14.3061
6.4824,14.3386
6.4250,14.3500
5.4000,14.3500
5.3426,14.3386
5.2939,14.3061
5.2614,14.2574
5.2500,14.2000
Z" /> 
<path style="fill:#D864FF; fill-opacity:0.4000; stroke:none;fill-rule:evenodd;"
d="M 5.2500,14.8500
5.2614,14.7926
5.2939,14.7439
5.3426,14.7114
5.4000,14.7000
6.4250,14.7000
6.4824,14.7114
6.5311,14.7439
6.5636,14.7926
6.5750,14.8500
6.5750,15.1500
6.5636,15.2074
6.5311,15.2561
6.4824,15.2886
6.4250,15.3000
5.4000,15.3000
5.3426,15.2886
5.2939,15.2561
5.2614,15.2074
5.2500,15.1500
Z" /> 
<path style="fill:#D864FF; fill-opacity:0.4000; stroke:none;fill-rule:evenodd;"
d="M 7.5250,14.8500
7.5364,14.7926
7.5689,14.7439
7.6176,14.7114
7.6750,14.7000
8.7000,14.7000
8.7574,14.7114
8.8061,14.7439
8.8386,14.7926
8.8500,14.8500
8.8500,15.1500
8.8386,15.2074
8.8061,15.2561
8.7574,15.2886
8.7000,15.3000
7.6750,15.3000
7.6176,15.2886
7.5689,15.2561
7.5364,15.2074
7.5250,15.1500
Z" /> 
<path style="fill:#D864FF; fill-opacity:0.4000; stroke:none;fill-rule:evenodd;"
d="M 7.5250,12.9500
7.5364,12.8926
7.5689,12.8439
7.6176,12.8114
7.6750,12.8000
8.7000,12.8000
8.7574,12.8114
8.8061,12.8439
8.8386,12.8926
8.8500,12.9500
8.8500,13.2500
8.8386,13.3074
8.8061,13.3561
8.7574,13.3886
8.7000,13.4000
7.6750,13.4000
7.6176,13.3886
7.5689,13.3561
7.5364,13.3074
7.5250,13.2500
Z" /> 
<path style="fill:#D864FF; fill-opacity:0.4000; stroke:none;fill-rule:evenodd;"
d="M 2.0000,6.4000
2.0190,6.3043
2.0732,6.2232
2.1543,6.1690
2.2500,6.1500
2.9000,6.1500
2.9957,6.1690
3.0768,6.2232
3.1310,6.3043
3.1500,6.4000
3.1500,7.7000
3.1310,7.7957
3.0768,7.8768
2.9957,7.9310
2.9000,7.9500
2.2500,7.9500
2.1543,7.9310
2.0732,7.8768
2.0190,7.7957
2.0000,7.7000
Z" /> 
<path style="fill:#D864FF; fill-opacity:0.4000; stroke:none;fill-rule:evenodd;"
d="M 4.9500,6.4000
4.9690,6.3043
5.0232,6.2232
5.1043,6.1690
5.2000,6.1500
5.8500,6.1500
5.9457,6.1690
6.0268,6.2232
6.0810,6.3043
6.1000,6.4000
6.1000,7.7000
6.0810,7.7957
6.0268,7.8768
5.9457,7.9310
5.8500,7.9500
5.2000,7.9500
5.1043,7.9310
5.0232,7.8768
4.9690,7.7957
4.9500,7.7000
Z" /> 
<path style="fill:#D864FF; fill-opacity:0.4000; stroke:none;fill-rule:evenodd;"
d="M 12.1000,7.7000
12.0810,7.7957
12.0268,7.8768
11.9457,7.9310
11.8500,7.9500
11.2000,7.9500
11.1043,7.9310
11.0232,7.8768
10.9690,7.7957
10.9500,7.7000
10.9500,6.4000
10.9690,6.3043
11.0232,6.2232
11.1043,6.1690
11.2000,6.1500
11.8500,6.1500
11.9457,6.1690
12.0268,6.2232
12.0810,6.3043
12.1000,6.4000
Z" /> 
<path style="fill:#D864FF; fill-opacity:0.4000; stroke:none;fill-rule:evenodd;"
d="M 9.1500,7.7000
9.1310,7.7957
9.0768,7.8768
8.9957,7.9310
8.9000,7.9500
8.2500,7.9500
8.1543,7.9310
8.0732,7.8768
8.0190,7.7957
8.0000,7.7000
8.0000,6.4000
8.0190,6.3043
8.0732,6.2232
8.1543,6.1690
8.2500,6.1500
8.9000,6.1500
8.9957,6.1690
9.0768,6.2232
9.1310,6.3043
9.1500,6.4000
Z" /> 
<path style="fill:#D864FF; fill-opacity:0.4000; stroke:none;fill-rule:evenodd;"
d="M 2.0000,9.4000
2.0190,9.3043
2.0732,9.2232
2.1543,9.1690
2.2500,9.1500
2.9000,9.1500
2.9957,9.1690
3.0768,9.2232
3.1310,9.3043
3.1500,9.4000
3.1500,10.7000
3.1310,10.7957
3.0768,10.8768
2.9957,10.9310
2.9000,10.9500
2.2500,10.9500
2.1543,10.9310
2.0732,10.8768
2.0190,10.7957
2.0000,10.7000
Z" /> 
<path style="fill:#D864FF; fill-opacity:0.4000; stroke:none;fill-rule:evenodd;"
d="M 4.9500,9.4000
4.9690,9.3043
5.0232,9.2232
5.1043,9.1690
5.2000,9.1500
5.8500,9.1500
5.9457,9.1690
6.0268,9.2232
6.0810,9.3043
6.1000,9.4000
6.1000,10.7000
6.0810,10.7957
6.0268,10.8768
5.9457,10.9310
5.8500,10.9500
5.2000,10.9500
5.1043,10.9310
5.0232,10.8768
4.9690,10.7957
4.9500,10.7000
Z" /> 
<path style="fill:#D864FF; fill-opacity:0.4000; stroke:none;fill-rule:evenodd;"
d="M 12.1000,10.7000
12.0810,10.7957
12.0268,10.8768
11.9457,10.9310
11.8500,10.9500
11.2000,10.9500
11.1043,10.9310
11.0232,10.8768
10.9690,10.7957
10.9500,10.7000
10.9500,9.4000
10.9690,9.3043
11.0232,9.2232
11.1043,9.1690
11.2000,9.1500
11.8500,9.1500
11.9457,9.1690
12.0268,9.2232
12.0810,9.3043
12.1000,9.4000
Z" /> 
<path style="fill:#D864FF; fill-opacity:0.4000; stroke:none;fill-rule:evenodd;"
d="M 9.1500,10.7000
9.1310,10.7957
9.0768,10.8768
8.9957,10.9310
8.9000,10.9500
8.2500,10.9500
8.1543,10.9310
8.0732,10.8768
8.0190,10.7957
8.0000,10.7000
8.0000,9.4000
8.0190,9.3043
8.0732,9.2232
8.1543,9.1690
8.2500,9.1500
8.9000,9.1500
8.9957,9.1690
9.0768,9.2232
9.1310,9.3043
9.1500,9.4000
Z" /> 
<path style="fill:#D864FF; fill-opacity:0.4000; stroke:none;fill-rule:evenodd;"
d="M 9.9000,4.4000
8.2000,4.4000
8.2000,2.7000
9.9000,2.7000
Z" /> 
</g>
<g style="fill:#D864FF; fill-opacity:0.4000; stroke:none;">
<circle cx="6.5100" cy="3.5500" r="0.8500" /> 
<circle cx="3.9700" cy="3.5500" r="0.8500" /> 
<path style="fill:#B4A09A; fill-opacity:0.9000; stroke:none;fill-rule:evenodd;"
d="M 5.2500,12.9500
5.2614,12.8926
5.2939,12.8439
5.3426,12.8114
5.4000,12.8000
6.4250,12.8000
6.4824,12.8114
6.5311,12.8439
6.5636,12.8926
6.5750,12.9500
6.5750,13.2500
6.5636,13.3074
6.5311,13.3561
6.4824,13.3886
6.4250,13.4000
5.4000,13.4000
5.3426,13.3886
5.2939,13.3561
5.2614,13.3074
5.2500,13.2500
Z" /> 
<path style="fill:#B4A09A; fill-opacity:0.9000; stroke:none;fill-rule:evenodd;"
d="M 5.2500,13.9000
5.2614,13.8426
5.2939,13.7939
5.3426,13.7614
5.4000,13.7500
6.4250,13.7500
6.4824,13.7614
6.5311,13.7939
6.5636,13.8426
6.5750,13.9000
6.5750,14.2000
6.5636,14.2574
6.5311,14.3061
6.4824,14.3386
6.4250,14.3500
5.4000,14.3500
5.3426,14.3386
5.2939,14.3061
5.2614,14.2574
5.2500,14.2000
Z" /> 
<path style="fill:#B4A09A; fill-opacity:0.9000; stroke:none;fill-rule:evenodd;"
d="M 5.2500,14.8500
5.2614,14.7926
5.2939,14.7439
5.3426,14.7114
5.4000,14.7000
6.4250,14.7000
6.4824,14.7114
6.5311,14.7439
6.5636,14.7926
6.5750,14.8500
6.5750,15.1500
6.5636,15.2074
6.5311,15.2561
6.4824,15.2886
6.4250,15.3000
5.4000,15.3000
5.3426,15.2886
5.2939,15.2561
5.2614,15.2074
5.2500,15.1500
Z" /> 
<path style="fill:#B4A09A; fill-opacity:0.9000; stroke:none;fill-rule:evenodd;"
d="M 7.5250,14.8500
7.5364,14.7926
7.5689,14.7439
7.6176,14.7114
7.6750,14.7000
8.7000,14.7000
8.7574,14.7114
8.8061,14.7439
8.8386,14.7926
8.8500,14.8500
8.8500,15.1500
8.8386,15.2074
8.8061,15.2561
8.7574,15.2886
8.7000,15.3000
7.6750,15.3000
7.6176,15.2886
7.5689,15.2561
7.5364,15.2074
7.5250,15.1500
Z" /> 
<path style="fill:#B4A09A; fill-opacity:0.9000; stroke:none;fill-rule:evenodd;"
d="M 7.5250,12.9500
7.5364,12.8926
7.5689,12.8439
7.6176,12.8114
7.6750,12.8000
8.7000,12.8000
8.7574,12.8114
8.8061,12.8439
8.8386,12.8926
8.8500,12.9500
8.8500,13.2500
8.8386,13.3074
8.8061,13.3561
8.7574,13.3886
8.7000,13.4000
7.6750,13.4000
7.6176,13.3886
7.5689,13.3561
7.5364,13.3074
7.5250,13.2500
Z" /> 
<path style="fill:#B4A09A; fill-opacity:0.9000; stroke:none;fill-rule:evenodd;"
d="M 2.0000,6.4000
2.0190,6.3043
2.0732,6.2232
2.1543,6.1690
2.2500,6.1500
2.9000,6.1500
2.9957,6.1690
3.0768,6.2232
3.1310,6.3043
3.1500,6.4000
3.1500,7.7000
3.1310,7.7957
3.0768,7.8768
2.9957,7.9310
2.9000,7.9500
2.2500,7.9500
2.1543,7.9310
2.0732,7.8768
2.0190,7.7957
2.0000,7.7000
Z" /> 
<path style="fill:#B4A09A; fill-opacity:0.9000; stroke:none;fill-rule:evenodd;"
d="M 4.9500,6.4000
4.9690,6.3043
5.0232,6.2232
5.1043,6.1690
5.2000,6.1500
5.8500,6.1500
5.9457,6.1690
6.0268,6.2232
6.0810,6.3043
6.1000,6.4000
6.1000,7.7000
6.0810,7.7957
6.0268,7.8768
5.9457,7.9310
5.8500,7.9500
5.2000,7.9500
5.1043,7.9310
5.0232,7.8768
4.9690,7.7957
4.9500,7.7000
Z" /> 
<path style="fill:#B4A09A; fill-opacity:0.9000; stroke:none;fill-rule:evenodd;"
d="M 12.1000,7.7000
12.0810,7.7957
12.0268,7.8768
11.9457,7.9310
11.8500,7.9500
11.2000,7.9500
11.1043,7.9310
11.0232,7.8768
10.9690,7.7957
10.9500,7.7000
10.9500,6.4000
10.9690,6.3043
11.0232,6.2232
11.1043,6.1690
11.2000,6.1500
11.8500,6.1500
11.9457,6.1690
12.0268,6.2232
12.0810,6.3043
12.1000,6.4000
Z" /> 
<path style="fill:#B4A09A; fill-opacity:0.9000; stroke:none;fill-rule:evenodd;"
d="M 9.1500,7.7000
9.1310,7.7957
9.0768,7.8768
8.9957,7.9310
8.9000,7.9500
8.2500,7.9500
8.1543,7.9310
8.0732,7.8768
8.0190,7.7957
8.0000,7.7000
8.0000,6.4000
8.0190,6.3043
8.0732,6.2232
8.1543,6.1690
8.2500,6.1500
8.9000,6.1500
8.9957,6.1690
9.0768,6.2232
9.1310,6.3043
9.1500,6.4000
Z" /> 
<path style="fill:#B4A09A; fill-opacity:0.9000; stroke:none;fill-rule:evenodd;"
d="M 2.0000,9.4000
2.0190,9.3043
2.0732,9.2232
2.1543,9.1690
2.2500,9.1500
2.9000,9.1500
2.9957,9.1690
3.0768,9.2232
3.1310,9.3043
3.1500,9.4000
3.1500,10.7000
3.1310,10.7957
3.0768,10.8768
2.9957,10.9310
2.9000,10.9500
2.2500,10.9500
2.1543,10.9310
2.0732,10.8768
2.0190,10.7957
2.0000,10.7000
Z" /> 
<path style="fill:#B4A09A; fill-opacity:0.9000; stroke:none;fill-rule:evenodd;"
d="M 4.9500,9.4000
4.9690,9.3043
5.0232,9.2232
5.1043,9.1690
5.2000,9.1500
5.8500,9.1500
5.9457,9.1690
6.0268,9.2232
6.0810,9.3043
6.1000,9.4000
6.1000,10.7000
6.0810,10.7957
6.0268,10.8768
5.9457,10.9310
5.8500,10.9500
5.2000,10.9500
5.1043,10.9310
5.0232,10.8768
4.9690,10.7957
4.9500,10.7000
Z" /> 
<path style="fill:#B4A09A; fill-opacity:0.9000; stroke:none;fill-rule:evenodd;"
d="M 12.1000,10.7000
12.0810,10.7957
12.0268,10.8768
11.9457,10.9310
11.8500,10.9500
11.2000,10.9500
11.1043,10.9310
11.0232,10.8768
10.9690,10.7957
10.9500,10.7000
10.9500,9.4000
10.9690,9.3043
11.0232,9.2232
11.1043,9.1690
11.2000,9.1500
11.8500,9.1500
11.9457,9.1690
12.0268,9.2232
12.0810,9.3043
12.1000,9.4000
Z" /> 
<path style="fill:#B4A09A; fill-opacity:0.9000; stroke:none;fill-rule:evenodd;"
d="M 9.1500,10.7000
9.1310,10.7957
9.0768,10.8768
8.9957,10.9310
8.9000,10.9500
8.2500,10.9500
8.1543,10.9310
8.0732,10.8768
8.0190,10.7957
8.0000,10.7000
8.0000,9.4000
8.0190,9.3043
8.0732,9.2232
8.1543,9.1690
8.2500,9.1500
8.9000,9.1500
8.9957,9.1690
9.0768,9.2232
9.1310,9.3043
9.1500,9.4000
Z" /> 
</g>
<g style="fill:none; 
stroke:#F2EDA1; stroke-width:0.1200; stroke-opacity:1; 
stroke-linecap:round; stroke-linejoin:round;">
<text x="5.5900" y="2.0500"
textLength="2.3533" font-size="0.9333" lengthAdjust="spacingAndGlyphs"
text-anchor="start" opacity="0" stroke-opacity="0">GND</text>
<g class="stroked-text"><desc>GND</desc>
<path d="M6.2023 1.2914
L6.1356 1.2581
" />
<path d="M6.1356 1.2581
L6.0356 1.2581
" />
<path d="M6.0356 1.2581
L5.9356 1.2914
" />
<path d="M5.9356 1.2914
L5.8689 1.3581
" />
<path d="M5.8689 1.3581
L5.8356 1.4248
" />
<path d="M5.8356 1.4248
L5.8023 1.5581
" />
<path d="M5.8023 1.5581
L5.8023 1.6581
" />
<path d="M5.8023 1.6581
L5.8356 1.7914
" />
<path d="M5.8356 1.7914
L5.8689 1.8581
" />
<path d="M5.8689 1.8581
L5.9356 1.9248
" />
<path d="M5.9356 1.9248
L6.0356 1.9581
" />
<path d="M6.0356 1.9581
L6.1023 1.9581
" />
<path d="M6.1023 1.9581
L6.2023 1.9248
" />
<path d="M6.2023 1.9248
L6.2356 1.8914
" />
<path d="M6.2356 1.8914
L6.2356 1.6581
" />
<path d="M6.2356 1.6581
L6.1023 1.6581
" />
<path d="M6.5356 1.9581
L6.5356 1.2581
" />
<path d="M6.5356 1.2581
L6.9356 1.9581
" />
<path d="M6.9356 1.9581
L6.9356 1.2581
" />
<path d="M7.2689 1.9581
L7.2689 1.2581
" />
<path d="M7.2689 1.2581
L7.4356 1.2581
" />
<path d="M7.4356 1.2581
L7.5356 1.2914
" />
<path d="M7.5356 1.2914
L7.6023 1.3581
" />
<path d="M7.6023 1.3581
L7.6356 1.4248
" />
<path d="M7.6356 1.4248
L7.6689 1.5581
" />
<path d="M7.6689 1.5581
L7.6689 1.6581
" />
<path d="M7.6689 1.6581
L7.6356 1.7914
" />
<path d="M7.6356 1.7914
L7.6023 1.8581
" />
<path d="M7.6023 1.8581
L7.5356 1.9248
" />
<path d="M7.5356 1.9248
L7.4356 1.9581
" />
<path d="M7.4356 1.9581
L7.2689 1.9581
" />
</g><text x="3.0500" y="2.0500"
textLength="2.1533" font-size="0.9333" lengthAdjust="spacingAndGlyphs"
text-anchor="start" opacity="0" stroke-opacity="0">24V</text>
<g class="stroked-text"><desc>24V</desc>
<path d="M3.2623 1.3248
L3.2956 1.2914
" />
<path d="M3.2956 1.2914
L3.3623 1.2581
" />
<path d="M3.3623 1.2581
L3.5289 1.2581
" />
<path d="M3.5289 1.2581
L3.5956 1.2914
" />
<path d="M3.5956 1.2914
L3.6289 1.3248
" />
<path d="M3.6289 1.3248
L3.6623 1.3914
" />
<path d="M3.6623 1.3914
L3.6623 1.4581
" />
<path d="M3.6623 1.4581
L3.6289 1.5581
" />
<path d="M3.6289 1.5581
L3.2289 1.9581
" />
<path d="M3.2289 1.9581
L3.6623 1.9581
" />
<path d="M4.2623 1.4914
L4.2623 1.9581
" />
<path d="M4.0956 1.2248
L3.9289 1.7248
" />
<path d="M3.9289 1.7248
L4.3623 1.7248
" />
<path d="M4.5289 1.2581
L4.7623 1.9581
" />
<path d="M4.7623 1.9581
L4.9956 1.2581
" />
</g><text x="8.1300" y="2.0500"
textLength="1.4867" font-size="0.9333" lengthAdjust="spacingAndGlyphs"
text-anchor="start" opacity="0" stroke-opacity="0">5V</text>
<g class="stroked-text"><desc>5V</desc>
<path d="M8.7089 1.2581
L8.3756 1.2581
" />
<path d="M8.3756 1.2581
L8.3423 1.5914
" />
<path d="M8.3423 1.5914
L8.3756 1.5581
" />
<path d="M8.3756 1.5581
L8.4423 1.5248
" />
<path d="M8.4423 1.5248
L8.6089 1.5248
" />
<path d="M8.6089 1.5248
L8.6756 1.5581
" />
<path d="M8.6756 1.5581
L8.7089 1.5914
" />
<path d="M8.7089 1.5914
L8.7423 1.6581
" />
<path d="M8.7423 1.6581
L8.7423 1.8248
" />
<path d="M8.7423 1.8248
L8.7089 1.8914
" />
<path d="M8.7089 1.8914
L8.6756 1.9248
" />
<path d="M8.6756 1.9248
L8.6089 1.9581
" />
<path d="M8.6089 1.9581
L8.4423 1.9581
" />
<path d="M8.4423 1.9581
L8.3756 1.9248
" />
<path d="M8.3756 1.9248
L8.3423 1.8914
" />
<path d="M8.9423 1.2581
L9.1756 1.9581
" />
<path d="M9.1756 1.9581
L9.4089 1.2581
" />
</g><text x="7.0500" y="12.0000"
textLength="1.6200" font-size="0.9333" lengthAdjust="spacingAndGlyphs"
text-anchor="middle" opacity="0" stroke-opacity="0">U1</text>
<g class="stroked-text"><desc>U1</desc>
<path d="M6.5167 11.2676
L6.5167 11.8343
" />
<path d="M6.5167 11.8343
L6.5500 11.9009
" />
<path d="M6.5500 11.9009
L6.5833 11.9343
" />
<path d="M6.5833 11.9343
L6.6500 11.9676
" />
<path d="M6.6500 11.9676
L6.7833 11.9676
" />
<path d="M6.7833 11.9676
L6.8500 11.9343
" />
<path d="M6.8500 11.9343
L6.8833 11.9009
" />
<path d="M6.8833 11.9009
L6.9167 11.8343
" />
<path d="M6.9167 11.8343
L6.9167 11.2676
" />
<path d="M7.6167 11.9676
L7.2167 11.9676
" />
<path d="M7.4167 11.9676
L7.4167 11.2676
" />
<path d="M7.4167 11.2676
L7.3500 11.3676
" />
<path d="M7.3500 11.3676
L7.2833 11.4343
" />
<path d="M7.2833 11.4343
L7.2167 11.4676
" />
</g><text x="7.0500" y="16.8000"
textLength="7.9533" font-size="0.9333" lengthAdjust="spacingAndGlyphs"
text-anchor="middle" opacity="0" stroke-opacity="0">TLV70450DBVR</text>
<g class="stroked-text"><desc>TLV70450DBVR</desc>
<path d="M3.2500 16.0676
L3.6500 16.0676
" />
<path d="M3.4500 16.7676
L3.4500 16.0676
" />
<path d="M4.2167 16.7676
L3.8833 16.7676
" />
<path d="M3.8833 16.7676
L3.8833 16.0676
" />
<path d="M4.3500 16.0676
L4.5833 16.7676
" />
<path d="M4.5833 16.7676
L4.8167 16.0676
" />
<path d="M4.9833 16.0676
L5.4500 16.0676
" />
<path d="M5.4500 16.0676
L5.1500 16.7676
" />
<path d="M5.8500 16.0676
L5.9167 16.0676
" />
<path d="M5.9167 16.0676
L5.9833 16.1009
" />
<path d="M5.9833 16.1009
L6.0167 16.1343
" />
<path d="M6.0167 16.1343
L6.0500 16.2009
" />
<path d="M6.0500 16.2009
L6.0833 16.3343
" />
<path d="M6.0833 16.3343
L6.0833 16.5009
" />
<path d="M6.0833 16.5009
L6.0500 16.6343
" />
<path d="M6.0500 16.6343
L6.0167 16.7009
" />
<path d="M6.0167 16.7009
L5.9833 16.7343
" />
<path d="M5.9833 16.7343
L5.9167 16.7676
" />
<path d="M5.9167 16.7676
L5.8500 16.7676
" />
<path d="M5.8500 16.7676
L5.7833 16.7343
" />
<path d="M5.7833 16.7343
L5.7500 16.7009
" />
<path d="M5.7500 16.7009
L5.7167 16.6343
" />
<path d="M5.7167 16.6343
L5.6833 16.5009
" />
<path d="M5.6833 16.5009
L5.6833 16.3343
" />
<path d="M5.6833 16.3343
L5.7167 16.2009
" />
<path d="M5.7167 16.2009
L5.7500 16.1343
" />
<path d="M5.7500 16.1343
L5.7833 16.1009
" />
<path d="M5.7833 16.1009
L5.8500 16.0676
" />
<path d="M6.6833 16.3009
L6.6833 16.7676
" />
<path d="M6.5167 16.0343
L6.3500 16.5343
" />
<path d="M6.3500 16.5343
L6.7833 16.5343
" />
<path d="M7.3833 16.0676
L7.0500 16.0676
" />
<path d="M7.0500 16.0676
L7.0167 16.4009
" />
<path d="M7.0167 16.4009
L7.0500 16.3676
" />
<path d="M7.0500 16.3676
L7.1167 16.3343
" />
<path d="M7.1167 16.3343
L7.2833 16.3343
" />
<path d="M7.2833 16.3343
L7.3500 16.3676
" />
<path d="M7.3500 16.3676
L7.3833 16.4009
" />
<path d="M7.3833 16.4009
L7.4167 16.4676
" />
<path d="M7.4167 16.4676
L7.4167 16.6343
" />
<path d="M7.4167 16.6343
L7.3833 16.7009
" />
<path d="M7.3833 16.7009
L7.3500 16.7343
" />
<path d="M7.3500 16.7343
L7.2833 16.7676
" />
<path d="M7.2833 16.7676
L7.1167 16.7676
" />
<path d="M7.1167 16.7676
L7.0500 16.7343
" />
<path d="M7.0500 16.7343
L7.0167 16.7009
" />
<path d="M7.8500 16.0676
L7.9167 16.0676
" />
<path d="M7.9167 16.0676
L7.9833 16.1009
" />
<path d="M7.9833 16.1009
L8.0167 16.1343
" />
<path d="M8.0167 16.1343
L8.0500 16.2009
" />
<path d="M8.0500 16.2009
L8.0833 16.3343
" />
<path d="M8.0833 16.3343
L8.0833 16.5009
" />
<path d="M8.0833 16.5009
L8.0500 16.6343
" />
<path d="M8.0500 16.6343
L8.0167 16.7009
" />
<path d="M8.0167 16.7009
L7.9833 16.7343
" />
<path d="M7.9833 16.7343
L7.9167 16.7676
" />
<path d="M7.9167 16.7676
L7.8500 16.7676
" />
<path d="M7.8500 16.7676
L7.7833 16.7343
" />
<path d="M7.7833 16.7343
L7.7500 16.7009
" />
<path d="M7.7500 16.7009
L7.7167 16.6343
" />
<path d="M7.7167 16.6343
L7.6833 16.5009
" />
<path d="M7.6833 16.5009
L7.6833 16.3343
" />
<path d="M7.6833 16.3343
L7.7167 16.2009
" />
<path d="M7.7167 16.2009
L7.7500 16.1343
" />
<path d="M7.7500 16.1343
L7.7833 16.1009
" />
<path d="M7.7833 16.1009
L7.8500 16.0676
" />
<path d="M8.3833 16.7676
L8.3833 16.0676
" />
<path d="M8.3833 16.0676
L8.5500 16.0676
" />
<path d="M8.5500 16.0676
L8.6500 16.1009
" />
<path d="M8.6500 16.1009
L8.7167 16.1676
" />
<path d="M8.7167 16.1676
L8.7500 16.2343
" />
<path d="M8.7500 16.2343
L8.7833 16.3676
" />
<path d="M8.7833 16.3676
L8.7833 16.4676
" />
<path d="M8.7833 16.4676
L8.7500 16.6009
" />
<path d="M8.7500 16.6009
L8.7167 16.6676
" />
<path d="M8.7167 16.6676
L8.6500 16.7343
" />
<path d="M8.6500 16.7343
L8.5500 16.7676
" />
<path d="M8.5500 16.7676
L8.3833 16.7676
" />
<path d="M9.3167 16.4009
L9.4167 16.4343
" />
<path d="M9.4167 16.4343
L9.4500 16.4676
" />
<path d="M9.4500 16.4676
L9.4833 16.5343
" />
<path d="M9.4833 16.5343
L9.4833 16.6343
" />
<path d="M9.4833 16.6343
L9.4500 16.7009
" />
<path d="M9.4500 16.7009
L9.4167 16.7343
" />
<path d="M9.4167 16.7343
L9.3500 16.7676
" />
<path d="M9.3500 16.7676
L9.0833 16.7676
" />
<path d="M9.0833 16.7676
L9.0833 16.0676
" />
<path d="M9.0833 16.0676
L9.3167 16.0676
" />
<path d="M9.3167 16.0676
L9.3833 16.1009
" />
<path d="M9.3833 16.1009
L9.4167 16.1343
" />
<path d="M9.4167 16.1343
L9.4500 16.2009
" />
<path d="M9.4500 16.2009
L9.4500 16.2676
" />
<path d="M9.4500 16.2676
L9.4167 16.3343
" />
<path d="M9.4167 16.3343
L9.3833 16.3676
" />
<path d="M9.3833 16.3676
L9.3167 16.4009
" />
<path d="M9.3167 16.4009
L9.0833 16.4009
" />
<path d="M9.6833 16.0676
L9.9167 16.7676
" />
<path d="M9.9167 16.7676
L10.1500 16.0676
" />
<path d="M10.7833 16.7676
L10.5500 16.4343
" />
<path d="M10.3833 16.7676
L10.3833 16.0676
" />
<path d="M10.3833 16.0676
L10.6500 16.0676
" />
<path d="M10.6500 16.0676
L10.7167 16.1009
" />
<path d="M10.7167 16.1009
L10.7500 16.1343
" />
<path d="M10.7500 16.1343
L10.7833 16.2009
" />
<path d="M10.7833 16.2009
L10.7833 16.3009
" />
<path d="M10.7833 16.3009
L10.7500 16.3676
" />
<path d="M10.7500 16.3676
L10.7167 16.4009
" />
<path d="M10.7167 16.4009
L10.6500 16.4343
" />
<path d="M10.6500 16.4343
L10.3833 16.4343
" />
</g><text x="4.0577" y="7.4000"
textLength="1.5867" font-size="0.9333" lengthAdjust="spacingAndGlyphs"
text-anchor="middle" opacity="0" stroke-opacity="0">C1</text>
<g class="stroked-text"><desc>C1</desc>
<path d="M3.9410 7.3009
L3.9077 7.3343
" />
<path d="M3.9077 7.3343
L3.8077 7.3676
" />
<path d="M3.8077 7.3676
L3.7410 7.3676
" />
<path d="M3.7410 7.3676
L3.6410 7.3343
" />
<path d="M3.6410 7.3343
L3.5743 7.2676
" />
<path d="M3.5743 7.2676
L3.5410 7.2009
" />
<path d="M3.5410 7.2009
L3.5077 7.0676
" />
<path d="M3.5077 7.0676
L3.5077 6.9676
" />
<path d="M3.5077 6.9676
L3.5410 6.8343
" />
<path d="M3.5410 6.8343
L3.5743 6.7676
" />
<path d="M3.5743 6.7676
L3.6410 6.7009
" />
<path d="M3.6410 6.7009
L3.7410 6.6676
" />
<path d="M3.7410 6.6676
L3.8077 6.6676
" />
<path d="M3.8077 6.6676
L3.9077 6.7009
" />
<path d="M3.9077 6.7009
L3.9410 6.7343
" />
<path d="M4.6077 7.3676
L4.2077 7.3676
" />
<path d="M4.4077 7.3676
L4.4077 6.6676
" />
<path d="M4.4077 6.6676
L4.3410 6.7676
" />
<path d="M4.3410 6.7676
L4.2743 6.8343
" />
<path d="M4.2743 6.8343
L4.2077 6.8676
" />
</g><text x="4.0500" y="5.4000"
textLength="2.7867" font-size="0.9333" lengthAdjust="spacingAndGlyphs"
text-anchor="middle" opacity="0" stroke-opacity="0">10uF</text>
<g class="stroked-text"><desc>10uF</desc>
<path d="M3.3000 5.3676
L2.9000 5.3676
" />
<path d="M3.1000 5.3676
L3.1000 4.6676
" />
<path d="M3.1000 4.6676
L3.0333 4.7676
" />
<path d="M3.0333 4.7676
L2.9667 4.8343
" />
<path d="M2.9667 4.8343
L2.9000 4.8676
" />
<path d="M3.7333 4.6676
L3.8000 4.6676
" />
<path d="M3.8000 4.6676
L3.8667 4.7009
" />
<path d="M3.8667 4.7009
L3.9000 4.7343
" />
<path d="M3.9000 4.7343
L3.9333 4.8009
" />
<path d="M3.9333 4.8009
L3.9667 4.9343
" />
<path d="M3.9667 4.9343
L3.9667 5.1009
" />
<path d="M3.9667 5.1009
L3.9333 5.2343
" />
<path d="M3.9333 5.2343
L3.9000 5.3009
" />
<path d="M3.9000 5.3009
L3.8667 5.3343
" />
<path d="M3.8667 5.3343
L3.8000 5.3676
" />
<path d="M3.8000 5.3676
L3.7333 5.3676
" />
<path d="M3.7333 5.3676
L3.6667 5.3343
" />
<path d="M3.6667 5.3343
L3.6333 5.3009
" />
<path d="M3.6333 5.3009
L3.6000 5.2343
" />
<path d="M3.6000 5.2343
L3.5667 5.1009
" />
<path d="M3.5667 5.1009
L3.5667 4.9343
" />
<path d="M3.5667 4.9343
L3.6000 4.8009
" />
<path d="M3.6000 4.8009
L3.6333 4.7343
" />
<path d="M3.6333 4.7343
L3.6667 4.7009
" />
<path d="M3.6667 4.7009
L3.7333 4.6676
" />
<path d="M4.5667 4.9009
L4.5667 5.3676
" />
<path d="M4.2667 4.9009
L4.2667 5.2676
" />
<path d="M4.2667 5.2676
L4.3000 5.3343
" />
<path d="M4.3000 5.3343
L4.3667 5.3676
" />
<path d="M4.3667 5.3676
L4.4667 5.3676
" />
<path d="M4.4667 5.3676
L4.5333 5.3343
" />
<path d="M4.5333 5.3343
L4.5667 5.3009
" />
<path d="M5.1333 5.0009
L4.9000 5.0009
" />
<path d="M4.9000 5.3676
L4.9000 4.6676
" />
<path d="M4.9000 4.6676
L5.2333 4.6676
" />
</g><text x="10.0423" y="7.4000"
textLength="1.5867" font-size="0.9333" lengthAdjust="spacingAndGlyphs"
text-anchor="middle" opacity="0" stroke-opacity="0">C4</text>
<g class="stroked-text"><desc>C4</desc>
<path d="M9.9257 7.3009
L9.8923 7.3343
" />
<path d="M9.8923 7.3343
L9.7923 7.3676
" />
<path d="M9.7923 7.3676
L9.7257 7.3676
" />
<path d="M9.7257 7.3676
L9.6257 7.3343
" />
<path d="M9.6257 7.3343
L9.5590 7.2676
" />
<path d="M9.5590 7.2676
L9.5257 7.2009
" />
<path d="M9.5257 7.2009
L9.4923 7.0676
" />
<path d="M9.4923 7.0676
L9.4923 6.9676
" />
<path d="M9.4923 6.9676
L9.5257 6.8343
" />
<path d="M9.5257 6.8343
L9.5590 6.7676
" />
<path d="M9.5590 6.7676
L9.6257 6.7009
" />
<path d="M9.6257 6.7009
L9.7257 6.6676
" />
<path d="M9.7257 6.6676
L9.7923 6.6676
" />
<path d="M9.7923 6.6676
L9.8923 6.7009
" />
<path d="M9.8923 6.7009
L9.9257 6.7343
" />
<path d="M10.5257 6.9009
L10.5257 7.3676
" />
<path d="M10.3590 6.6343
L10.1923 7.1343
" />
<path d="M10.1923 7.1343
L10.6257 7.1343
" />
</g><text x="10.0500" y="5.4000"
textLength="3.4533" font-size="0.9333" lengthAdjust="spacingAndGlyphs"
text-anchor="middle" opacity="0" stroke-opacity="0">100nF</text>
<g class="stroked-text"><desc>100nF</desc>
<path d="M8.9667 5.3676
L8.5667 5.3676
" />
<path d="M8.7667 5.3676
L8.7667 4.6676
" />
<path d="M8.7667 4.6676
L8.7000 4.7676
" />
<path d="M8.7000 4.7676
L8.6333 4.8343
" />
<path d="M8.6333 4.8343
L8.5667 4.8676
" />
<path d="M9.4000 4.6676
L9.4667 4.6676
" />
<path d="M9.4667 4.6676
L9.5333 4.7009
" />
<path d="M9.5333 4.7009
L9.5667 4.7343
" />
<path d="M9.5667 4.7343
L9.6000 4.8009
" />
<path d="M9.6000 4.8009
L9.6333 4.9343
" />
<path d="M9.6333 4.9343
L9.6333 5.1009
" />
<path d="M9.6333 5.1009
L9.6000 5.2343
" />
<path d="M9.6000 5.2343
L9.5667 5.3009
" />
<path d="M9.5667 5.3009
L9.5333 5.3343
" />
<path d="M9.5333 5.3343
L9.4667 5.3676
" />
<path d="M9.4667 5.3676
L9.4000 5.3676
" />
<path d="M9.4000 5.3676
L9.3333 5.3343
" />
<path d="M9.3333 5.3343
L9.3000 5.3009
" />
<path d="M9.3000 5.3009
L9.2667 5.2343
" />
<path d="M9.2667 5.2343
L9.2333 5.1009
" />
<path d="M9.2333 5.1009
L9.2333 4.9343
" />
<path d="M9.2333 4.9343
L9.2667 4.8009
" />
<path d="M9.2667 4.8009
L9.3000 4.7343
" />
<path d="M9.3000 4.7343
L9.3333 4.7009
" />
<path d="M9.3333 4.7009
L9.4000 4.6676
" />
<path d="M10.0667 4.6676
L10.1333 4.6676
" />
<path d="M10.1333 4.6676
L10.2000 4.7009
" />
<path d="M10.2000 4.7009
L10.2333 4.7343
" />
<path d="M10.2333 4.7343
L10.2667 4.8009
" />
<path d="M10.2667 4.8009
L10.3000 4.9343
" />
<path d="M10.3000 4.9343
L10.3000 5.1009
" />
<path d="M10.3000 5.1009
L10.2667 5.2343
" />
<path d="M10.2667 5.2343
L10.2333 5.3009
" />
<path d="M10.2333 5.3009
L10.2000 5.3343
" />
<path d="M10.2000 5.3343
L10.1333 5.3676
" />
<path d="M10.1333 5.3676
L10.0667 5.3676
" />
<path d="M10.0667 5.3676
L10.0000 5.3343
" />
<path d="M10.0000 5.3343
L9.9667 5.3009
" />
<path d="M9.9667 5.3009
L9.9333 5.2343
" />
<path d="M9.9333 5.2343
L9.9000 5.1009
" />
<path d="M9.9000 5.1009
L9.9000 4.9343
" />
<path d="M9.9000 4.9343
L9.9333 4.8009
" />
<path d="M9.9333 4.8009
L9.9667 4.7343
" />
<path d="M9.9667 4.7343
L10.0000 4.7009
" />
<path d="M10.0000 4.7009
L10.0667 4.6676
" />
<path d="M10.6000 4.9009
L10.6000 5.3676
" />
<path d="M10.6000 4.9676
L10.6333 4.9343
" />
<path d="M10.6333 4.9343
L10.7000 4.9009
" />
<path d="M10.7000 4.9009
L10.8000 4.9009
" />
<path d="M10.8000 4.9009
L10.8667 4.9343
" />
<path d="M10.8667 4.9343
L10.9000 5.0009
" />
<path d="M10.9000 5.0009
L10.9000 5.3676
" />
<path d="M11.4667 5.0009
L11.2333 5.0009
" />
<path d="M11.2333 5.3676
L11.2333 4.6676
" />
<path d="M11.2333 4.6676
L11.5667 4.6676
" />
</g><text x="4.0577" y="10.4000"
textLength="1.5867" font-size="0.9333" lengthAdjust="spacingAndGlyphs"
text-anchor="middle" opacity="0" stroke-opacity="0">C2</text>
<g class="stroked-text"><desc>C2</desc>
<path d="M3.9410 10.3009
L3.9077 10.3343
" />
<path d="M3.9077 10.3343
L3.8077 10.3676
" />
<path d="M3.8077 10.3676
L3.7410 10.3676
" />
<path d="M3.7410 10.3676
L3.6410 10.3343
" />
<path d="M3.6410 10.3343
L3.5743 10.2676
" />
<path d="M3.5743 10.2676
L3.5410 10.2009
" />
<path d="M3.5410 10.2009
L3.5077 10.0676
" />
<path d="M3.5077 10.0676
L3.5077 9.9676
" />
<path d="M3.5077 9.9676
L3.5410 9.8343
" />
<path d="M3.5410 9.8343
L3.5743 9.7676
" />
<path d="M3.5743 9.7676
L3.6410 9.7009
" />
<path d="M3.6410 9.7009
L3.7410 9.6676
" />
<path d="M3.7410 9.6676
L3.8077 9.6676
" />
<path d="M3.8077 9.6676
L3.9077 9.7009
" />
<path d="M3.9077 9.7009
L3.9410 9.7343
" />
<path d="M4.2077 9.7343
L4.2410 9.7009
" />
<path d="M4.2410 9.7009
L4.3077 9.6676
" />
<path d="M4.3077 9.6676
L4.4743 9.6676
" />
<path d="M4.4743 9.6676
L4.5410 9.7009
" />
<path d="M4.5410 9.7009
L4.5743 9.7343
" />
<path d="M4.5743 9.7343
L4.6077 9.8009
" />
<path d="M4.6077 9.8009
L4.6077 9.8676
" />
<path d="M4.6077 9.8676
L4.5743 9.9676
" />
<path d="M4.5743 9.9676
L4.1743 10.3676
" />
<path d="M4.1743 10.3676
L4.6077 10.3676
" />
</g><text x="4.0500" y="12.4000"
textLength="3.4533" font-size="0.9333" lengthAdjust="spacingAndGlyphs"
text-anchor="middle" opacity="0" stroke-opacity="0">100nF</text>
<g class="stroked-text"><desc>100nF</desc>
<path d="M2.9667 12.3676
L2.5667 12.3676
" />
<path d="M2.7667 12.3676
L2.7667 11.6676
" />
<path d="M2.7667 11.6676
L2.7000 11.7676
" />
<path d="M2.7000 11.7676
L2.6333 11.8343
" />
<path d="M2.6333 11.8343
L2.5667 11.8676
" />
<path d="M3.4000 11.6676
L3.4667 11.6676
" />
<path d="M3.4667 11.6676
L3.5333 11.7009
" />
<path d="M3.5333 11.7009
L3.5667 11.7343
" />
<path d="M3.5667 11.7343
L3.6000 11.8009
" />
<path d="M3.6000 11.8009
L3.6333 11.9343
" />
<path d="M3.6333 11.9343
L3.6333 12.1009
" />
<path d="M3.6333 12.1009
L3.6000 12.2343
" />
<path d="M3.6000 12.2343
L3.5667 12.3009
" />
<path d="M3.5667 12.3009
L3.5333 12.3343
" />
<path d="M3.5333 12.3343
L3.4667 12.3676
" />
<path d="M3.4667 12.3676
L3.4000 12.3676
" />
<path d="M3.4000 12.3676
L3.3333 12.3343
" />
<path d="M3.3333 12.3343
L3.3000 12.3009
" />
<path d="M3.3000 12.3009
L3.2667 12.2343
" />
<path d="M3.2667 12.2343
L3.2333 12.1009
" />
<path d="M3.2333 12.1009
L3.2333 11.9343
" />
<path d="M3.2333 11.9343
L3.2667 11.8009
" />
<path d="M3.2667 11.8009
L3.3000 11.7343
" />
<path d="M3.3000 11.7343
L3.3333 11.7009
" />
<path d="M3.3333 11.7009
L3.4000 11.6676
" />
<path d="M4.0667 11.6676
L4.1333 11.6676
" />
<path d="M4.1333 11.6676
L4.2000 11.7009
" />
<path d="M4.2000 11.7009
L4.2333 11.7343
" />
<path d="M4.2333 11.7343
L4.2667 11.8009
" />
<path d="M4.2667 11.8009
L4.3000 11.9343
" />
<path d="M4.3000 11.9343
L4.3000 12.1009
" />
<path d="M4.3000 12.1009
L4.2667 12.2343
" />
<path d="M4.2667 12.2343
L4.2333 12.3009
" />
<path d="M4.2333 12.3009
L4.2000 12.3343
" />
<path d="M4.2000 12.3343
L4.1333 12.3676
" />
<path d="M4.1333 12.3676
L4.0667 12.3676
" />
<path d="M4.0667 12.3676
L4.0000 12.3343
" />
<path d="M4.0000 12.3343
L3.9667 12.3009
" />
<path d="M3.9667 12.3009
L3.9333 12.2343
" />
<path d="M3.9333 12.2343
L3.9000 12.1009
" />
<path d="M3.9000 12.1009
L3.9000 11.9343
" />
<path d="M3.9000 11.9343
L3.9333 11.8009
" />
<path d="M3.9333 11.8009
L3.9667 11.7343
" />
<path d="M3.9667 11.7343
L4.0000 11.7009
" />
<path d="M4.0000 11.7009
L4.0667 11.6676
" />
<path d="M4.6000 11.9009
L4.6000 12.3676
" />
<path d="M4.6000 11.9676
L4.6333 11.9343
" />
<path d="M4.6333 11.9343
L4.7000 11.9009
" />
<path d="M4.7000 11.9009
L4.8000 11.9009
" />
<path d="M4.8000 11.9009
L4.8667 11.9343
" />
<path d="M4.8667 11.9343
L4.9000 12.0009
" />
<path d="M4.9000 12.0009
L4.9000 12.3676
" />
<path d="M5.4667 12.0009
L5.2333 12.0009
" />
<path d="M5.2333 12.3676
L5.2333 11.6676
" />
<path d="M5.2333 11.6676
L5.5667 11.6676
" />
</g><text x="10.0500" y="10.4000"
textLength="1.5867" font-size="0.9333" lengthAdjust="spacingAndGlyphs"
text-anchor="middle" opacity="0" stroke-opacity="0">C3</text>
<g class="stroked-text"><desc>C3</desc>
<path d="M9.9333 10.3009
L9.9000 10.3343
" />
<path d="M9.9000 10.3343
L9.8000 10.3676
" />
<path d="M9.8000 10.3676
L9.7333 10.3676
" />
<path d="M9.7333 10.3676
L9.6333 10.3343
" />
<path d="M9.6333 10.3343
L9.5667 10.2676
" />
<path d="M9.5667 10.2676
L9.5333 10.2009
" />
<path d="M9.5333 10.2009
L9.5000 10.0676
" />
<path d="M9.5000 10.0676
L9.5000 9.9676
" />
<path d="M9.5000 9.9676
L9.5333 9.8343
" />
<path d="M9.5333 9.8343
L9.5667 9.7676
" />
<path d="M9.5667 9.7676
L9.6333 9.7009
" />
<path d="M9.6333 9.7009
L9.7333 9.6676
" />
<path d="M9.7333 9.6676
L9.8000 9.6676
" />
<path d="M9.8000 9.6676
L9.9000 9.7009
" />
<path d="M9.9000 9.7009
L9.9333 9.7343
" />
<path d="M10.1667 9.6676
L10.6000 9.6676
" />
<path d="M10.6000 9.6676
L10.3667 9.9343
" />
<path d="M10.3667 9.9343
L10.4667 9.9343
" />
<path d="M10.4667 9.9343
L10.5333 9.9676
" />
<path d="M10.5333 9.9676
L10.5667 10.0009
" />
<path d="M10.5667 10.0009
L10.6000 10.0676
" />
<path d="M10.6000 10.0676
L10.6000 10.2343
" />
<path d="M10.6000 10.2343
L10.5667 10.3009
" />
<path d="M10.5667 10.3009
L10.5333 10.3343
" />
<path d="M10.5333 10.3343
L10.4667 10.3676
" />
<path d="M10.4667 10.3676
L10.2667 10.3676
" />
<path d="M10.2667 10.3676
L10.2000 10.3343
" />
<path d="M10.2000 10.3343
L10.1667 10.3009
" />
</g><text x="12.0500" y="12.4000"
textLength="2.7867" font-size="0.9333" lengthAdjust="spacingAndGlyphs"
text-anchor="middle" opacity="0" stroke-opacity="0">10uF</text>
<g class="stroked-text"><desc>10uF</desc>
<path d="M11.3000 12.3676
L10.9000 12.3676
" />
<path d="M11.1000 12.3676
L11.1000 11.6676
" />
<path d="M11.1000 11.6676
L11.0333 11.7676
" />
<path d="M11.0333 11.7676
L10.9667 11.8343
" />
<path d="M10.9667 11.8343
L10.9000 11.8676
" />
<path d="M11.7333 11.6676
L11.8000 11.6676
" />
<path d="M11.8000 11.6676
L11.8667 11.7009
" />
<path d="M11.8667 11.7009
L11.9000 11.7343
" />
<path d="M11.9000 11.7343
L11.9333 11.8009
" />
<path d="M11.9333 11.8009
L11.9667 11.9343
" />
<path d="M11.9667 11.9343
L11.9667 12.1009
" />
<path d="M11.9667 12.1009
L11.9333 12.2343
" />
<path d="M11.9333 12.2343
L11.9000 12.3009
" />
<path d="M11.9000 12.3009
L11.8667 12.3343
" />
<path d="M11.8667 12.3343
L11.8000 12.3676
" />
<path d="M11.8000 12.3676
L11.7333 12.3676
" />
<path d="M11.7333 12.3676
L11.6667 12.3343
" />
<path d="M11.6667 12.3343
L11.6333 12.3009
" />
<path d="M11.6333 12.3009
L11.6000 12.2343
" />
<path d="M11.6000 12.2343
L11.5667 12.1009
" />
<path d="M11.5667 12.1009
L11.5667 11.9343
" />
<path d="M11.5667 11.9343
L11.6000 11.8009
" />
<path d="M11.6000 11.8009
L11.6333 11.7343
" />
<path d="M11.6333 11.7343
L11.6667 11.7009
" />
<path d="M11.6667 11.7009
L11.7333 11.6676
" />
<path d="M12.5667 11.9009
L12.5667 12.3676
" />
<path d="M12.2667 11.9009
L12.2667 12.2676
" />
<path d="M12.2667 12.2676
L12.3000 12.3343
" />
<path d="M12.3000 12.3343
L12.3667 12.3676
" />
<path d="M12.3667 12.3676
L12.4667 12.3676
" />
<path d="M12.4667 12.3676
L12.5333 12.3343
" />
<path d="M12.5333 12.3343
L12.5667 12.3009
" />
<path d="M13.1333 12.0009
L12.9000 12.0009
" />
<path d="M12.9000 12.3676
L12.9000 11.6676
" />
<path d="M12.9000 11.6676
L13.2333 11.6676
" />
</g><path d="M7.0500 12.4900
L6.2500 12.4900
" />
<path d="M7.0500 12.4900
L7.8500 12.4900
" />
<path d="M7.0500 15.6100
L6.2500 15.6100
" />
<path d="M7.0500 15.6100
L7.8500 15.6100
" />
<path style="fill:#F2EDA1; fill-opacity:1.0000; 
stroke:#F2EDA1; stroke-width:0.1200; stroke-opacity:1; 
stroke-linecap:round; stroke-linejoin:round;fill-rule:evenodd;"
d="M 5.7500,12.5400
5.5100,12.2100
5.9900,12.2100
Z" /> 
</g>
<g style="fill:none; 
stroke:#F2EDA1; stroke-width:0.1200; stroke-opacity:1; 
stroke-linecap:round; stroke-linejoin:round;">
<path d="M1.9500 8.2500
L6.1500 8.2500
" />
<path d="M6.1500 5.8500
L1.9500 5.8500
" />
<path d="M1.9500 5.8500 A1.9010 1.9010 0.0 0 0 1.9500 8.2500" />
<path d="M6.1500 8.2500 A1.8501 1.8501 0.0 0 0 6.1500 5.8500" />
<path d="M7.9500 8.2500
L12.1500 8.2500
" />
<path d="M12.1500 5.8500
L7.9500 5.8500
" />
<path d="M7.9500 5.8500 A1.8501 1.8501 0.0 0 0 7.9500 8.2500" />
<path d="M12.1500 8.2500 A1.9010 1.9010 0.0 0 0 12.1500 5.8500" />
<path d="M1.9500 11.2500
L6.1500 11.2500
" />
<path d="M6.1500 8.8500
L1.9500 8.8500
" />
<path d="M1.9500 8.8500 A1.9010 1.9010 0.0 0 0 1.9500 11.2500" />
<path d="M6.1500 11.2500 A1.8501 1.8501 0.0 0 0 6.1500 8.8500" />
<path d="M7.9500 11.2500
L12.1500 11.2500
" />
<path d="M12.1500 8.8500
L7.9500 8.8500
" />
<path d="M7.9500 8.8500 A1.8501 1.8501 0.0 0 0 7.9500 11.2500" />
<path d="M12.1500 11.2500 A1.9010 1.9010 0.0 0 0 12.1500 8.8500" />
</g> 
</svg>
