<?xml version="1.0" standalone="no"?>
 <!DOCTYPE svg PUBLIC "-//W3C//DTD SVG 1.1//EN" 
 "http://www.w3.org/Graphics/SVG/1.1/DTD/svg11.dtd"> 
<svg
  xmlns:svg="http://www.w3.org/2000/svg"
  xmlns="http://www.w3.org/2000/svg"
  xmlns:xlink="http://www.w3.org/1999/xlink"
  version="1.1"
  width="297.0022mm" height="210.0072mm" viewBox="0.0000 0.0000 297.0022 210.0072">
<title>SVG Image created as TLV70450DBVR-Edge_Cuts.svg date 2025/05/16 15:50:35 </title>
  <desc>Image generated by PCBNEW </desc>
<g style="fill:#000000; fill-opacity:1.0000;stroke:#000000; stroke-opacity:1.0000;
stroke-linecap:round; stroke-linejoin:round;"
 transform="translate(0 0) scale(1 1)">
</g>
<g style="fill:none; 
stroke:#D0D2CD; stroke-width:0.2000; stroke-opacity:1; 
stroke-linecap:round; stroke-linejoin:round;">
<path d="M119.0000 141.0000 A3.0000 3.0000 0.0 0 0 122.0000 138.0000" />
<path d="M122.0000 133.0000
L122.0000 138.0000
" />
<path d="M104.0000 130.0000
L119.0000 130.0000
" />
<path d="M119.0000 141.0000
L104.0000 141.0000
" />
<path d="M104.0000 130.0000 A3.0000 3.0000 0.0 0 0 101.0000 133.0000" />
<path d="M122.0000 133.0000 A3.0000 3.0000 0.0 0 0 119.0000 130.0000" />
<path d="M101.0000 138.0000 A3.0000 3.0000 0.0 0 0 104.0000 141.0000" />
<path d="M101.0000 138.0000
L101.0000 133.0000
" />
<path style="fill:#4D7FC4; fill-opacity:1.0000; stroke:none;fill-rule:evenodd;"
d="M 114.3500,140.2500
114.2543,140.2310
114.1732,140.1768
114.1190,140.0957
114.1000,140.0000
114.1000,138.0000
114.1190,137.9043
114.1732,137.8232
114.2543,137.7690
114.3500,137.7500
115.6500,137.7500
115.7457,137.7690
115.8268,137.8232
115.8810,137.9043
115.9000,138.0000
115.9000,140.0000
115.8810,140.0957
115.8268,140.1768
115.7457,140.2310
115.6500,140.2500
Z" /> 
<path style="fill:#4D7FC4; fill-opacity:1.0000; stroke:none;fill-rule:evenodd;"
d="M 114.3500,136.2500
114.2543,136.2310
114.1732,136.1768
114.1190,136.0957
114.1000,136.0000
114.1000,134.0000
114.1190,133.9043
114.1732,133.8232
114.2543,133.7690
114.3500,133.7500
115.6500,133.7500
115.7457,133.7690
115.8268,133.8232
115.8810,133.9043
115.9000,134.0000
115.9000,136.0000
115.8810,136.0957
115.8268,136.1768
115.7457,136.2310
115.6500,136.2500
Z" /> 
<path style="fill:#4D7FC4; fill-opacity:1.0000; stroke:none;fill-rule:evenodd;"
d="M 108.1500,131.1500
109.8500,131.1500
109.8500,132.8500
108.1500,132.8500
Z" /> 
</g>
<g style="fill:#4D7FC4; fill-opacity:1.0000; stroke:none;">
<circle cx="111.5400" cy="132.0000" r="0.8500" /> 
<circle cx="114.0800" cy="132.0000" r="0.8500" /> 
<path style="fill:#4D7FC4; fill-opacity:1.0000; stroke:none;fill-rule:evenodd;"
d="M 107.3500,140.2500
107.2543,140.2310
107.1732,140.1768
107.1190,140.0957
107.1000,140.0000
107.1000,138.0000
107.1190,137.9043
107.1732,137.8232
107.2543,137.7690
107.3500,137.7500
108.6500,137.7500
108.7457,137.7690
108.8268,137.8232
108.8810,137.9043
108.9000,138.0000
108.9000,140.0000
108.8810,140.0957
108.8268,140.1768
108.7457,140.2310
108.6500,140.2500
Z" /> 
<path style="fill:#4D7FC4; fill-opacity:1.0000; stroke:none;fill-rule:evenodd;"
d="M 107.3500,136.2500
107.2543,136.2310
107.1732,136.1768
107.1190,136.0957
107.1000,136.0000
107.1000,134.0000
107.1190,133.9043
107.1732,133.8232
107.2543,133.7690
107.3500,133.7500
108.6500,133.7500
108.7457,133.7690
108.8268,133.8232
108.8810,133.9043
108.9000,134.0000
108.9000,136.0000
108.8810,136.0957
108.8268,136.1768
108.7457,136.2310
108.6500,136.2500
Z" /> 
<circle cx="120.4100" cy="131.8700" r="0.2500" /> 
</g>
<g style="fill:#4D7FC4; fill-opacity:1.0000; stroke:none;">
<circle cx="104.3000" cy="130.8100" r="0.2500" /> 
</g>
<g style="fill:#4D7FC4; fill-opacity:1.0000; stroke:none;">
<circle cx="121.1000" cy="133.4600" r="0.2500" /> 
</g>
<g style="fill:#4D7FC4; fill-opacity:1.0000; stroke:none;">
<circle cx="106.0000" cy="135.1600" r="0.2500" /> 
</g>
<g style="fill:#4D7FC4; fill-opacity:1.0000; stroke:none;">
<circle cx="102.1000" cy="133.3800" r="0.2500" /> 
</g>
<g style="fill:#4D7FC4; fill-opacity:1.0000; stroke:none;">
<circle cx="111.5400" cy="134.0200" r="0.2500" /> 
</g>
<g style="fill:#4D7FC4; fill-opacity:1.0000; stroke:none;">
<circle cx="118.8600" cy="130.8400" r="0.2500" /> 
</g>
<g style="fill:#4D7FC4; fill-opacity:1.0000; stroke:none;">
<circle cx="103.0500" cy="131.7400" r="0.2500" /> 
</g>
<g style="fill:#4D7FC4; fill-opacity:1.0000; stroke:none;">
<circle cx="117.1300" cy="135.1900" r="0.2500" /> 
</g>
<g style="fill:none; 
stroke:#4D7FC4; stroke-width:2.0000; stroke-opacity:1; 
stroke-linecap:round; stroke-linejoin:round;">
<path d="M108.0000 139.0000
L111.5500 139.0000
" />
<path d="M111.5400 132.0000
L111.5400 134.0200
" />
<path d="M111.5400 138.9900
L111.5500 139.0000
" />
<path d="M111.5500 139.0000
L115.0000 139.0000
" />
<path d="M111.5400 134.0200
L111.5400 138.9900
" />
<path d="M109.0000 134.0000
L108.0000 135.0000
" />
<path d="M109.0000 132.0000
L109.0000 134.0000
" />
<path d="M114.0800 134.0800
L115.0000 135.0000
" />
<path d="M114.0800 132.0000
L114.0800 134.0800
" />
<path style="fill:#4D7FC4; fill-opacity:1.0000; stroke:none;fill-rule:evenodd;"
d="M 119.0035,130.2007
119.3065,130.2177
119.3203,130.2193
119.6161,130.2695
119.6296,130.2726
119.9179,130.3557
119.9311,130.3603
120.2082,130.4751
120.2207,130.4811
120.3209,130.5364
120.4833,130.6262
120.4951,130.6336
120.5265,130.6559
120.7398,130.8072
120.7507,130.8159
120.9744,131.0158
120.9842,131.0256
121.1841,131.2493
121.1928,131.2602
121.3664,131.5049
121.3738,131.5167
121.5189,131.7792
121.5249,131.7918
121.6397,132.0689
121.6443,132.0821
121.7274,132.3704
121.7305,132.3839
121.7807,132.6797
121.7823,132.6935
121.7993,132.9965
121.7995,133.0035
121.7995,137.9965
121.7993,138.0035
121.7823,138.3065
121.7807,138.3203
121.7305,138.6161
121.7274,138.6296
121.6443,138.9179
121.6397,138.9311
121.5249,139.2082
121.5189,139.2208
121.3738,139.4833
121.3664,139.4951
121.1928,139.7398
121.1841,139.7507
120.9842,139.9744
120.9744,139.9842
120.7507,140.1841
120.7398,140.1928
120.4951,140.3664
120.4833,140.3738
120.2208,140.5189
120.2082,140.5249
119.9311,140.6397
119.9179,140.6443
119.6296,140.7274
119.6161,140.7305
119.3203,140.7807
119.3065,140.7823
119.0035,140.7993
118.9965,140.7995
104.0035,140.7995
103.9965,140.7993
103.6935,140.7823
103.6797,140.7807
103.3839,140.7305
103.3704,140.7274
103.0821,140.6443
103.0689,140.6397
102.7918,140.5249
102.7792,140.5189
102.5167,140.3738
102.5049,140.3664
102.2602,140.1928
102.2493,140.1841
102.0256,139.9842
102.0158,139.9744
101.8159,139.7507
101.8072,139.7398
101.6336,139.4951
101.6262,139.4833
101.4811,139.2208
101.4751,139.2082
101.3603,138.9311
101.3557,138.9179
101.2726,138.6296
101.2695,138.6161
101.2500,138.5014
101.2193,138.3203
101.2177,138.3065
101.2007,138.0035
101.2005,137.9965
101.2005,134.8819
106.4995,134.8819
106.4995,135.1181
106.5364,135.3514
106.5934,135.5267
106.5995,135.5651
106.5995,136.0500
106.5995,136.0500
106.6100,136.1528
106.6100,136.1528
106.6652,136.3193
106.6652,136.3193
106.7573,136.4687
106.8813,136.5927
107.0307,136.6848
107.1972,136.7400
107.3000,136.7505
108.7000,136.7505
108.8028,136.7400
108.9693,136.6848
109.1187,136.5927
109.2427,136.4687
109.3348,136.3193
109.3900,136.1528
109.4005,136.0500
109.4005,135.7729
109.4202,135.7058
109.4368,135.6852
110.1445,134.9775
110.2833,134.7864
110.3906,134.5760
110.4636,134.3514
110.4878,134.1981
110.5005,134.1181
110.5005,131.8819
112.5795,131.8819
112.5795,134.1981
112.6164,134.4314
112.6894,134.6560
112.7967,134.8664
112.9355,135.0575
113.5632,135.6852
113.5967,135.7465
113.5995,135.7729
113.5995,136.0500
113.5995,136.0500
113.6100,136.1528
113.6100,136.1528
113.6652,136.3193
113.6652,136.3193
113.7573,136.4687
113.8813,136.5927
114.0307,136.6848
114.1972,136.7400
114.3000,136.7505
115.7000,136.7505
115.8028,136.7400
115.9693,136.6848
116.1187,136.5927
116.2427,136.4687
116.3348,136.3193
116.3900,136.1528
116.4005,136.0500
116.4005,135.5651
116.4066,135.5267
116.4636,135.3514
116.5005,135.1181
116.5005,134.8819
116.4647,134.6560
116.4636,134.6486
116.4277,134.5384
116.4066,134.4733
116.4005,134.4349
116.4005,133.9500
116.4005,133.9500
116.3900,133.8472
116.3900,133.8472
116.3348,133.6807
116.2427,133.5313
116.1187,133.4073
115.9693,133.3152
115.8028,133.2600
115.8028,133.2600
115.7000,133.2495
115.6982,133.2494
115.6978,133.2493
115.6969,133.2492
115.6969,133.2490
115.6322,133.2263
115.5892,133.1713
115.5805,133.1256
115.5805,131.8819
115.5436,131.6486
115.4987,131.5106
115.4706,131.4240
115.4706,131.4240
115.4706,131.4240
115.3871,131.2602
115.3633,131.2136
115.2245,131.0225
115.0575,130.8555
114.8664,130.7167
114.8459,130.7062
114.6560,130.6094
114.4314,130.5364
114.1981,130.4995
114.1981,130.4995
113.9619,130.4995
113.9619,130.4995
113.7286,130.5364
113.5040,130.6094
113.2936,130.7167
113.1892,130.7925
113.1025,130.8555
113.1025,130.8555
113.1025,130.8555
112.9355,131.0225
112.9355,131.0225
112.9355,131.0225
112.8776,131.1021
112.7967,131.2136
112.6894,131.4240
112.6164,131.6486
112.5795,131.8819
110.5005,131.8819
110.4636,131.6486
110.4187,131.5106
110.3906,131.4240
110.3906,131.4240
110.3906,131.4240
110.3640,131.3719
110.3505,131.3156
110.3505,131.1021
110.3505,131.1021
110.3505,131.1021
110.3441,131.0425
110.3366,131.0225
110.2938,130.9077
110.2938,130.9077
110.2075,130.7925
110.2075,130.7925
110.0923,130.7062
110.0923,130.7062
109.9575,130.6559
109.9575,130.6559
109.8979,130.6495
109.8979,130.6495
109.8979,130.6495
109.8979,130.6495
109.6844,130.6495
109.6281,130.6360
109.6235,130.6336
109.6156,130.6296
109.5760,130.6094
109.3514,130.5364
109.1181,130.4995
109.1181,130.4995
108.8819,130.4995
108.8819,130.4995
108.6486,130.5364
108.6486,130.5364
108.4240,130.6094
108.4240,130.6094
108.3719,130.6360
108.3156,130.6495
108.1021,130.6495
108.1021,130.6495
108.0425,130.6559
107.9077,130.7062
107.9077,130.7062
107.7925,130.7925
107.7925,130.7925
107.7062,130.9077
107.7062,130.9077
107.6559,131.0425
107.6495,131.1021
107.6495,131.1021
107.6495,131.1021
107.6495,131.3156
107.6360,131.3719
107.6094,131.4240
107.6094,131.4240
107.5364,131.6486
107.5364,131.6486
107.4995,131.8819
107.4995,133.1255
107.4798,133.1925
107.4270,133.2383
107.3755,133.2495
107.3000,133.2495
107.3000,133.2495
107.1972,133.2600
107.1972,133.2600
107.0307,133.3152
107.0307,133.3152
106.8813,133.4073
106.7573,133.5313
106.6652,133.6807
106.6652,133.6807
106.6100,133.8472
106.6100,133.8472
106.6100,133.8472
106.5995,133.9500
106.5995,134.4349
106.5934,134.4733
106.5364,134.6486
106.4995,134.8819
101.2005,134.8819
101.2005,133.0035
101.2007,132.9965
101.2027,132.9601
101.2177,132.6935
101.2193,132.6797
101.2695,132.3839
101.2726,132.3704
101.3302,132.1705
101.3557,132.0821
101.3603,132.0689
101.4377,131.8819
101.4751,131.7918
101.4811,131.7793
101.6262,131.5167
101.6336,131.5049
101.8072,131.2602
101.8159,131.2494
102.0158,131.0256
102.0256,131.0158
102.2494,130.8159
102.2602,130.8072
102.5049,130.6336
102.5167,130.6262
102.7793,130.4811
102.7918,130.4751
103.0689,130.3603
103.0821,130.3557
103.3704,130.2726
103.3839,130.2695
103.6797,130.2193
103.6935,130.2177
103.9965,130.2007
104.0035,130.2005
104.0399,130.2005
118.9601,130.2005
118.9965,130.2005
Z" /> 
<path style="fill:#02FFEE; fill-opacity:0.4000; stroke:none;fill-rule:evenodd;"
d="M 114.3500,140.2500
114.2543,140.2310
114.1732,140.1768
114.1190,140.0957
114.1000,140.0000
114.1000,138.0000
114.1190,137.9043
114.1732,137.8232
114.2543,137.7690
114.3500,137.7500
115.6500,137.7500
115.7457,137.7690
115.8268,137.8232
115.8810,137.9043
115.9000,138.0000
115.9000,140.0000
115.8810,140.0957
115.8268,140.1768
115.7457,140.2310
115.6500,140.2500
Z" /> 
<path style="fill:#02FFEE; fill-opacity:0.4000; stroke:none;fill-rule:evenodd;"
d="M 114.3500,136.2500
114.2543,136.2310
114.1732,136.1768
114.1190,136.0957
114.1000,136.0000
114.1000,134.0000
114.1190,133.9043
114.1732,133.8232
114.2543,133.7690
114.3500,133.7500
115.6500,133.7500
115.7457,133.7690
115.8268,133.8232
115.8810,133.9043
115.9000,134.0000
115.9000,136.0000
115.8810,136.0957
115.8268,136.1768
115.7457,136.2310
115.6500,136.2500
Z" /> 
<path style="fill:#02FFEE; fill-opacity:0.4000; stroke:none;fill-rule:evenodd;"
d="M 108.1500,131.1500
109.8500,131.1500
109.8500,132.8500
108.1500,132.8500
Z" /> 
</g>
<g style="fill:#02FFEE; fill-opacity:0.4000; stroke:none;">
<circle cx="111.5400" cy="132.0000" r="0.8500" /> 
<circle cx="114.0800" cy="132.0000" r="0.8500" /> 
<path style="fill:#02FFEE; fill-opacity:0.4000; stroke:none;fill-rule:evenodd;"
d="M 107.3500,140.2500
107.2543,140.2310
107.1732,140.1768
107.1190,140.0957
107.1000,140.0000
107.1000,138.0000
107.1190,137.9043
107.1732,137.8232
107.2543,137.7690
107.3500,137.7500
108.6500,137.7500
108.7457,137.7690
108.8268,137.8232
108.8810,137.9043
108.9000,138.0000
108.9000,140.0000
108.8810,140.0957
108.8268,140.1768
108.7457,140.2310
108.6500,140.2500
Z" /> 
<path style="fill:#02FFEE; fill-opacity:0.4000; stroke:none;fill-rule:evenodd;"
d="M 107.3500,136.2500
107.2543,136.2310
107.1732,136.1768
107.1190,136.0957
107.1000,136.0000
107.1000,134.0000
107.1190,133.9043
107.1732,133.8232
107.2543,133.7690
107.3500,133.7500
108.6500,133.7500
108.7457,133.7690
108.8268,133.8232
108.8810,133.9043
108.9000,134.0000
108.9000,136.0000
108.8810,136.0957
108.8268,136.1768
108.7457,136.2310
108.6500,136.2500
Z" /> 
<path style="fill:#00C2C2; fill-opacity:0.9020; stroke:none;fill-rule:evenodd;"
d="M 114.3500,140.2500
114.2543,140.2310
114.1732,140.1768
114.1190,140.0957
114.1000,140.0000
114.1000,138.0000
114.1190,137.9043
114.1732,137.8232
114.2543,137.7690
114.3500,137.7500
115.6500,137.7500
115.7457,137.7690
115.8268,137.8232
115.8810,137.9043
115.9000,138.0000
115.9000,140.0000
115.8810,140.0957
115.8268,140.1768
115.7457,140.2310
115.6500,140.2500
Z" /> 
<path style="fill:#00C2C2; fill-opacity:0.9020; stroke:none;fill-rule:evenodd;"
d="M 114.3500,136.2500
114.2543,136.2310
114.1732,136.1768
114.1190,136.0957
114.1000,136.0000
114.1000,134.0000
114.1190,133.9043
114.1732,133.8232
114.2543,133.7690
114.3500,133.7500
115.6500,133.7500
115.7457,133.7690
115.8268,133.8232
115.8810,133.9043
115.9000,134.0000
115.9000,136.0000
115.8810,136.0957
115.8268,136.1768
115.7457,136.2310
115.6500,136.2500
Z" /> 
<path style="fill:#00C2C2; fill-opacity:0.9020; stroke:none;fill-rule:evenodd;"
d="M 107.3500,140.2500
107.2543,140.2310
107.1732,140.1768
107.1190,140.0957
107.1000,140.0000
107.1000,138.0000
107.1190,137.9043
107.1732,137.8232
107.2543,137.7690
107.3500,137.7500
108.6500,137.7500
108.7457,137.7690
108.8268,137.8232
108.8810,137.9043
108.9000,138.0000
108.9000,140.0000
108.8810,140.0957
108.8268,140.1768
108.7457,140.2310
108.6500,140.2500
Z" /> 
<path style="fill:#00C2C2; fill-opacity:0.9020; stroke:none;fill-rule:evenodd;"
d="M 107.3500,136.2500
107.2543,136.2310
107.1732,136.1768
107.1190,136.0957
107.1000,136.0000
107.1000,134.0000
107.1190,133.9043
107.1732,133.8232
107.2543,133.7690
107.3500,133.7500
108.6500,133.7500
108.7457,133.7690
108.8268,133.8232
108.8810,133.9043
108.9000,134.0000
108.9000,136.0000
108.8810,136.0957
108.8268,136.1768
108.7457,136.2310
108.6500,136.2500
Z" /> 
</g>
<g style="fill:none; 
stroke:#E8B2A7; stroke-width:0.1200; stroke-opacity:1; 
stroke-linecap:round; stroke-linejoin:round;">
<g transform="rotate(-90.000000 118.6300 137.0000)">
<text x="118.6300" y="137.3500"
transform="scale(-1 1) translate(-237.260000 0)"
textLength="1.5867" font-size="0.9333" lengthAdjust="spacingAndGlyphs"
text-anchor="middle" opacity="0" stroke-opacity="0">D2</text>
</g>
<g class="stroked-text"><desc>D2</desc>
<path d="M118.9476 136.4833
L118.2476 136.4833
" />
<path d="M118.2476 136.4833
L118.2476 136.6500
" />
<path d="M118.2476 136.6500
L118.2809 136.7500
" />
<path d="M118.2809 136.7500
L118.3476 136.8167
" />
<path d="M118.3476 136.8167
L118.4143 136.8500
" />
<path d="M118.4143 136.8500
L118.5476 136.8833
" />
<path d="M118.5476 136.8833
L118.6476 136.8833
" />
<path d="M118.6476 136.8833
L118.7809 136.8500
" />
<path d="M118.7809 136.8500
L118.8476 136.8167
" />
<path d="M118.8476 136.8167
L118.9143 136.7500
" />
<path d="M118.9143 136.7500
L118.9476 136.6500
" />
<path d="M118.9476 136.6500
L118.9476 136.4833
" />
<path d="M118.3143 137.1500
L118.2809 137.1833
" />
<path d="M118.2809 137.1833
L118.2476 137.2500
" />
<path d="M118.2476 137.2500
L118.2476 137.4167
" />
<path d="M118.2476 137.4167
L118.2809 137.4833
" />
<path d="M118.2809 137.4833
L118.3143 137.5167
" />
<path d="M118.3143 137.5167
L118.3809 137.5500
" />
<path d="M118.3809 137.5500
L118.4476 137.5500
" />
<path d="M118.4476 137.5500
L118.5476 137.5167
" />
<path d="M118.5476 137.5167
L118.9476 137.1167
" />
<path d="M118.9476 137.1167
L118.9476 137.5500
" />
</g><g transform="rotate(-90.000000 117.5600 137.0000)">
<text x="117.5600" y="137.3500"
transform="scale(-1 1) translate(-235.120000 0)"
textLength="5.7867" font-size="0.9333" lengthAdjust="spacingAndGlyphs"
text-anchor="middle" opacity="0" stroke-opacity="0">SMAJ5.0CA</text>
</g>
<g class="stroked-text"><desc>SMAJ5.0CA</desc>
<path d="M117.8443 134.3500
L117.8776 134.4500
" />
<path d="M117.8776 134.4500
L117.8776 134.6167
" />
<path d="M117.8776 134.6167
L117.8443 134.6833
" />
<path d="M117.8443 134.6833
L117.8109 134.7167
" />
<path d="M117.8109 134.7167
L117.7443 134.7500
" />
<path d="M117.7443 134.7500
L117.6776 134.7500
" />
<path d="M117.6776 134.7500
L117.6109 134.7167
" />
<path d="M117.6109 134.7167
L117.5776 134.6833
" />
<path d="M117.5776 134.6833
L117.5443 134.6167
" />
<path d="M117.5443 134.6167
L117.5109 134.4833
" />
<path d="M117.5109 134.4833
L117.4776 134.4167
" />
<path d="M117.4776 134.4167
L117.4443 134.3833
" />
<path d="M117.4443 134.3833
L117.3776 134.3500
" />
<path d="M117.3776 134.3500
L117.3109 134.3500
" />
<path d="M117.3109 134.3500
L117.2443 134.3833
" />
<path d="M117.2443 134.3833
L117.2109 134.4167
" />
<path d="M117.2109 134.4167
L117.1776 134.4833
" />
<path d="M117.1776 134.4833
L117.1776 134.6500
" />
<path d="M117.1776 134.6500
L117.2109 134.7500
" />
<path d="M117.8776 135.0500
L117.1776 135.0500
" />
<path d="M117.1776 135.0500
L117.6776 135.2833
" />
<path d="M117.6776 135.2833
L117.1776 135.5167
" />
<path d="M117.1776 135.5167
L117.8776 135.5167
" />
<path d="M117.6776 135.8167
L117.6776 136.1500
" />
<path d="M117.8776 135.7500
L117.1776 135.9833
" />
<path d="M117.1776 135.9833
L117.8776 136.2167
" />
<path d="M117.1776 136.6500
L117.6776 136.6500
" />
<path d="M117.6776 136.6500
L117.7776 136.6167
" />
<path d="M117.7776 136.6167
L117.8443 136.5500
" />
<path d="M117.8443 136.5500
L117.8776 136.4500
" />
<path d="M117.8776 136.4500
L117.8776 136.3833
" />
<path d="M117.1776 137.3167
L117.1776 136.9833
" />
<path d="M117.1776 136.9833
L117.5109 136.9500
" />
<path d="M117.5109 136.9500
L117.4776 136.9833
" />
<path d="M117.4776 136.9833
L117.4443 137.0500
" />
<path d="M117.4443 137.0500
L117.4443 137.2167
" />
<path d="M117.4443 137.2167
L117.4776 137.2833
" />
<path d="M117.4776 137.2833
L117.5109 137.3167
" />
<path d="M117.5109 137.3167
L117.5776 137.3500
" />
<path d="M117.5776 137.3500
L117.7443 137.3500
" />
<path d="M117.7443 137.3500
L117.8109 137.3167
" />
<path d="M117.8109 137.3167
L117.8443 137.2833
" />
<path d="M117.8443 137.2833
L117.8776 137.2167
" />
<path d="M117.8776 137.2167
L117.8776 137.0500
" />
<path d="M117.8776 137.0500
L117.8443 136.9833
" />
<path d="M117.8443 136.9833
L117.8109 136.9500
" />
<path d="M117.8109 137.6500
L117.8443 137.6833
" />
<path d="M117.8443 137.6833
L117.8776 137.6500
" />
<path d="M117.8776 137.6500
L117.8443 137.6167
" />
<path d="M117.8443 137.6167
L117.8109 137.6500
" />
<path d="M117.8109 137.6500
L117.8776 137.6500
" />
<path d="M117.1776 138.1167
L117.1776 138.1833
" />
<path d="M117.1776 138.1833
L117.2109 138.2500
" />
<path d="M117.2109 138.2500
L117.2443 138.2833
" />
<path d="M117.2443 138.2833
L117.3109 138.3167
" />
<path d="M117.3109 138.3167
L117.4443 138.3500
" />
<path d="M117.4443 138.3500
L117.6109 138.3500
" />
<path d="M117.6109 138.3500
L117.7443 138.3167
" />
<path d="M117.7443 138.3167
L117.8109 138.2833
" />
<path d="M117.8109 138.2833
L117.8443 138.2500
" />
<path d="M117.8443 138.2500
L117.8776 138.1833
" />
<path d="M117.8776 138.1833
L117.8776 138.1167
" />
<path d="M117.8776 138.1167
L117.8443 138.0500
" />
<path d="M117.8443 138.0500
L117.8109 138.0167
" />
<path d="M117.8109 138.0167
L117.7443 137.9833
" />
<path d="M117.7443 137.9833
L117.6109 137.9500
" />
<path d="M117.6109 137.9500
L117.4443 137.9500
" />
<path d="M117.4443 137.9500
L117.3109 137.9833
" />
<path d="M117.3109 137.9833
L117.2443 138.0167
" />
<path d="M117.2443 138.0167
L117.2109 138.0500
" />
<path d="M117.2109 138.0500
L117.1776 138.1167
" />
<path d="M117.8109 139.0500
L117.8443 139.0167
" />
<path d="M117.8443 139.0167
L117.8776 138.9167
" />
<path d="M117.8776 138.9167
L117.8776 138.8500
" />
<path d="M117.8776 138.8500
L117.8443 138.7500
" />
<path d="M117.8443 138.7500
L117.7776 138.6833
" />
<path d="M117.7776 138.6833
L117.7109 138.6500
" />
<path d="M117.7109 138.6500
L117.5776 138.6167
" />
<path d="M117.5776 138.6167
L117.4776 138.6167
" />
<path d="M117.4776 138.6167
L117.3443 138.6500
" />
<path d="M117.3443 138.6500
L117.2776 138.6833
" />
<path d="M117.2776 138.6833
L117.2109 138.7500
" />
<path d="M117.2109 138.7500
L117.1776 138.8500
" />
<path d="M117.1776 138.8500
L117.1776 138.9167
" />
<path d="M117.1776 138.9167
L117.2109 139.0167
" />
<path d="M117.2109 139.0167
L117.2443 139.0500
" />
<path d="M117.6776 139.3167
L117.6776 139.6500
" />
<path d="M117.8776 139.2500
L117.1776 139.4833
" />
<path d="M117.1776 139.4833
L117.8776 139.7167
" />
</g><g transform="rotate(-90.000000 104.4500 137.0400)">
<text x="104.4500" y="137.3900"
transform="scale(-1 1) translate(-208.900000 0)"
textLength="1.5867" font-size="0.9333" lengthAdjust="spacingAndGlyphs"
text-anchor="middle" opacity="0" stroke-opacity="0">D1</text>
</g>
<g class="stroked-text"><desc>D1</desc>
<path d="M104.7676 136.5233
L104.0676 136.5233
" />
<path d="M104.0676 136.5233
L104.0676 136.6900
" />
<path d="M104.0676 136.6900
L104.1009 136.7900
" />
<path d="M104.1009 136.7900
L104.1676 136.8567
" />
<path d="M104.1676 136.8567
L104.2343 136.8900
" />
<path d="M104.2343 136.8900
L104.3676 136.9233
" />
<path d="M104.3676 136.9233
L104.4676 136.9233
" />
<path d="M104.4676 136.9233
L104.6009 136.8900
" />
<path d="M104.6009 136.8900
L104.6676 136.8567
" />
<path d="M104.6676 136.8567
L104.7343 136.7900
" />
<path d="M104.7343 136.7900
L104.7676 136.6900
" />
<path d="M104.7676 136.6900
L104.7676 136.5233
" />
<path d="M104.7676 137.5900
L104.7676 137.1900
" />
<path d="M104.7676 137.3900
L104.0676 137.3900
" />
<path d="M104.0676 137.3900
L104.1676 137.3233
" />
<path d="M104.1676 137.3233
L104.2343 137.2567
" />
<path d="M104.2343 137.2567
L104.2676 137.1900
" />
</g><g transform="rotate(-90.000000 105.4600 137.0000)">
<text x="105.4600" y="137.3500"
transform="scale(-1 1) translate(-210.920000 0)"
textLength="5.4533" font-size="0.9333" lengthAdjust="spacingAndGlyphs"
text-anchor="middle" opacity="0" stroke-opacity="0">SMAJ24CA</text>
</g>
<g class="stroked-text"><desc>SMAJ24CA</desc>
<path d="M105.7443 134.5167
L105.7776 134.6167
" />
<path d="M105.7776 134.6167
L105.7776 134.7833
" />
<path d="M105.7776 134.7833
L105.7443 134.8500
" />
<path d="M105.7443 134.8500
L105.7109 134.8833
" />
<path d="M105.7109 134.8833
L105.6443 134.9167
" />
<path d="M105.6443 134.9167
L105.5776 134.9167
" />
<path d="M105.5776 134.9167
L105.5109 134.8833
" />
<path d="M105.5109 134.8833
L105.4776 134.8500
" />
<path d="M105.4776 134.8500
L105.4443 134.7833
" />
<path d="M105.4443 134.7833
L105.4109 134.6500
" />
<path d="M105.4109 134.6500
L105.3776 134.5833
" />
<path d="M105.3776 134.5833
L105.3443 134.5500
" />
<path d="M105.3443 134.5500
L105.2776 134.5167
" />
<path d="M105.2776 134.5167
L105.2109 134.5167
" />
<path d="M105.2109 134.5167
L105.1443 134.5500
" />
<path d="M105.1443 134.5500
L105.1109 134.5833
" />
<path d="M105.1109 134.5833
L105.0776 134.6500
" />
<path d="M105.0776 134.6500
L105.0776 134.8167
" />
<path d="M105.0776 134.8167
L105.1109 134.9167
" />
<path d="M105.7776 135.2167
L105.0776 135.2167
" />
<path d="M105.0776 135.2167
L105.5776 135.4500
" />
<path d="M105.5776 135.4500
L105.0776 135.6833
" />
<path d="M105.0776 135.6833
L105.7776 135.6833
" />
<path d="M105.5776 135.9833
L105.5776 136.3167
" />
<path d="M105.7776 135.9167
L105.0776 136.1500
" />
<path d="M105.0776 136.1500
L105.7776 136.3833
" />
<path d="M105.0776 136.8167
L105.5776 136.8167
" />
<path d="M105.5776 136.8167
L105.6776 136.7833
" />
<path d="M105.6776 136.7833
L105.7443 136.7167
" />
<path d="M105.7443 136.7167
L105.7776 136.6167
" />
<path d="M105.7776 136.6167
L105.7776 136.5500
" />
<path d="M105.1443 137.1167
L105.1109 137.1500
" />
<path d="M105.1109 137.1500
L105.0776 137.2167
" />
<path d="M105.0776 137.2167
L105.0776 137.3833
" />
<path d="M105.0776 137.3833
L105.1109 137.4500
" />
<path d="M105.1109 137.4500
L105.1443 137.4833
" />
<path d="M105.1443 137.4833
L105.2109 137.5167
" />
<path d="M105.2109 137.5167
L105.2776 137.5167
" />
<path d="M105.2776 137.5167
L105.3776 137.4833
" />
<path d="M105.3776 137.4833
L105.7776 137.0833
" />
<path d="M105.7776 137.0833
L105.7776 137.5167
" />
<path d="M105.3109 138.1167
L105.7776 138.1167
" />
<path d="M105.0443 137.9500
L105.5443 137.7833
" />
<path d="M105.5443 137.7833
L105.5443 138.2167
" />
<path d="M105.7109 138.8833
L105.7443 138.8500
" />
<path d="M105.7443 138.8500
L105.7776 138.7500
" />
<path d="M105.7776 138.7500
L105.7776 138.6833
" />
<path d="M105.7776 138.6833
L105.7443 138.5833
" />
<path d="M105.7443 138.5833
L105.6776 138.5167
" />
<path d="M105.6776 138.5167
L105.6109 138.4833
" />
<path d="M105.6109 138.4833
L105.4776 138.4500
" />
<path d="M105.4776 138.4500
L105.3776 138.4500
" />
<path d="M105.3776 138.4500
L105.2443 138.4833
" />
<path d="M105.2443 138.4833
L105.1776 138.5167
" />
<path d="M105.1776 138.5167
L105.1109 138.5833
" />
<path d="M105.1109 138.5833
L105.0776 138.6833
" />
<path d="M105.0776 138.6833
L105.0776 138.7500
" />
<path d="M105.0776 138.7500
L105.1109 138.8500
" />
<path d="M105.1109 138.8500
L105.1443 138.8833
" />
<path d="M105.5776 139.1500
L105.5776 139.4833
" />
<path d="M105.7776 139.0833
L105.0776 139.3167
" />
<path d="M105.0776 139.3167
L105.7776 139.5500
" />
</g><path d="M113.2000 133.4000
L116.8000 133.4000
" />
<path d="M113.2000 140.6000
L113.2000 133.4000
" />
<path d="M116.8000 133.4000
L116.8000 140.6000
" />
<path d="M116.8000 140.6000
L113.2000 140.6000
" />
<path d="M107.6700 130.6700
L107.6700 132.0000
" />
<path d="M109.0000 130.6700
L107.6700 130.6700
" />
<path d="M110.2700 130.6700
L110.2700 133.3300
" />
<path d="M110.2700 130.6700
L115.4100 130.6700
" />
<path d="M110.2700 133.3300
L115.4100 133.3300
" />
<path d="M115.4100 130.6700
L115.4100 133.3300
" />
<path d="M106.2000 133.4000
L109.8000 133.4000
" />
<path d="M106.2000 140.6000
L106.2000 133.4000
" />
<path d="M109.8000 133.4000
L109.8000 140.6000
" />
<path d="M109.8000 140.6000
L106.2000 140.6000
" />
<path style="fill:#C83434; fill-opacity:1.0000; stroke:none;fill-rule:evenodd;"
d="M 110.1800,138.4300
110.1226,138.4186
110.0739,138.3861
110.0414,138.3374
110.0300,138.2800
110.0300,137.2550
110.0414,137.1976
110.0739,137.1489
110.1226,137.1164
110.1800,137.1050
110.4800,137.1050
110.5374,137.1164
110.5861,137.1489
110.6186,137.1976
110.6300,137.2550
110.6300,138.2800
110.6186,138.3374
110.5861,138.3861
110.5374,138.4186
110.4800,138.4300
Z" /> 
<path style="fill:#C83434; fill-opacity:1.0000; stroke:none;fill-rule:evenodd;"
d="M 111.1300,138.4300
111.0726,138.4186
111.0239,138.3861
110.9914,138.3374
110.9800,138.2800
110.9800,137.2550
110.9914,137.1976
111.0239,137.1489
111.0726,137.1164
111.1300,137.1050
111.4300,137.1050
111.4874,137.1164
111.5361,137.1489
111.5686,137.1976
111.5800,137.2550
111.5800,138.2800
111.5686,138.3374
111.5361,138.3861
111.4874,138.4186
111.4300,138.4300
Z" /> 
<path style="fill:#C83434; fill-opacity:1.0000; stroke:none;fill-rule:evenodd;"
d="M 112.0800,138.4300
112.0226,138.4186
111.9739,138.3861
111.9414,138.3374
111.9300,138.2800
111.9300,137.2550
111.9414,137.1976
111.9739,137.1489
112.0226,137.1164
112.0800,137.1050
112.3800,137.1050
112.4374,137.1164
112.4861,137.1489
112.5186,137.1976
112.5300,137.2550
112.5300,138.2800
112.5186,138.3374
112.4861,138.3861
112.4374,138.4186
112.3800,138.4300
Z" /> 
<path style="fill:#C83434; fill-opacity:1.0000; stroke:none;fill-rule:evenodd;"
d="M 112.0800,136.1550
112.0226,136.1436
111.9739,136.1111
111.9414,136.0624
111.9300,136.0050
111.9300,134.9800
111.9414,134.9226
111.9739,134.8739
112.0226,134.8414
112.0800,134.8300
112.3800,134.8300
112.4374,134.8414
112.4861,134.8739
112.5186,134.9226
112.5300,134.9800
112.5300,136.0050
112.5186,136.0624
112.4861,136.1111
112.4374,136.1436
112.3800,136.1550
Z" /> 
<path style="fill:#C83434; fill-opacity:1.0000; stroke:none;fill-rule:evenodd;"
d="M 110.1800,136.1550
110.1226,136.1436
110.0739,136.1111
110.0414,136.0624
110.0300,136.0050
110.0300,134.9800
110.0414,134.9226
110.0739,134.8739
110.1226,134.8414
110.1800,134.8300
110.4800,134.8300
110.5374,134.8414
110.5861,134.8739
110.6186,134.9226
110.6300,134.9800
110.6300,136.0050
110.6186,136.0624
110.5861,136.1111
110.5374,136.1436
110.4800,136.1550
Z" /> 
<path style="fill:#C83434; fill-opacity:1.0000; stroke:none;fill-rule:evenodd;"
d="M 104.3500,140.0500
104.2543,140.0310
104.1732,139.9768
104.1190,139.8957
104.1000,139.8000
104.1000,139.1500
104.1190,139.0543
104.1732,138.9732
104.2543,138.9190
104.3500,138.9000
105.6500,138.9000
105.7457,138.9190
105.8268,138.9732
105.8810,139.0543
105.9000,139.1500
105.9000,139.8000
105.8810,139.8957
105.8268,139.9768
105.7457,140.0310
105.6500,140.0500
Z" /> 
<path style="fill:#C83434; fill-opacity:1.0000; stroke:none;fill-rule:evenodd;"
d="M 104.3500,137.1000
104.2543,137.0810
104.1732,137.0268
104.1190,136.9457
104.1000,136.8500
104.1000,136.2000
104.1190,136.1043
104.1732,136.0232
104.2543,135.9690
104.3500,135.9500
105.6500,135.9500
105.7457,135.9690
105.8268,136.0232
105.8810,136.1043
105.9000,136.2000
105.9000,136.8500
105.8810,136.9457
105.8268,137.0268
105.7457,137.0810
105.6500,137.1000
Z" /> 
<path style="fill:#C83434; fill-opacity:1.0000; stroke:none;fill-rule:evenodd;"
d="M 107.3500,140.0500
107.2543,140.0310
107.1732,139.9768
107.1190,139.8957
107.1000,139.8000
107.1000,139.1500
107.1190,139.0543
107.1732,138.9732
107.2543,138.9190
107.3500,138.9000
108.6500,138.9000
108.7457,138.9190
108.8268,138.9732
108.8810,139.0543
108.9000,139.1500
108.9000,139.8000
108.8810,139.8957
108.8268,139.9768
108.7457,140.0310
108.6500,140.0500
Z" /> 
<path style="fill:#C83434; fill-opacity:1.0000; stroke:none;fill-rule:evenodd;"
d="M 107.3500,137.1000
107.2543,137.0810
107.1732,137.0268
107.1190,136.9457
107.1000,136.8500
107.1000,136.2000
107.1190,136.1043
107.1732,136.0232
107.2543,135.9690
107.3500,135.9500
108.6500,135.9500
108.7457,135.9690
108.8268,136.0232
108.8810,136.1043
108.9000,136.2000
108.9000,136.8500
108.8810,136.9457
108.8268,137.0268
108.7457,137.0810
108.6500,137.1000
Z" /> 
<path style="fill:#C83434; fill-opacity:1.0000; stroke:none;fill-rule:evenodd;"
d="M 114.3500,140.0500
114.2543,140.0310
114.1732,139.9768
114.1190,139.8957
114.1000,139.8000
114.1000,139.1500
114.1190,139.0543
114.1732,138.9732
114.2543,138.9190
114.3500,138.9000
115.6500,138.9000
115.7457,138.9190
115.8268,138.9732
115.8810,139.0543
115.9000,139.1500
115.9000,139.8000
115.8810,139.8957
115.8268,139.9768
115.7457,140.0310
115.6500,140.0500
Z" /> 
<path style="fill:#C83434; fill-opacity:1.0000; stroke:none;fill-rule:evenodd;"
d="M 114.3500,137.1000
114.2543,137.0810
114.1732,137.0268
114.1190,136.9457
114.1000,136.8500
114.1000,136.2000
114.1190,136.1043
114.1732,136.0232
114.2543,135.9690
114.3500,135.9500
115.6500,135.9500
115.7457,135.9690
115.8268,136.0232
115.8810,136.1043
115.9000,136.2000
115.9000,136.8500
115.8810,136.9457
115.8268,137.0268
115.7457,137.0810
115.6500,137.1000
Z" /> 
<path style="fill:#C83434; fill-opacity:1.0000; stroke:none;fill-rule:evenodd;"
d="M 117.3500,140.0500
117.2543,140.0310
117.1732,139.9768
117.1190,139.8957
117.1000,139.8000
117.1000,139.1500
117.1190,139.0543
117.1732,138.9732
117.2543,138.9190
117.3500,138.9000
118.6500,138.9000
118.7457,138.9190
118.8268,138.9732
118.8810,139.0543
118.9000,139.1500
118.9000,139.8000
118.8810,139.8957
118.8268,139.9768
118.7457,140.0310
118.6500,140.0500
Z" /> 
<path style="fill:#C83434; fill-opacity:1.0000; stroke:none;fill-rule:evenodd;"
d="M 117.3500,137.1000
117.2543,137.0810
117.1732,137.0268
117.1190,136.9457
117.1000,136.8500
117.1000,136.2000
117.1190,136.1043
117.1732,136.0232
117.2543,135.9690
117.3500,135.9500
118.6500,135.9500
118.7457,135.9690
118.8268,136.0232
118.8810,136.1043
118.9000,136.2000
118.9000,136.8500
118.8810,136.9457
118.8268,137.0268
118.7457,137.0810
118.6500,137.1000
Z" /> 
<path style="fill:#C83434; fill-opacity:1.0000; stroke:none;fill-rule:evenodd;"
d="M 108.1500,131.1500
109.8500,131.1500
109.8500,132.8500
108.1500,132.8500
Z" /> 
</g>
<g style="fill:#C83434; fill-opacity:1.0000; stroke:none;">
<circle cx="111.5400" cy="132.0000" r="0.8500" /> 
<circle cx="114.0800" cy="132.0000" r="0.8500" /> 
<circle cx="120.4100" cy="131.8700" r="0.2500" /> 
</g>
<g style="fill:#C83434; fill-opacity:1.0000; stroke:none;">
<circle cx="104.3000" cy="130.8100" r="0.2500" /> 
</g>
<g style="fill:#C83434; fill-opacity:1.0000; stroke:none;">
<circle cx="121.1000" cy="133.4600" r="0.2500" /> 
</g>
<g style="fill:#C83434; fill-opacity:1.0000; stroke:none;">
<circle cx="106.0000" cy="135.1600" r="0.2500" /> 
</g>
<g style="fill:#C83434; fill-opacity:1.0000; stroke:none;">
<circle cx="102.1000" cy="133.3800" r="0.2500" /> 
</g>
<g style="fill:#C83434; fill-opacity:1.0000; stroke:none;">
<circle cx="111.5400" cy="134.0200" r="0.2500" /> 
</g>
<g style="fill:#C83434; fill-opacity:1.0000; stroke:none;">
<circle cx="118.8600" cy="130.8400" r="0.2500" /> 
</g>
<g style="fill:#C83434; fill-opacity:1.0000; stroke:none;">
<circle cx="103.0500" cy="131.7400" r="0.2500" /> 
</g>
<g style="fill:#C83434; fill-opacity:1.0000; stroke:none;">
<circle cx="117.1300" cy="135.1900" r="0.2500" /> 
</g>
<g style="fill:none; 
stroke:#C83434; stroke-width:0.8000; stroke-opacity:1; 
stroke-linecap:round; stroke-linejoin:round;">
<path d="M115.0000 135.4600
L115.0000 136.5250
" />
<path d="M111.5400 132.0000
L111.5400 132.1010
" />
</g>
<g style="fill:none; 
stroke:#C83434; stroke-width:2.0000; stroke-opacity:1; 
stroke-linecap:round; stroke-linejoin:round;">
<path d="M108.3750 136.5250
L109.4200 137.5700
" />
</g>
<g style="fill:none; 
stroke:#C83434; stroke-width:0.5000; stroke-opacity:1; 
stroke-linecap:round; stroke-linejoin:round;">
<path d="M117.9890 136.5360
L118.0000 136.5250
" />
</g>
<g style="fill:none; 
stroke:#C83434; stroke-width:0.8000; stroke-opacity:1; 
stroke-linecap:round; stroke-linejoin:round;">
<path d="M108.0000 135.6410
L108.0000 136.5250
" />
</g>
<g style="fill:none; 
stroke:#C83434; stroke-width:2.0000; stroke-opacity:1; 
stroke-linecap:round; stroke-linejoin:round;">
<path d="M115.0000 136.5250
L118.0000 136.5250
" />
<path d="M108.0000 136.5250
L108.3750 136.5250
" />
</g>
<g style="fill:none; 
stroke:#C83434; stroke-width:0.5000; stroke-opacity:1; 
stroke-linecap:round; stroke-linejoin:round;">
<path d="M105.0000 136.5250
L105.0110 136.5360
" />
</g>
<g style="fill:none; 
stroke:#C83434; stroke-width:0.8000; stroke-opacity:1; 
stroke-linecap:round; stroke-linejoin:round;">
<path d="M111.5400 132.1010
L108.0000 135.6410
" />
</g>
<g style="fill:none; 
stroke:#C83434; stroke-width:2.0000; stroke-opacity:1; 
stroke-linecap:round; stroke-linejoin:round;">
<path d="M105.0000 136.5250
L108.0000 136.5250
" />
</g>
<g style="fill:none; 
stroke:#C83434; stroke-width:0.8000; stroke-opacity:1; 
stroke-linecap:round; stroke-linejoin:round;">
<path d="M111.5400 132.0000
L115.0000 135.4600
" />
</g>
<g style="fill:none; 
stroke:#C83434; stroke-width:0.5000; stroke-opacity:1; 
stroke-linecap:round; stroke-linejoin:round;">
<path d="M110.2350 139.4750
L111.2800 138.4300
" />
</g>
<g style="fill:none; 
stroke:#C83434; stroke-width:2.0000; stroke-opacity:1; 
stroke-linecap:round; stroke-linejoin:round;">
<path d="M108.0000 139.4750
L105.0000 139.4750
" />
<path d="M104.7525 139.4750
L105.0000 139.4750
" />
</g>
<g style="fill:none; 
stroke:#C83434; stroke-width:0.5000; stroke-opacity:1; 
stroke-linecap:round; stroke-linejoin:round;">
<path d="M105.0000 139.4750
L110.2350 139.4750
" />
</g>
<g style="fill:none; 
stroke:#C83434; stroke-width:2.0000; stroke-opacity:1; 
stroke-linecap:round; stroke-linejoin:round;">
<path d="M109.0000 132.0000
L106.3275 132.0000
" />
</g>
<g style="fill:none; 
stroke:#C83434; stroke-width:0.5000; stroke-opacity:1; 
stroke-linecap:round; stroke-linejoin:round;">
<path d="M111.2800 138.4300
L111.2800 137.7675
" />
</g>
<g style="fill:none; 
stroke:#C83434; stroke-width:2.0000; stroke-opacity:1; 
stroke-linecap:round; stroke-linejoin:round;">
<path d="M102.7390 137.4615
L104.7525 139.4750
" />
<path d="M102.7390 135.5885
L102.7390 137.4615
" />
<path d="M106.3275 132.0000
L102.7390 135.5885
" />
<path d="M116.6725 132.0000
L120.2610 135.5885
" />
<path d="M120.2610 138.1140
L118.9000 139.4750
" />
</g>
<g style="fill:none; 
stroke:#C83434; stroke-width:0.5000; stroke-opacity:1; 
stroke-linecap:round; stroke-linejoin:round;">
<path d="M118.0000 139.4750
L113.9375 139.4750
" />
</g>
<g style="fill:none; 
stroke:#C83434; stroke-width:2.0000; stroke-opacity:1; 
stroke-linecap:round; stroke-linejoin:round;">
<path d="M120.2610 135.5885
L120.2610 138.1140
" />
<path d="M115.0000 139.4750
L118.0000 139.4750
" />
<path d="M118.9000 139.4750
L118.0000 139.4750
" />
<path d="M114.0800 132.0000
L116.6725 132.0000
" />
</g>
<g style="fill:none; 
stroke:#C83434; stroke-width:0.5000; stroke-opacity:1; 
stroke-linecap:round; stroke-linejoin:round;">
<path d="M113.9375 139.4750
L112.2300 137.7675
" />
<path style="fill:#C83434; fill-opacity:1.0000; stroke:none;fill-rule:evenodd;"
d="M 119.0035,130.2007
119.3065,130.2177
119.3203,130.2193
119.6161,130.2695
119.6296,130.2726
119.9179,130.3557
119.9311,130.3603
120.2082,130.4751
120.2207,130.4811
120.3209,130.5364
120.4833,130.6262
120.4951,130.6336
120.5265,130.6559
120.7398,130.8072
120.7507,130.8159
120.9744,131.0158
120.9842,131.0256
121.1841,131.2493
121.1928,131.2602
121.3664,131.5049
121.3738,131.5167
121.5189,131.7792
121.5249,131.7918
121.6397,132.0689
121.6443,132.0821
121.7274,132.3704
121.7305,132.3839
121.7807,132.6797
121.7823,132.6935
121.7993,132.9965
121.7995,133.0035
121.7995,134.7863
121.7984,134.7899
121.7993,134.7936
121.7887,134.8232
121.7798,134.8533
121.7770,134.8558
121.7757,134.8594
121.7508,134.8785
121.7270,134.8991
121.7233,134.8996
121.7203,134.9019
121.6890,134.9046
121.6579,134.9090
121.6544,134.9075
121.6506,134.9078
121.6229,134.8931
121.5943,134.8800
121.5913,134.8763
121.5889,134.8751
121.5765,134.8583
121.5674,134.8471
121.5662,134.8449
121.5443,134.8020
121.5443,134.8020
121.4055,134.6110
117.6500,130.8555
117.4590,130.7167
117.4385,130.7062
117.2485,130.6094
117.0239,130.5364
116.7906,130.4995
116.7906,130.4995
113.9619,130.4995
113.9619,130.4995
113.7286,130.5364
113.5040,130.6094
113.2936,130.7167
113.1892,130.7925
113.1025,130.8555
113.1025,130.8555
113.1025,130.8555
112.9355,131.0225
112.9355,131.0225
112.9355,131.0225
112.8776,131.1021
112.7967,131.2136
112.6894,131.4240
112.6164,131.6486
112.5795,131.8819
112.5795,132.1181
112.6164,132.3514
112.6894,132.5760
112.7493,132.6935
112.7967,132.7864
112.9355,132.9775
113.1025,133.1445
113.2936,133.2833
113.3930,133.3340
113.5040,133.3906
113.5040,133.3906
113.5040,133.3906
113.6244,133.4297
113.7286,133.4636
113.9619,133.5005
113.9619,133.5005
115.9996,133.5005
116.0667,133.5202
116.0873,133.5368
118.7242,136.1737
118.7577,136.2350
118.7605,136.2614
118.7605,137.4411
118.7408,137.5082
118.7242,137.5288
118.3148,137.9382
118.2535,137.9717
118.2271,137.9745
114.8819,137.9745
114.6486,138.0114
114.4240,138.0844
114.2136,138.1917
114.0225,138.3305
114.0190,138.3335
113.9552,138.3621
113.8861,138.3516
113.8508,138.3269
113.0668,137.5430
113.0333,137.4816
113.0305,137.4553
113.0305,137.1893
113.0305,137.1893
113.0276,137.1524
113.0276,137.1524
112.9817,136.9946
112.9817,136.9946
112.9817,136.9946
112.8981,136.8531
112.8981,136.8531
112.8981,136.8531
112.7819,136.7369
112.7819,136.7369
112.7819,136.7369
112.7815,136.7367
112.7814,136.7365
112.7757,136.7321
112.7764,136.7312
112.7339,136.6857
112.7214,136.6169
112.7480,136.5523
112.7759,136.5281
112.7757,136.5279
112.7809,136.5238
112.7815,136.5233
112.7819,136.5231
112.8981,136.4069
112.9817,136.2654
113.0276,136.1076
113.0305,136.0707
113.0305,134.9143
113.0276,134.8774
113.0224,134.8594
112.9817,134.7196
112.9817,134.7196
112.9817,134.7196
112.8981,134.5781
112.8981,134.5781
112.8981,134.5781
112.7819,134.4619
112.7819,134.4619
112.6404,134.3783
112.6404,134.3783
112.4826,134.3324
112.4826,134.3324
112.4457,134.3295
112.4457,134.3295
112.0143,134.3295
112.0143,134.3295
111.9774,134.3324
111.9774,134.3324
111.8196,134.3783
111.8196,134.3783
111.6781,134.4619
111.6781,134.4619
111.5619,134.5781
111.5619,134.5781
111.4783,134.7196
111.4783,134.7196
111.4324,134.8774
111.4324,134.8774
111.4295,134.9143
111.4295,136.0707
111.4324,136.1076
111.4324,136.1076
111.4783,136.2654
111.4783,136.2654
111.5659,136.4136
111.5641,136.4147
111.5856,136.4695
111.5719,136.5380
111.5234,136.5883
111.4621,136.6045
111.0979,136.6045
111.0309,136.5848
110.9851,136.5320
110.9752,136.4629
110.9957,136.4145
110.9941,136.4136
111.0080,136.3900
111.0817,136.2654
111.1276,136.1076
111.1305,136.0707
111.1305,134.9143
111.1276,134.8774
111.1224,134.8594
111.0817,134.7196
111.0817,134.7196
111.0817,134.7196
110.9981,134.5781
110.9981,134.5781
110.9981,134.5781
110.8819,134.4619
110.8819,134.4619
110.7404,134.3783
110.7404,134.3783
110.5826,134.3324
110.5826,134.3324
110.5457,134.3295
110.5457,134.3295
110.1143,134.3295
110.1143,134.3295
110.0774,134.3324
110.0774,134.3324
109.9196,134.3783
109.9196,134.3783
109.7781,134.4619
109.7781,134.4619
109.6619,134.5781
109.6619,134.5781
109.5783,134.7196
109.5783,134.7196
109.5324,134.8774
109.5324,134.8774
109.5295,134.9143
109.5295,136.0707
109.5324,136.1076
109.5324,136.1076
109.5783,136.2654
109.5783,136.2654
109.6619,136.4069
109.6619,136.4069
109.7781,136.5231
109.7781,136.5231
109.7781,136.5231
109.9196,136.6067
109.9219,136.6074
110.0774,136.6526
110.0774,136.6526
110.0774,136.6526
110.1143,136.6555
110.1143,136.6555
110.5121,136.6555
110.5791,136.6752
110.6249,136.7280
110.6348,136.7971
110.6143,136.8455
110.6159,136.8464
110.5283,136.9946
110.5283,136.9946
110.4824,137.1524
110.4824,137.1524
110.4795,137.1893
110.4795,138.1178
110.4598,138.1848
110.4432,138.2054
109.9604,138.6882
109.8991,138.7217
109.8728,138.7245
109.3726,138.7245
109.3056,138.7048
109.2723,138.6734
109.2307,138.6161
109.1445,138.4975
108.9775,138.3305
108.7864,138.1917
108.7503,138.1733
108.5760,138.0844
108.3514,138.0114
108.1181,137.9745
108.1181,137.9745
105.4254,137.9745
105.3583,137.9548
105.3377,137.9382
104.2758,136.8763
104.2423,136.8150
104.2395,136.7886
104.2395,136.2614
104.2592,136.1943
104.2758,136.1737
106.9127,133.5368
106.9740,133.5033
107.0004,133.5005
109.1181,133.5005
109.3514,133.4636
109.5760,133.3906
109.6281,133.3640
109.6844,133.3505
109.8979,133.3505
109.8979,133.3505
109.9575,133.3441
110.0923,133.2938
110.2075,133.2075
110.2938,133.0923
110.3441,132.9575
110.3505,132.8979
110.3505,132.6844
110.3640,132.6281
110.3906,132.5760
110.4636,132.3514
110.5005,132.1181
110.5005,131.8819
110.4636,131.6486
110.4187,131.5106
110.3906,131.4240
110.3906,131.4240
110.3906,131.4240
110.3640,131.3719
110.3505,131.3156
110.3505,131.1021
110.3505,131.1021
110.3441,131.0425
110.2938,130.9077
110.2938,130.9077
110.2075,130.7925
110.2075,130.7925
110.0923,130.7062
110.0923,130.7062
109.9575,130.6559
109.9575,130.6559
109.8979,130.6495
109.8979,130.6495
109.8979,130.6495
109.8979,130.6495
109.6844,130.6495
109.6281,130.6360
109.6235,130.6336
109.6156,130.6296
109.5760,130.6094
109.3514,130.5364
109.1181,130.4995
109.1181,130.4995
106.4456,130.4995
106.2094,130.4995
106.2094,130.4995
105.9761,130.5364
105.7515,130.6094
105.5410,130.7167
105.3500,130.8555
105.3500,130.8555
101.5945,134.6109
101.5945,134.6110
101.4557,134.8020
101.4350,134.8426
101.3870,134.8934
101.3192,134.9102
101.2531,134.8877
101.2096,134.8329
101.2005,134.7863
101.2005,133.0035
101.2007,132.9965
101.2027,132.9601
101.2177,132.6935
101.2193,132.6797
101.2695,132.3839
101.2726,132.3704
101.2781,132.3514
101.3557,132.0821
101.3603,132.0689
101.4377,131.8819
101.4751,131.7918
101.4811,131.7793
101.6262,131.5167
101.6336,131.5049
101.6910,131.4240
101.8072,131.2602
101.8159,131.2494
102.0158,131.0256
102.0256,131.0158
102.2494,130.8159
102.2602,130.8072
102.5049,130.6336
102.5167,130.6262
102.7793,130.4811
102.7918,130.4751
103.0689,130.3603
103.0821,130.3557
103.3704,130.2726
103.3839,130.2695
103.6797,130.2193
103.6935,130.2177
103.9965,130.2007
104.0035,130.2005
104.0399,130.2005
118.9601,130.2005
118.9965,130.2005
Z" /> 
<path style="fill:#D864FF; fill-opacity:0.4000; stroke:none;fill-rule:evenodd;"
d="M 110.1800,138.4300
110.1226,138.4186
110.0739,138.3861
110.0414,138.3374
110.0300,138.2800
110.0300,137.2550
110.0414,137.1976
110.0739,137.1489
110.1226,137.1164
110.1800,137.1050
110.4800,137.1050
110.5374,137.1164
110.5861,137.1489
110.6186,137.1976
110.6300,137.2550
110.6300,138.2800
110.6186,138.3374
110.5861,138.3861
110.5374,138.4186
110.4800,138.4300
Z" /> 
<path style="fill:#D864FF; fill-opacity:0.4000; stroke:none;fill-rule:evenodd;"
d="M 111.1300,138.4300
111.0726,138.4186
111.0239,138.3861
110.9914,138.3374
110.9800,138.2800
110.9800,137.2550
110.9914,137.1976
111.0239,137.1489
111.0726,137.1164
111.1300,137.1050
111.4300,137.1050
111.4874,137.1164
111.5361,137.1489
111.5686,137.1976
111.5800,137.2550
111.5800,138.2800
111.5686,138.3374
111.5361,138.3861
111.4874,138.4186
111.4300,138.4300
Z" /> 
<path style="fill:#D864FF; fill-opacity:0.4000; stroke:none;fill-rule:evenodd;"
d="M 112.0800,138.4300
112.0226,138.4186
111.9739,138.3861
111.9414,138.3374
111.9300,138.2800
111.9300,137.2550
111.9414,137.1976
111.9739,137.1489
112.0226,137.1164
112.0800,137.1050
112.3800,137.1050
112.4374,137.1164
112.4861,137.1489
112.5186,137.1976
112.5300,137.2550
112.5300,138.2800
112.5186,138.3374
112.4861,138.3861
112.4374,138.4186
112.3800,138.4300
Z" /> 
<path style="fill:#D864FF; fill-opacity:0.4000; stroke:none;fill-rule:evenodd;"
d="M 112.0800,136.1550
112.0226,136.1436
111.9739,136.1111
111.9414,136.0624
111.9300,136.0050
111.9300,134.9800
111.9414,134.9226
111.9739,134.8739
112.0226,134.8414
112.0800,134.8300
112.3800,134.8300
112.4374,134.8414
112.4861,134.8739
112.5186,134.9226
112.5300,134.9800
112.5300,136.0050
112.5186,136.0624
112.4861,136.1111
112.4374,136.1436
112.3800,136.1550
Z" /> 
<path style="fill:#D864FF; fill-opacity:0.4000; stroke:none;fill-rule:evenodd;"
d="M 110.1800,136.1550
110.1226,136.1436
110.0739,136.1111
110.0414,136.0624
110.0300,136.0050
110.0300,134.9800
110.0414,134.9226
110.0739,134.8739
110.1226,134.8414
110.1800,134.8300
110.4800,134.8300
110.5374,134.8414
110.5861,134.8739
110.6186,134.9226
110.6300,134.9800
110.6300,136.0050
110.6186,136.0624
110.5861,136.1111
110.5374,136.1436
110.4800,136.1550
Z" /> 
<path style="fill:#D864FF; fill-opacity:0.4000; stroke:none;fill-rule:evenodd;"
d="M 104.3500,140.0500
104.2543,140.0310
104.1732,139.9768
104.1190,139.8957
104.1000,139.8000
104.1000,139.1500
104.1190,139.0543
104.1732,138.9732
104.2543,138.9190
104.3500,138.9000
105.6500,138.9000
105.7457,138.9190
105.8268,138.9732
105.8810,139.0543
105.9000,139.1500
105.9000,139.8000
105.8810,139.8957
105.8268,139.9768
105.7457,140.0310
105.6500,140.0500
Z" /> 
<path style="fill:#D864FF; fill-opacity:0.4000; stroke:none;fill-rule:evenodd;"
d="M 104.3500,137.1000
104.2543,137.0810
104.1732,137.0268
104.1190,136.9457
104.1000,136.8500
104.1000,136.2000
104.1190,136.1043
104.1732,136.0232
104.2543,135.9690
104.3500,135.9500
105.6500,135.9500
105.7457,135.9690
105.8268,136.0232
105.8810,136.1043
105.9000,136.2000
105.9000,136.8500
105.8810,136.9457
105.8268,137.0268
105.7457,137.0810
105.6500,137.1000
Z" /> 
<path style="fill:#D864FF; fill-opacity:0.4000; stroke:none;fill-rule:evenodd;"
d="M 107.3500,140.0500
107.2543,140.0310
107.1732,139.9768
107.1190,139.8957
107.1000,139.8000
107.1000,139.1500
107.1190,139.0543
107.1732,138.9732
107.2543,138.9190
107.3500,138.9000
108.6500,138.9000
108.7457,138.9190
108.8268,138.9732
108.8810,139.0543
108.9000,139.1500
108.9000,139.8000
108.8810,139.8957
108.8268,139.9768
108.7457,140.0310
108.6500,140.0500
Z" /> 
<path style="fill:#D864FF; fill-opacity:0.4000; stroke:none;fill-rule:evenodd;"
d="M 107.3500,137.1000
107.2543,137.0810
107.1732,137.0268
107.1190,136.9457
107.1000,136.8500
107.1000,136.2000
107.1190,136.1043
107.1732,136.0232
107.2543,135.9690
107.3500,135.9500
108.6500,135.9500
108.7457,135.9690
108.8268,136.0232
108.8810,136.1043
108.9000,136.2000
108.9000,136.8500
108.8810,136.9457
108.8268,137.0268
108.7457,137.0810
108.6500,137.1000
Z" /> 
<path style="fill:#D864FF; fill-opacity:0.4000; stroke:none;fill-rule:evenodd;"
d="M 114.3500,140.0500
114.2543,140.0310
114.1732,139.9768
114.1190,139.8957
114.1000,139.8000
114.1000,139.1500
114.1190,139.0543
114.1732,138.9732
114.2543,138.9190
114.3500,138.9000
115.6500,138.9000
115.7457,138.9190
115.8268,138.9732
115.8810,139.0543
115.9000,139.1500
115.9000,139.8000
115.8810,139.8957
115.8268,139.9768
115.7457,140.0310
115.6500,140.0500
Z" /> 
<path style="fill:#D864FF; fill-opacity:0.4000; stroke:none;fill-rule:evenodd;"
d="M 114.3500,137.1000
114.2543,137.0810
114.1732,137.0268
114.1190,136.9457
114.1000,136.8500
114.1000,136.2000
114.1190,136.1043
114.1732,136.0232
114.2543,135.9690
114.3500,135.9500
115.6500,135.9500
115.7457,135.9690
115.8268,136.0232
115.8810,136.1043
115.9000,136.2000
115.9000,136.8500
115.8810,136.9457
115.8268,137.0268
115.7457,137.0810
115.6500,137.1000
Z" /> 
<path style="fill:#D864FF; fill-opacity:0.4000; stroke:none;fill-rule:evenodd;"
d="M 117.3500,140.0500
117.2543,140.0310
117.1732,139.9768
117.1190,139.8957
117.1000,139.8000
117.1000,139.1500
117.1190,139.0543
117.1732,138.9732
117.2543,138.9190
117.3500,138.9000
118.6500,138.9000
118.7457,138.9190
118.8268,138.9732
118.8810,139.0543
118.9000,139.1500
118.9000,139.8000
118.8810,139.8957
118.8268,139.9768
118.7457,140.0310
118.6500,140.0500
Z" /> 
<path style="fill:#D864FF; fill-opacity:0.4000; stroke:none;fill-rule:evenodd;"
d="M 117.3500,137.1000
117.2543,137.0810
117.1732,137.0268
117.1190,136.9457
117.1000,136.8500
117.1000,136.2000
117.1190,136.1043
117.1732,136.0232
117.2543,135.9690
117.3500,135.9500
118.6500,135.9500
118.7457,135.9690
118.8268,136.0232
118.8810,136.1043
118.9000,136.2000
118.9000,136.8500
118.8810,136.9457
118.8268,137.0268
118.7457,137.0810
118.6500,137.1000
Z" /> 
<path style="fill:#D864FF; fill-opacity:0.4000; stroke:none;fill-rule:evenodd;"
d="M 108.1500,131.1500
109.8500,131.1500
109.8500,132.8500
108.1500,132.8500
Z" /> 
</g>
<g style="fill:#D864FF; fill-opacity:0.4000; stroke:none;">
<circle cx="111.5400" cy="132.0000" r="0.8500" /> 
<circle cx="114.0800" cy="132.0000" r="0.8500" /> 
<path style="fill:#B4A09A; fill-opacity:0.9020; stroke:none;fill-rule:evenodd;"
d="M 110.1800,138.4300
110.1226,138.4186
110.0739,138.3861
110.0414,138.3374
110.0300,138.2800
110.0300,137.2550
110.0414,137.1976
110.0739,137.1489
110.1226,137.1164
110.1800,137.1050
110.4800,137.1050
110.5374,137.1164
110.5861,137.1489
110.6186,137.1976
110.6300,137.2550
110.6300,138.2800
110.6186,138.3374
110.5861,138.3861
110.5374,138.4186
110.4800,138.4300
Z" /> 
<path style="fill:#B4A09A; fill-opacity:0.9020; stroke:none;fill-rule:evenodd;"
d="M 111.1300,138.4300
111.0726,138.4186
111.0239,138.3861
110.9914,138.3374
110.9800,138.2800
110.9800,137.2550
110.9914,137.1976
111.0239,137.1489
111.0726,137.1164
111.1300,137.1050
111.4300,137.1050
111.4874,137.1164
111.5361,137.1489
111.5686,137.1976
111.5800,137.2550
111.5800,138.2800
111.5686,138.3374
111.5361,138.3861
111.4874,138.4186
111.4300,138.4300
Z" /> 
<path style="fill:#B4A09A; fill-opacity:0.9020; stroke:none;fill-rule:evenodd;"
d="M 112.0800,138.4300
112.0226,138.4186
111.9739,138.3861
111.9414,138.3374
111.9300,138.2800
111.9300,137.2550
111.9414,137.1976
111.9739,137.1489
112.0226,137.1164
112.0800,137.1050
112.3800,137.1050
112.4374,137.1164
112.4861,137.1489
112.5186,137.1976
112.5300,137.2550
112.5300,138.2800
112.5186,138.3374
112.4861,138.3861
112.4374,138.4186
112.3800,138.4300
Z" /> 
<path style="fill:#B4A09A; fill-opacity:0.9020; stroke:none;fill-rule:evenodd;"
d="M 112.0800,136.1550
112.0226,136.1436
111.9739,136.1111
111.9414,136.0624
111.9300,136.0050
111.9300,134.9800
111.9414,134.9226
111.9739,134.8739
112.0226,134.8414
112.0800,134.8300
112.3800,134.8300
112.4374,134.8414
112.4861,134.8739
112.5186,134.9226
112.5300,134.9800
112.5300,136.0050
112.5186,136.0624
112.4861,136.1111
112.4374,136.1436
112.3800,136.1550
Z" /> 
<path style="fill:#B4A09A; fill-opacity:0.9020; stroke:none;fill-rule:evenodd;"
d="M 110.1800,136.1550
110.1226,136.1436
110.0739,136.1111
110.0414,136.0624
110.0300,136.0050
110.0300,134.9800
110.0414,134.9226
110.0739,134.8739
110.1226,134.8414
110.1800,134.8300
110.4800,134.8300
110.5374,134.8414
110.5861,134.8739
110.6186,134.9226
110.6300,134.9800
110.6300,136.0050
110.6186,136.0624
110.5861,136.1111
110.5374,136.1436
110.4800,136.1550
Z" /> 
<path style="fill:#B4A09A; fill-opacity:0.9020; stroke:none;fill-rule:evenodd;"
d="M 104.3500,140.0500
104.2543,140.0310
104.1732,139.9768
104.1190,139.8957
104.1000,139.8000
104.1000,139.1500
104.1190,139.0543
104.1732,138.9732
104.2543,138.9190
104.3500,138.9000
105.6500,138.9000
105.7457,138.9190
105.8268,138.9732
105.8810,139.0543
105.9000,139.1500
105.9000,139.8000
105.8810,139.8957
105.8268,139.9768
105.7457,140.0310
105.6500,140.0500
Z" /> 
<path style="fill:#B4A09A; fill-opacity:0.9020; stroke:none;fill-rule:evenodd;"
d="M 104.3500,137.1000
104.2543,137.0810
104.1732,137.0268
104.1190,136.9457
104.1000,136.8500
104.1000,136.2000
104.1190,136.1043
104.1732,136.0232
104.2543,135.9690
104.3500,135.9500
105.6500,135.9500
105.7457,135.9690
105.8268,136.0232
105.8810,136.1043
105.9000,136.2000
105.9000,136.8500
105.8810,136.9457
105.8268,137.0268
105.7457,137.0810
105.6500,137.1000
Z" /> 
<path style="fill:#B4A09A; fill-opacity:0.9020; stroke:none;fill-rule:evenodd;"
d="M 107.3500,140.0500
107.2543,140.0310
107.1732,139.9768
107.1190,139.8957
107.1000,139.8000
107.1000,139.1500
107.1190,139.0543
107.1732,138.9732
107.2543,138.9190
107.3500,138.9000
108.6500,138.9000
108.7457,138.9190
108.8268,138.9732
108.8810,139.0543
108.9000,139.1500
108.9000,139.8000
108.8810,139.8957
108.8268,139.9768
108.7457,140.0310
108.6500,140.0500
Z" /> 
<path style="fill:#B4A09A; fill-opacity:0.9020; stroke:none;fill-rule:evenodd;"
d="M 107.3500,137.1000
107.2543,137.0810
107.1732,137.0268
107.1190,136.9457
107.1000,136.8500
107.1000,136.2000
107.1190,136.1043
107.1732,136.0232
107.2543,135.9690
107.3500,135.9500
108.6500,135.9500
108.7457,135.9690
108.8268,136.0232
108.8810,136.1043
108.9000,136.2000
108.9000,136.8500
108.8810,136.9457
108.8268,137.0268
108.7457,137.0810
108.6500,137.1000
Z" /> 
<path style="fill:#B4A09A; fill-opacity:0.9020; stroke:none;fill-rule:evenodd;"
d="M 114.3500,140.0500
114.2543,140.0310
114.1732,139.9768
114.1190,139.8957
114.1000,139.8000
114.1000,139.1500
114.1190,139.0543
114.1732,138.9732
114.2543,138.9190
114.3500,138.9000
115.6500,138.9000
115.7457,138.9190
115.8268,138.9732
115.8810,139.0543
115.9000,139.1500
115.9000,139.8000
115.8810,139.8957
115.8268,139.9768
115.7457,140.0310
115.6500,140.0500
Z" /> 
<path style="fill:#B4A09A; fill-opacity:0.9020; stroke:none;fill-rule:evenodd;"
d="M 114.3500,137.1000
114.2543,137.0810
114.1732,137.0268
114.1190,136.9457
114.1000,136.8500
114.1000,136.2000
114.1190,136.1043
114.1732,136.0232
114.2543,135.9690
114.3500,135.9500
115.6500,135.9500
115.7457,135.9690
115.8268,136.0232
115.8810,136.1043
115.9000,136.2000
115.9000,136.8500
115.8810,136.9457
115.8268,137.0268
115.7457,137.0810
115.6500,137.1000
Z" /> 
<path style="fill:#B4A09A; fill-opacity:0.9020; stroke:none;fill-rule:evenodd;"
d="M 117.3500,140.0500
117.2543,140.0310
117.1732,139.9768
117.1190,139.8957
117.1000,139.8000
117.1000,139.1500
117.1190,139.0543
117.1732,138.9732
117.2543,138.9190
117.3500,138.9000
118.6500,138.9000
118.7457,138.9190
118.8268,138.9732
118.8810,139.0543
118.9000,139.1500
118.9000,139.8000
118.8810,139.8957
118.8268,139.9768
118.7457,140.0310
118.6500,140.0500
Z" /> 
<path style="fill:#B4A09A; fill-opacity:0.9020; stroke:none;fill-rule:evenodd;"
d="M 117.3500,137.1000
117.2543,137.0810
117.1732,137.0268
117.1190,136.9457
117.1000,136.8500
117.1000,136.2000
117.1190,136.1043
117.1732,136.0232
117.2543,135.9690
117.3500,135.9500
118.6500,135.9500
118.7457,135.9690
118.8268,136.0232
118.8810,136.1043
118.9000,136.2000
118.9000,136.8500
118.8810,136.9457
118.8268,137.0268
118.7457,137.0810
118.6500,137.1000
Z" /> 
</g>
<g style="fill:none; 
stroke:#F2EDA1; stroke-width:0.1200; stroke-opacity:1; 
stroke-linecap:round; stroke-linejoin:round;">
<text x="112.9000" y="134.3300"
textLength="1.4867" font-size="0.9333" lengthAdjust="spacingAndGlyphs"
text-anchor="start" opacity="0" stroke-opacity="0">5V</text>
<g class="stroked-text"><desc>5V</desc>
<path d="M113.4789 133.5381
L113.1456 133.5381
" />
<path d="M113.1456 133.5381
L113.1123 133.8714
" />
<path d="M113.1123 133.8714
L113.1456 133.8381
" />
<path d="M113.1456 133.8381
L113.2123 133.8048
" />
<path d="M113.2123 133.8048
L113.3789 133.8048
" />
<path d="M113.3789 133.8048
L113.4456 133.8381
" />
<path d="M113.4456 133.8381
L113.4789 133.8714
" />
<path d="M113.4789 133.8714
L113.5123 133.9381
" />
<path d="M113.5123 133.9381
L113.5123 134.1048
" />
<path d="M113.5123 134.1048
L113.4789 134.1714
" />
<path d="M113.4789 134.1714
L113.4456 134.2048
" />
<path d="M113.4456 134.2048
L113.3789 134.2381
" />
<path d="M113.3789 134.2381
L113.2123 134.2381
" />
<path d="M113.2123 134.2381
L113.1456 134.2048
" />
<path d="M113.1456 134.2048
L113.1123 134.1714
" />
<path d="M113.7123 133.5381
L113.9456 134.2381
" />
<path d="M113.9456 134.2381
L114.1789 133.5381
" />
</g><text x="110.3600" y="134.3300"
textLength="2.3533" font-size="0.9333" lengthAdjust="spacingAndGlyphs"
text-anchor="start" opacity="0" stroke-opacity="0">GND</text>
<g class="stroked-text"><desc>GND</desc>
<path d="M110.9723 133.5714
L110.9056 133.5381
" />
<path d="M110.9056 133.5381
L110.8056 133.5381
" />
<path d="M110.8056 133.5381
L110.7056 133.5714
" />
<path d="M110.7056 133.5714
L110.6389 133.6381
" />
<path d="M110.6389 133.6381
L110.6056 133.7048
" />
<path d="M110.6056 133.7048
L110.5723 133.8381
" />
<path d="M110.5723 133.8381
L110.5723 133.9381
" />
<path d="M110.5723 133.9381
L110.6056 134.0714
" />
<path d="M110.6056 134.0714
L110.6389 134.1381
" />
<path d="M110.6389 134.1381
L110.7056 134.2048
" />
<path d="M110.7056 134.2048
L110.8056 134.2381
" />
<path d="M110.8056 134.2381
L110.8723 134.2381
" />
<path d="M110.8723 134.2381
L110.9723 134.2048
" />
<path d="M110.9723 134.2048
L111.0056 134.1714
" />
<path d="M111.0056 134.1714
L111.0056 133.9381
" />
<path d="M111.0056 133.9381
L110.8723 133.9381
" />
<path d="M111.3056 134.2381
L111.3056 133.5381
" />
<path d="M111.3056 133.5381
L111.7056 134.2381
" />
<path d="M111.7056 134.2381
L111.7056 133.5381
" />
<path d="M112.0389 134.2381
L112.0389 133.5381
" />
<path d="M112.0389 133.5381
L112.2056 133.5381
" />
<path d="M112.2056 133.5381
L112.3056 133.5714
" />
<path d="M112.3056 133.5714
L112.3723 133.6381
" />
<path d="M112.3723 133.6381
L112.4056 133.7048
" />
<path d="M112.4056 133.7048
L112.4389 133.8381
" />
<path d="M112.4389 133.8381
L112.4389 133.9381
" />
<path d="M112.4389 133.9381
L112.4056 134.0714
" />
<path d="M112.4056 134.0714
L112.3723 134.1381
" />
<path d="M112.3723 134.1381
L112.3056 134.2048
" />
<path d="M112.3056 134.2048
L112.2056 134.2381
" />
<path d="M112.2056 134.2381
L112.0389 134.2381
" />
</g><text x="107.8200" y="134.3300"
textLength="2.1533" font-size="0.9333" lengthAdjust="spacingAndGlyphs"
text-anchor="start" opacity="0" stroke-opacity="0">24V</text>
<g class="stroked-text"><desc>24V</desc>
<path d="M108.0323 133.6048
L108.0656 133.5714
" />
<path d="M108.0656 133.5714
L108.1323 133.5381
" />
<path d="M108.1323 133.5381
L108.2989 133.5381
" />
<path d="M108.2989 133.5381
L108.3656 133.5714
" />
<path d="M108.3656 133.5714
L108.3989 133.6048
" />
<path d="M108.3989 133.6048
L108.4323 133.6714
" />
<path d="M108.4323 133.6714
L108.4323 133.7381
" />
<path d="M108.4323 133.7381
L108.3989 133.8381
" />
<path d="M108.3989 133.8381
L107.9989 134.2381
" />
<path d="M107.9989 134.2381
L108.4323 134.2381
" />
<path d="M109.0323 133.7714
L109.0323 134.2381
" />
<path d="M108.8656 133.5048
L108.6989 134.0048
" />
<path d="M108.6989 134.0048
L109.1323 134.0048
" />
<path d="M109.2989 133.5381
L109.5323 134.2381
" />
<path d="M109.5323 134.2381
L109.7656 133.5381
" />
</g><text x="116.8800" y="133.4500"
textLength="3.7533" font-size="0.9333" lengthAdjust="spacingAndGlyphs"
text-anchor="start" opacity="0" stroke-opacity="0">150mA</text>
<g class="stroked-text"><desc>150mA</desc>
<path d="M117.4923 133.3581
L117.0923 133.3581
" />
<path d="M117.2923 133.3581
L117.2923 132.6581
" />
<path d="M117.2923 132.6581
L117.2256 132.7581
" />
<path d="M117.2256 132.7581
L117.1589 132.8248
" />
<path d="M117.1589 132.8248
L117.0923 132.8581
" />
<path d="M118.1256 132.6581
L117.7923 132.6581
" />
<path d="M117.7923 132.6581
L117.7589 132.9914
" />
<path d="M117.7589 132.9914
L117.7923 132.9581
" />
<path d="M117.7923 132.9581
L117.8589 132.9248
" />
<path d="M117.8589 132.9248
L118.0256 132.9248
" />
<path d="M118.0256 132.9248
L118.0923 132.9581
" />
<path d="M118.0923 132.9581
L118.1256 132.9914
" />
<path d="M118.1256 132.9914
L118.1589 133.0581
" />
<path d="M118.1589 133.0581
L118.1589 133.2248
" />
<path d="M118.1589 133.2248
L118.1256 133.2914
" />
<path d="M118.1256 133.2914
L118.0923 133.3248
" />
<path d="M118.0923 133.3248
L118.0256 133.3581
" />
<path d="M118.0256 133.3581
L117.8589 133.3581
" />
<path d="M117.8589 133.3581
L117.7923 133.3248
" />
<path d="M117.7923 133.3248
L117.7589 133.2914
" />
<path d="M118.5923 132.6581
L118.6589 132.6581
" />
<path d="M118.6589 132.6581
L118.7256 132.6914
" />
<path d="M118.7256 132.6914
L118.7589 132.7248
" />
<path d="M118.7589 132.7248
L118.7923 132.7914
" />
<path d="M118.7923 132.7914
L118.8256 132.9248
" />
<path d="M118.8256 132.9248
L118.8256 133.0914
" />
<path d="M118.8256 133.0914
L118.7923 133.2248
" />
<path d="M118.7923 133.2248
L118.7589 133.2914
" />
<path d="M118.7589 133.2914
L118.7256 133.3248
" />
<path d="M118.7256 133.3248
L118.6589 133.3581
" />
<path d="M118.6589 133.3581
L118.5923 133.3581
" />
<path d="M118.5923 133.3581
L118.5256 133.3248
" />
<path d="M118.5256 133.3248
L118.4923 133.2914
" />
<path d="M118.4923 133.2914
L118.4589 133.2248
" />
<path d="M118.4589 133.2248
L118.4256 133.0914
" />
<path d="M118.4256 133.0914
L118.4256 132.9248
" />
<path d="M118.4256 132.9248
L118.4589 132.7914
" />
<path d="M118.4589 132.7914
L118.4923 132.7248
" />
<path d="M118.4923 132.7248
L118.5256 132.6914
" />
<path d="M118.5256 132.6914
L118.5923 132.6581
" />
<path d="M119.1256 133.3581
L119.1256 132.8914
" />
<path d="M119.1256 132.9581
L119.1589 132.9248
" />
<path d="M119.1589 132.9248
L119.2256 132.8914
" />
<path d="M119.2256 132.8914
L119.3256 132.8914
" />
<path d="M119.3256 132.8914
L119.3923 132.9248
" />
<path d="M119.3923 132.9248
L119.4256 132.9914
" />
<path d="M119.4256 132.9914
L119.4256 133.3581
" />
<path d="M119.4256 132.9914
L119.4589 132.9248
" />
<path d="M119.4589 132.9248
L119.5256 132.8914
" />
<path d="M119.5256 132.8914
L119.6256 132.8914
" />
<path d="M119.6256 132.8914
L119.6923 132.9248
" />
<path d="M119.6923 132.9248
L119.7256 132.9914
" />
<path d="M119.7256 132.9914
L119.7256 133.3581
" />
<path d="M120.0256 133.1581
L120.3589 133.1581
" />
<path d="M119.9589 133.3581
L120.1923 132.6581
" />
<path d="M120.1923 132.6581
L120.4256 133.3581
" />
</g><text x="111.2800" y="139.4600"
textLength="1.6200" font-size="0.9333" lengthAdjust="spacingAndGlyphs"
text-anchor="middle" opacity="0" stroke-opacity="0">U1</text>
<g class="stroked-text"><desc>U1</desc>
<path d="M110.7467 138.7276
L110.7467 139.2943
" />
<path d="M110.7467 139.2943
L110.7800 139.3609
" />
<path d="M110.7800 139.3609
L110.8133 139.3943
" />
<path d="M110.8133 139.3943
L110.8800 139.4276
" />
<path d="M110.8800 139.4276
L111.0133 139.4276
" />
<path d="M111.0133 139.4276
L111.0800 139.3943
" />
<path d="M111.0800 139.3943
L111.1133 139.3609
" />
<path d="M111.1133 139.3609
L111.1467 139.2943
" />
<path d="M111.1467 139.2943
L111.1467 138.7276
" />
<path d="M111.8467 139.4276
L111.4467 139.4276
" />
<path d="M111.6467 139.4276
L111.6467 138.7276
" />
<path d="M111.6467 138.7276
L111.5800 138.8276
" />
<path d="M111.5800 138.8276
L111.5133 138.8943
" />
<path d="M111.5133 138.8943
L111.4467 138.9276
" />
</g><text x="104.4600" y="134.2700"
textLength="6.8686" font-size="0.8000" lengthAdjust="spacingAndGlyphs"
text-anchor="middle" opacity="0" stroke-opacity="0">TLV70450DBVR</text>
<g class="stroked-text"><desc>TLV70450DBVR</desc>
<path d="M101.2029 133.6413
L101.5457 133.6413
" />
<path d="M101.3743 134.2413
L101.3743 133.6413
" />
<path d="M102.0314 134.2413
L101.7457 134.2413
" />
<path d="M101.7457 134.2413
L101.7457 133.6413
" />
<path d="M102.1457 133.6413
L102.3457 134.2413
" />
<path d="M102.3457 134.2413
L102.5457 133.6413
" />
<path d="M102.6886 133.6413
L103.0886 133.6413
" />
<path d="M103.0886 133.6413
L102.8314 134.2413
" />
<path d="M103.4314 133.6413
L103.4886 133.6413
" />
<path d="M103.4886 133.6413
L103.5457 133.6699
" />
<path d="M103.5457 133.6699
L103.5743 133.6985
" />
<path d="M103.5743 133.6985
L103.6029 133.7556
" />
<path d="M103.6029 133.7556
L103.6314 133.8699
" />
<path d="M103.6314 133.8699
L103.6314 134.0128
" />
<path d="M103.6314 134.0128
L103.6029 134.1270
" />
<path d="M103.6029 134.1270
L103.5743 134.1842
" />
<path d="M103.5743 134.1842
L103.5457 134.2128
" />
<path d="M103.5457 134.2128
L103.4886 134.2413
" />
<path d="M103.4886 134.2413
L103.4314 134.2413
" />
<path d="M103.4314 134.2413
L103.3743 134.2128
" />
<path d="M103.3743 134.2128
L103.3457 134.1842
" />
<path d="M103.3457 134.1842
L103.3171 134.1270
" />
<path d="M103.3171 134.1270
L103.2886 134.0128
" />
<path d="M103.2886 134.0128
L103.2886 133.8699
" />
<path d="M103.2886 133.8699
L103.3171 133.7556
" />
<path d="M103.3171 133.7556
L103.3457 133.6985
" />
<path d="M103.3457 133.6985
L103.3743 133.6699
" />
<path d="M103.3743 133.6699
L103.4314 133.6413
" />
<path d="M104.1457 133.8413
L104.1457 134.2413
" />
<path d="M104.0029 133.6128
L103.8600 134.0413
" />
<path d="M103.8600 134.0413
L104.2314 134.0413
" />
<path d="M104.7457 133.6413
L104.4600 133.6413
" />
<path d="M104.4600 133.6413
L104.4314 133.9270
" />
<path d="M104.4314 133.9270
L104.4600 133.8985
" />
<path d="M104.4600 133.8985
L104.5171 133.8699
" />
<path d="M104.5171 133.8699
L104.6600 133.8699
" />
<path d="M104.6600 133.8699
L104.7171 133.8985
" />
<path d="M104.7171 133.8985
L104.7457 133.9270
" />
<path d="M104.7457 133.9270
L104.7743 133.9842
" />
<path d="M104.7743 133.9842
L104.7743 134.1270
" />
<path d="M104.7743 134.1270
L104.7457 134.1842
" />
<path d="M104.7457 134.1842
L104.7171 134.2128
" />
<path d="M104.7171 134.2128
L104.6600 134.2413
" />
<path d="M104.6600 134.2413
L104.5171 134.2413
" />
<path d="M104.5171 134.2413
L104.4600 134.2128
" />
<path d="M104.4600 134.2128
L104.4314 134.1842
" />
<path d="M105.1457 133.6413
L105.2029 133.6413
" />
<path d="M105.2029 133.6413
L105.2600 133.6699
" />
<path d="M105.2600 133.6699
L105.2886 133.6985
" />
<path d="M105.2886 133.6985
L105.3171 133.7556
" />
<path d="M105.3171 133.7556
L105.3457 133.8699
" />
<path d="M105.3457 133.8699
L105.3457 134.0128
" />
<path d="M105.3457 134.0128
L105.3171 134.1270
" />
<path d="M105.3171 134.1270
L105.2886 134.1842
" />
<path d="M105.2886 134.1842
L105.2600 134.2128
" />
<path d="M105.2600 134.2128
L105.2029 134.2413
" />
<path d="M105.2029 134.2413
L105.1457 134.2413
" />
<path d="M105.1457 134.2413
L105.0886 134.2128
" />
<path d="M105.0886 134.2128
L105.0600 134.1842
" />
<path d="M105.0600 134.1842
L105.0314 134.1270
" />
<path d="M105.0314 134.1270
L105.0029 134.0128
" />
<path d="M105.0029 134.0128
L105.0029 133.8699
" />
<path d="M105.0029 133.8699
L105.0314 133.7556
" />
<path d="M105.0314 133.7556
L105.0600 133.6985
" />
<path d="M105.0600 133.6985
L105.0886 133.6699
" />
<path d="M105.0886 133.6699
L105.1457 133.6413
" />
<path d="M105.6029 134.2413
L105.6029 133.6413
" />
<path d="M105.6029 133.6413
L105.7457 133.6413
" />
<path d="M105.7457 133.6413
L105.8314 133.6699
" />
<path d="M105.8314 133.6699
L105.8886 133.7270
" />
<path d="M105.8886 133.7270
L105.9171 133.7842
" />
<path d="M105.9171 133.7842
L105.9457 133.8985
" />
<path d="M105.9457 133.8985
L105.9457 133.9842
" />
<path d="M105.9457 133.9842
L105.9171 134.0985
" />
<path d="M105.9171 134.0985
L105.8886 134.1556
" />
<path d="M105.8886 134.1556
L105.8314 134.2128
" />
<path d="M105.8314 134.2128
L105.7457 134.2413
" />
<path d="M105.7457 134.2413
L105.6029 134.2413
" />
<path d="M106.4029 133.9270
L106.4886 133.9556
" />
<path d="M106.4886 133.9556
L106.5171 133.9842
" />
<path d="M106.5171 133.9842
L106.5457 134.0413
" />
<path d="M106.5457 134.0413
L106.5457 134.1270
" />
<path d="M106.5457 134.1270
L106.5171 134.1842
" />
<path d="M106.5171 134.1842
L106.4886 134.2128
" />
<path d="M106.4886 134.2128
L106.4314 134.2413
" />
<path d="M106.4314 134.2413
L106.2029 134.2413
" />
<path d="M106.2029 134.2413
L106.2029 133.6413
" />
<path d="M106.2029 133.6413
L106.4029 133.6413
" />
<path d="M106.4029 133.6413
L106.4600 133.6699
" />
<path d="M106.4600 133.6699
L106.4886 133.6985
" />
<path d="M106.4886 133.6985
L106.5171 133.7556
" />
<path d="M106.5171 133.7556
L106.5171 133.8128
" />
<path d="M106.5171 133.8128
L106.4886 133.8699
" />
<path d="M106.4886 133.8699
L106.4600 133.8985
" />
<path d="M106.4600 133.8985
L106.4029 133.9270
" />
<path d="M106.4029 133.9270
L106.2029 133.9270
" />
<path d="M106.7171 133.6413
L106.9171 134.2413
" />
<path d="M106.9171 134.2413
L107.1171 133.6413
" />
<path d="M107.6600 134.2413
L107.4600 133.9556
" />
<path d="M107.3171 134.2413
L107.3171 133.6413
" />
<path d="M107.3171 133.6413
L107.5457 133.6413
" />
<path d="M107.5457 133.6413
L107.6029 133.6699
" />
<path d="M107.6029 133.6699
L107.6314 133.6985
" />
<path d="M107.6314 133.6985
L107.6600 133.7556
" />
<path d="M107.6600 133.7556
L107.6600 133.8413
" />
<path d="M107.6600 133.8413
L107.6314 133.8985
" />
<path d="M107.6314 133.8985
L107.6029 133.9270
" />
<path d="M107.6029 133.9270
L107.5457 133.9556
" />
<path d="M107.5457 133.9556
L107.3171 133.9556
" />
</g><text x="104.9700" y="135.2300"
textLength="1.5867" font-size="0.9333" lengthAdjust="spacingAndGlyphs"
text-anchor="middle" opacity="0" stroke-opacity="0">C1</text>
<g class="stroked-text"><desc>C1</desc>
<path d="M104.8533 135.1309
L104.8200 135.1643
" />
<path d="M104.8200 135.1643
L104.7200 135.1976
" />
<path d="M104.7200 135.1976
L104.6533 135.1976
" />
<path d="M104.6533 135.1976
L104.5533 135.1643
" />
<path d="M104.5533 135.1643
L104.4867 135.0976
" />
<path d="M104.4867 135.0976
L104.4533 135.0309
" />
<path d="M104.4533 135.0309
L104.4200 134.8976
" />
<path d="M104.4200 134.8976
L104.4200 134.7976
" />
<path d="M104.4200 134.7976
L104.4533 134.6643
" />
<path d="M104.4533 134.6643
L104.4867 134.5976
" />
<path d="M104.4867 134.5976
L104.5533 134.5309
" />
<path d="M104.5533 134.5309
L104.6533 134.4976
" />
<path d="M104.6533 134.4976
L104.7200 134.4976
" />
<path d="M104.7200 134.4976
L104.8200 134.5309
" />
<path d="M104.8200 134.5309
L104.8533 134.5643
" />
<path d="M105.5200 135.1976
L105.1200 135.1976
" />
<path d="M105.3200 135.1976
L105.3200 134.4976
" />
<path d="M105.3200 134.4976
L105.2533 134.5976
" />
<path d="M105.2533 134.5976
L105.1867 134.6643
" />
<path d="M105.1867 134.6643
L105.1200 134.6976
" />
</g><g transform="rotate(-90.000000 102.3300 137.4200)">
<text x="102.3300" y="137.7700"
textLength="2.7867" font-size="0.9333" lengthAdjust="spacingAndGlyphs"
text-anchor="middle" opacity="0" stroke-opacity="0">10uF</text>
</g>
<g class="stroked-text"><desc>10uF</desc>
<path d="M102.6476 138.1700
L102.6476 138.5700
" />
<path d="M102.6476 138.3700
L101.9476 138.3700
" />
<path d="M101.9476 138.3700
L102.0476 138.4367
" />
<path d="M102.0476 138.4367
L102.1143 138.5033
" />
<path d="M102.1143 138.5033
L102.1476 138.5700
" />
<path d="M101.9476 137.7367
L101.9476 137.6700
" />
<path d="M101.9476 137.6700
L101.9809 137.6033
" />
<path d="M101.9809 137.6033
L102.0143 137.5700
" />
<path d="M102.0143 137.5700
L102.0809 137.5367
" />
<path d="M102.0809 137.5367
L102.2143 137.5033
" />
<path d="M102.2143 137.5033
L102.3809 137.5033
" />
<path d="M102.3809 137.5033
L102.5143 137.5367
" />
<path d="M102.5143 137.5367
L102.5809 137.5700
" />
<path d="M102.5809 137.5700
L102.6143 137.6033
" />
<path d="M102.6143 137.6033
L102.6476 137.6700
" />
<path d="M102.6476 137.6700
L102.6476 137.7367
" />
<path d="M102.6476 137.7367
L102.6143 137.8033
" />
<path d="M102.6143 137.8033
L102.5809 137.8367
" />
<path d="M102.5809 137.8367
L102.5143 137.8700
" />
<path d="M102.5143 137.8700
L102.3809 137.9033
" />
<path d="M102.3809 137.9033
L102.2143 137.9033
" />
<path d="M102.2143 137.9033
L102.0809 137.8700
" />
<path d="M102.0809 137.8700
L102.0143 137.8367
" />
<path d="M102.0143 137.8367
L101.9809 137.8033
" />
<path d="M101.9809 137.8033
L101.9476 137.7367
" />
<path d="M102.1809 136.9033
L102.6476 136.9033
" />
<path d="M102.1809 137.2033
L102.5476 137.2033
" />
<path d="M102.5476 137.2033
L102.6143 137.1700
" />
<path d="M102.6143 137.1700
L102.6476 137.1033
" />
<path d="M102.6476 137.1033
L102.6476 137.0033
" />
<path d="M102.6476 137.0033
L102.6143 136.9367
" />
<path d="M102.6143 136.9367
L102.5809 136.9033
" />
<path d="M102.2809 136.3367
L102.2809 136.5700
" />
<path d="M102.6476 136.5700
L101.9476 136.5700
" />
<path d="M101.9476 136.5700
L101.9476 136.2367
" />
</g><text x="106.7500" y="135.3300"
textLength="1.5867" font-size="0.9333" lengthAdjust="spacingAndGlyphs"
text-anchor="middle" opacity="0" stroke-opacity="0">C2</text>
<g class="stroked-text"><desc>C2</desc>
<path d="M106.6333 135.2309
L106.6000 135.2643
" />
<path d="M106.6000 135.2643
L106.5000 135.2976
" />
<path d="M106.5000 135.2976
L106.4333 135.2976
" />
<path d="M106.4333 135.2976
L106.3333 135.2643
" />
<path d="M106.3333 135.2643
L106.2667 135.1976
" />
<path d="M106.2667 135.1976
L106.2333 135.1309
" />
<path d="M106.2333 135.1309
L106.2000 134.9976
" />
<path d="M106.2000 134.9976
L106.2000 134.8976
" />
<path d="M106.2000 134.8976
L106.2333 134.7643
" />
<path d="M106.2333 134.7643
L106.2667 134.6976
" />
<path d="M106.2667 134.6976
L106.3333 134.6309
" />
<path d="M106.3333 134.6309
L106.4333 134.5976
" />
<path d="M106.4333 134.5976
L106.5000 134.5976
" />
<path d="M106.5000 134.5976
L106.6000 134.6309
" />
<path d="M106.6000 134.6309
L106.6333 134.6643
" />
<path d="M106.9000 134.6643
L106.9333 134.6309
" />
<path d="M106.9333 134.6309
L107.0000 134.5976
" />
<path d="M107.0000 134.5976
L107.1667 134.5976
" />
<path d="M107.1667 134.5976
L107.2333 134.6309
" />
<path d="M107.2333 134.6309
L107.2667 134.6643
" />
<path d="M107.2667 134.6643
L107.3000 134.7309
" />
<path d="M107.3000 134.7309
L107.3000 134.7976
" />
<path d="M107.3000 134.7976
L107.2667 134.8976
" />
<path d="M107.2667 134.8976
L106.8667 135.2976
" />
<path d="M106.8667 135.2976
L107.3000 135.2976
" />
</g><g transform="rotate(-90.000000 103.2700 137.4100)">
<text x="103.2700" y="137.7600"
textLength="3.4533" font-size="0.9333" lengthAdjust="spacingAndGlyphs"
text-anchor="middle" opacity="0" stroke-opacity="0">100nF</text>
</g>
<g class="stroked-text"><desc>100nF</desc>
<path d="M103.5876 138.4933
L103.5876 138.8933
" />
<path d="M103.5876 138.6933
L102.8876 138.6933
" />
<path d="M102.8876 138.6933
L102.9876 138.7600
" />
<path d="M102.9876 138.7600
L103.0543 138.8267
" />
<path d="M103.0543 138.8267
L103.0876 138.8933
" />
<path d="M102.8876 138.0600
L102.8876 137.9933
" />
<path d="M102.8876 137.9933
L102.9209 137.9267
" />
<path d="M102.9209 137.9267
L102.9543 137.8933
" />
<path d="M102.9543 137.8933
L103.0209 137.8600
" />
<path d="M103.0209 137.8600
L103.1543 137.8267
" />
<path d="M103.1543 137.8267
L103.3209 137.8267
" />
<path d="M103.3209 137.8267
L103.4543 137.8600
" />
<path d="M103.4543 137.8600
L103.5209 137.8933
" />
<path d="M103.5209 137.8933
L103.5543 137.9267
" />
<path d="M103.5543 137.9267
L103.5876 137.9933
" />
<path d="M103.5876 137.9933
L103.5876 138.0600
" />
<path d="M103.5876 138.0600
L103.5543 138.1267
" />
<path d="M103.5543 138.1267
L103.5209 138.1600
" />
<path d="M103.5209 138.1600
L103.4543 138.1933
" />
<path d="M103.4543 138.1933
L103.3209 138.2267
" />
<path d="M103.3209 138.2267
L103.1543 138.2267
" />
<path d="M103.1543 138.2267
L103.0209 138.1933
" />
<path d="M103.0209 138.1933
L102.9543 138.1600
" />
<path d="M102.9543 138.1600
L102.9209 138.1267
" />
<path d="M102.9209 138.1267
L102.8876 138.0600
" />
<path d="M102.8876 137.3933
L102.8876 137.3267
" />
<path d="M102.8876 137.3267
L102.9209 137.2600
" />
<path d="M102.9209 137.2600
L102.9543 137.2267
" />
<path d="M102.9543 137.2267
L103.0209 137.1933
" />
<path d="M103.0209 137.1933
L103.1543 137.1600
" />
<path d="M103.1543 137.1600
L103.3209 137.1600
" />
<path d="M103.3209 137.1600
L103.4543 137.1933
" />
<path d="M103.4543 137.1933
L103.5209 137.2267
" />
<path d="M103.5209 137.2267
L103.5543 137.2600
" />
<path d="M103.5543 137.2600
L103.5876 137.3267
" />
<path d="M103.5876 137.3267
L103.5876 137.3933
" />
<path d="M103.5876 137.3933
L103.5543 137.4600
" />
<path d="M103.5543 137.4600
L103.5209 137.4933
" />
<path d="M103.5209 137.4933
L103.4543 137.5267
" />
<path d="M103.4543 137.5267
L103.3209 137.5600
" />
<path d="M103.3209 137.5600
L103.1543 137.5600
" />
<path d="M103.1543 137.5600
L103.0209 137.5267
" />
<path d="M103.0209 137.5267
L102.9543 137.4933
" />
<path d="M102.9543 137.4933
L102.9209 137.4600
" />
<path d="M102.9209 137.4600
L102.8876 137.3933
" />
<path d="M103.1209 136.8600
L103.5876 136.8600
" />
<path d="M103.1876 136.8600
L103.1543 136.8267
" />
<path d="M103.1543 136.8267
L103.1209 136.7600
" />
<path d="M103.1209 136.7600
L103.1209 136.6600
" />
<path d="M103.1209 136.6600
L103.1543 136.5933
" />
<path d="M103.1543 136.5933
L103.2209 136.5600
" />
<path d="M103.2209 136.5600
L103.5876 136.5600
" />
<path d="M103.2209 135.9933
L103.2209 136.2267
" />
<path d="M103.5876 136.2267
L102.8876 136.2267
" />
<path d="M102.8876 136.2267
L102.8876 135.8933
" />
</g><text x="116.1900" y="135.2500"
textLength="1.5867" font-size="0.9333" lengthAdjust="spacingAndGlyphs"
text-anchor="middle" opacity="0" stroke-opacity="0">C3</text>
<g class="stroked-text"><desc>C3</desc>
<path d="M116.0733 135.1509
L116.0400 135.1843
" />
<path d="M116.0400 135.1843
L115.9400 135.2176
" />
<path d="M115.9400 135.2176
L115.8733 135.2176
" />
<path d="M115.8733 135.2176
L115.7733 135.1843
" />
<path d="M115.7733 135.1843
L115.7067 135.1176
" />
<path d="M115.7067 135.1176
L115.6733 135.0509
" />
<path d="M115.6733 135.0509
L115.6400 134.9176
" />
<path d="M115.6400 134.9176
L115.6400 134.8176
" />
<path d="M115.6400 134.8176
L115.6733 134.6843
" />
<path d="M115.6733 134.6843
L115.7067 134.6176
" />
<path d="M115.7067 134.6176
L115.7733 134.5509
" />
<path d="M115.7733 134.5509
L115.8733 134.5176
" />
<path d="M115.8733 134.5176
L115.9400 134.5176
" />
<path d="M115.9400 134.5176
L116.0400 134.5509
" />
<path d="M116.0400 134.5509
L116.0733 134.5843
" />
<path d="M116.3067 134.5176
L116.7400 134.5176
" />
<path d="M116.7400 134.5176
L116.5067 134.7843
" />
<path d="M116.5067 134.7843
L116.6067 134.7843
" />
<path d="M116.6067 134.7843
L116.6733 134.8176
" />
<path d="M116.6733 134.8176
L116.7067 134.8509
" />
<path d="M116.7067 134.8509
L116.7400 134.9176
" />
<path d="M116.7400 134.9176
L116.7400 135.0843
" />
<path d="M116.7400 135.0843
L116.7067 135.1509
" />
<path d="M116.7067 135.1509
L116.6733 135.1843
" />
<path d="M116.6733 135.1843
L116.6067 135.2176
" />
<path d="M116.6067 135.2176
L116.4067 135.2176
" />
<path d="M116.4067 135.2176
L116.3400 135.1843
" />
<path d="M116.3400 135.1843
L116.3067 135.1509
" />
</g><g transform="rotate(-90.000000 119.8700 137.9923)">
<text x="119.8700" y="138.3423"
textLength="2.7867" font-size="0.9333" lengthAdjust="spacingAndGlyphs"
text-anchor="middle" opacity="0" stroke-opacity="0">10uF</text>
</g>
<g class="stroked-text"><desc>10uF</desc>
<path d="M120.1876 138.7423
L120.1876 139.1423
" />
<path d="M120.1876 138.9423
L119.4876 138.9423
" />
<path d="M119.4876 138.9423
L119.5876 139.0090
" />
<path d="M119.5876 139.0090
L119.6543 139.0757
" />
<path d="M119.6543 139.0757
L119.6876 139.1423
" />
<path d="M119.4876 138.3090
L119.4876 138.2423
" />
<path d="M119.4876 138.2423
L119.5209 138.1757
" />
<path d="M119.5209 138.1757
L119.5543 138.1423
" />
<path d="M119.5543 138.1423
L119.6209 138.1090
" />
<path d="M119.6209 138.1090
L119.7543 138.0757
" />
<path d="M119.7543 138.0757
L119.9209 138.0757
" />
<path d="M119.9209 138.0757
L120.0543 138.1090
" />
<path d="M120.0543 138.1090
L120.1209 138.1423
" />
<path d="M120.1209 138.1423
L120.1543 138.1757
" />
<path d="M120.1543 138.1757
L120.1876 138.2423
" />
<path d="M120.1876 138.2423
L120.1876 138.3090
" />
<path d="M120.1876 138.3090
L120.1543 138.3757
" />
<path d="M120.1543 138.3757
L120.1209 138.4090
" />
<path d="M120.1209 138.4090
L120.0543 138.4423
" />
<path d="M120.0543 138.4423
L119.9209 138.4757
" />
<path d="M119.9209 138.4757
L119.7543 138.4757
" />
<path d="M119.7543 138.4757
L119.6209 138.4423
" />
<path d="M119.6209 138.4423
L119.5543 138.4090
" />
<path d="M119.5543 138.4090
L119.5209 138.3757
" />
<path d="M119.5209 138.3757
L119.4876 138.3090
" />
<path d="M119.7209 137.4757
L120.1876 137.4757
" />
<path d="M119.7209 137.7757
L120.0876 137.7757
" />
<path d="M120.0876 137.7757
L120.1543 137.7423
" />
<path d="M120.1543 137.7423
L120.1876 137.6757
" />
<path d="M120.1876 137.6757
L120.1876 137.5757
" />
<path d="M120.1876 137.5757
L120.1543 137.5090
" />
<path d="M120.1543 137.5090
L120.1209 137.4757
" />
<path d="M119.8209 136.9090
L119.8209 137.1423
" />
<path d="M120.1876 137.1423
L119.4876 137.1423
" />
<path d="M119.4876 137.1423
L119.4876 136.8090
" />
</g><text x="118.0000" y="135.1300"
textLength="1.5867" font-size="0.9333" lengthAdjust="spacingAndGlyphs"
text-anchor="middle" opacity="0" stroke-opacity="0">C4</text>
<g class="stroked-text"><desc>C4</desc>
<path d="M117.8833 135.0309
L117.8500 135.0643
" />
<path d="M117.8500 135.0643
L117.7500 135.0976
" />
<path d="M117.7500 135.0976
L117.6833 135.0976
" />
<path d="M117.6833 135.0976
L117.5833 135.0643
" />
<path d="M117.5833 135.0643
L117.5167 134.9976
" />
<path d="M117.5167 134.9976
L117.4833 134.9309
" />
<path d="M117.4833 134.9309
L117.4500 134.7976
" />
<path d="M117.4500 134.7976
L117.4500 134.6976
" />
<path d="M117.4500 134.6976
L117.4833 134.5643
" />
<path d="M117.4833 134.5643
L117.5167 134.4976
" />
<path d="M117.5167 134.4976
L117.5833 134.4309
" />
<path d="M117.5833 134.4309
L117.6833 134.3976
" />
<path d="M117.6833 134.3976
L117.7500 134.3976
" />
<path d="M117.7500 134.3976
L117.8500 134.4309
" />
<path d="M117.8500 134.4309
L117.8833 134.4643
" />
<path d="M118.4833 134.6309
L118.4833 135.0976
" />
<path d="M118.3167 134.3643
L118.1500 134.8643
" />
<path d="M118.1500 134.8643
L118.5833 134.8643
" />
</g><g transform="rotate(-90.000000 120.8500 138.0000)">
<text x="120.8500" y="138.3500"
textLength="3.4533" font-size="0.9333" lengthAdjust="spacingAndGlyphs"
text-anchor="middle" opacity="0" stroke-opacity="0">100nF</text>
</g>
<g class="stroked-text"><desc>100nF</desc>
<path d="M121.1676 139.0833
L121.1676 139.4833
" />
<path d="M121.1676 139.2833
L120.4676 139.2833
" />
<path d="M120.4676 139.2833
L120.5676 139.3500
" />
<path d="M120.5676 139.3500
L120.6343 139.4167
" />
<path d="M120.6343 139.4167
L120.6676 139.4833
" />
<path d="M120.4676 138.6500
L120.4676 138.5833
" />
<path d="M120.4676 138.5833
L120.5009 138.5167
" />
<path d="M120.5009 138.5167
L120.5343 138.4833
" />
<path d="M120.5343 138.4833
L120.6009 138.4500
" />
<path d="M120.6009 138.4500
L120.7343 138.4167
" />
<path d="M120.7343 138.4167
L120.9009 138.4167
" />
<path d="M120.9009 138.4167
L121.0343 138.4500
" />
<path d="M121.0343 138.4500
L121.1009 138.4833
" />
<path d="M121.1009 138.4833
L121.1343 138.5167
" />
<path d="M121.1343 138.5167
L121.1676 138.5833
" />
<path d="M121.1676 138.5833
L121.1676 138.6500
" />
<path d="M121.1676 138.6500
L121.1343 138.7167
" />
<path d="M121.1343 138.7167
L121.1009 138.7500
" />
<path d="M121.1009 138.7500
L121.0343 138.7833
" />
<path d="M121.0343 138.7833
L120.9009 138.8167
" />
<path d="M120.9009 138.8167
L120.7343 138.8167
" />
<path d="M120.7343 138.8167
L120.6009 138.7833
" />
<path d="M120.6009 138.7833
L120.5343 138.7500
" />
<path d="M120.5343 138.7500
L120.5009 138.7167
" />
<path d="M120.5009 138.7167
L120.4676 138.6500
" />
<path d="M120.4676 137.9833
L120.4676 137.9167
" />
<path d="M120.4676 137.9167
L120.5009 137.8500
" />
<path d="M120.5009 137.8500
L120.5343 137.8167
" />
<path d="M120.5343 137.8167
L120.6009 137.7833
" />
<path d="M120.6009 137.7833
L120.7343 137.7500
" />
<path d="M120.7343 137.7500
L120.9009 137.7500
" />
<path d="M120.9009 137.7500
L121.0343 137.7833
" />
<path d="M121.0343 137.7833
L121.1009 137.8167
" />
<path d="M121.1009 137.8167
L121.1343 137.8500
" />
<path d="M121.1343 137.8500
L121.1676 137.9167
" />
<path d="M121.1676 137.9167
L121.1676 137.9833
" />
<path d="M121.1676 137.9833
L121.1343 138.0500
" />
<path d="M121.1343 138.0500
L121.1009 138.0833
" />
<path d="M121.1009 138.0833
L121.0343 138.1167
" />
<path d="M121.0343 138.1167
L120.9009 138.1500
" />
<path d="M120.9009 138.1500
L120.7343 138.1500
" />
<path d="M120.7343 138.1500
L120.6009 138.1167
" />
<path d="M120.6009 138.1167
L120.5343 138.0833
" />
<path d="M120.5343 138.0833
L120.5009 138.0500
" />
<path d="M120.5009 138.0500
L120.4676 137.9833
" />
<path d="M120.7009 137.4500
L121.1676 137.4500
" />
<path d="M120.7676 137.4500
L120.7343 137.4167
" />
<path d="M120.7343 137.4167
L120.7009 137.3500
" />
<path d="M120.7009 137.3500
L120.7009 137.2500
" />
<path d="M120.7009 137.2500
L120.7343 137.1833
" />
<path d="M120.7343 137.1833
L120.8009 137.1500
" />
<path d="M120.8009 137.1500
L121.1676 137.1500
" />
<path d="M120.8009 136.5833
L120.8009 136.8167
" />
<path d="M121.1676 136.8167
L120.4676 136.8167
" />
<path d="M120.4676 136.8167
L120.4676 136.4833
" />
</g><path d="M109.7200 136.6300
L109.7200 135.8300
" />
<path d="M109.7200 136.6300
L109.7200 137.4300
" />
<path d="M112.8400 136.6300
L112.8400 135.8300
" />
<path d="M112.8400 136.6300
L112.8400 137.4300
" />
<path style="fill:#F2EDA1; fill-opacity:1.0000; 
stroke:#F2EDA1; stroke-width:0.1200; stroke-opacity:1; 
stroke-linecap:round; stroke-linejoin:round;fill-rule:evenodd;"
d="M 109.7700,137.9300
109.4400,138.1700
109.4400,137.6900
Z" /> 
</g>
<g style="fill:none; 
stroke:#F2EDA1; stroke-width:0.1200; stroke-opacity:1; 
stroke-linecap:round; stroke-linejoin:round;">
<path d="M103.8000 135.9000
L103.8000 140.1000
" />
<path d="M106.2000 140.1000
L106.2000 135.9000
" />
<path d="M106.2000 135.9000 A1.8501 1.8501 0.0 0 0 103.8000 135.9000" />
<path d="M103.8000 140.1000 A1.9010 1.9010 0.0 0 0 106.2000 140.1000" />
<path d="M106.8000 135.9000
L106.8000 140.1000
" />
<path d="M109.2000 140.1000
L109.2000 135.9000
" />
<path d="M109.2000 135.9000 A1.8501 1.8501 0.0 0 0 106.8000 135.9000" />
<path d="M106.8000 140.1000 A1.9010 1.9010 0.0 0 0 109.2000 140.1000" />
<path d="M113.8000 135.9000
L113.8000 140.1000
" />
<path d="M116.2000 140.1000
L116.2000 135.9000
" />
<path d="M116.2000 135.9000 A1.8501 1.8501 0.0 0 0 113.8000 135.9000" />
<path d="M113.8000 140.1000 A1.9010 1.9010 0.0 0 0 116.2000 140.1000" />
<path d="M116.8000 135.9000
L116.8000 140.1000
" />
<path d="M119.2000 140.1000
L119.2000 135.9000
" />
<path d="M119.2000 135.9000 A1.8501 1.8501 0.0 0 0 116.8000 135.9000" />
<path d="M116.8000 140.1000 A1.9010 1.9010 0.0 0 0 119.2000 140.1000" />
</g> 
</svg>
